<?xml version="1.0" encoding="us-ascii" standalone="no"?><svg xmlns="http://www.w3.org/2000/svg" xmlns:xlink="http://www.w3.org/1999/xlink" contentStyleType="text/css" height="1385px" preserveAspectRatio="none" style="width:1315px;height:1385px;background:#1B1B1B;" version="1.1" viewBox="0 0 1315 1385" width="1315px" zoomAndPan="magnify"><defs/><g><rect fill="#1B1B1B" height="1385" style="stroke:none;stroke-width:1.0;" width="1315" x="0" y="0"/><g id="elem_light"><rect fill="#313139" height="109.7813" style="stroke:#E7E7E7;stroke-width:0.5;" width="376" x="284.5" y="66.5"/><text fill="#FFFFFF" font-family="sans-serif" font-size="14" lengthAdjust="spacing" textLength="46" x="447.5" y="81.4951">&lt;req&gt;</text><text fill="#FFFFFF" font-family="sans-serif" font-size="14" lengthAdjust="spacing" textLength="100" x="424.5" y="97.792">Lights control</text><line style="stroke:#E7E7E7;stroke-width:0.5;" x1="285.5" x2="659.5" y1="103.0938" y2="103.0938"/><text fill="#FFFFFF" font-family="sans-serif" font-size="14" lengthAdjust="spacing" textLength="104" x="290.5" y="120.0889">"requirement"</text><text fill="#FFFFFF" font-family="sans-serif" font-size="14" lengthAdjust="spacing" textLength="45" x="290.5" y="136.3857">id = l1</text><text fill="#FFFFFF" font-family="sans-serif" font-size="14" lengthAdjust="spacing" textLength="236" x="290.5" y="152.6826">Text = "The lights should turn on</text><text fill="#FFFFFF" font-family="sans-serif" font-size="14" lengthAdjust="spacing" textLength="360" x="294.5" y="168.9795">when someone enters room before no-light time"</text></g><g id="elem_lir1"><rect fill="#313139" height="52.5938" style="stroke:#E7E7E7;stroke-width:0.5;" width="217" x="778" y="95"/><text fill="#FFFFFF" font-family="sans-serif" font-size="14" lengthAdjust="spacing" textLength="46" x="861.5" y="109.9951">&lt;req&gt;</text><text fill="#FFFFFF" font-family="sans-serif" font-size="14" lengthAdjust="spacing" textLength="199" x="789" y="126.292">Know if someone is present</text><line style="stroke:#E7E7E7;stroke-width:0.5;" x1="779" x2="994" y1="131.5938" y2="131.5938"/></g><g id="elem_motionS"><rect fill="#313139" height="52.5938" style="stroke:#E7E7E7;stroke-width:0.5;" width="119" x="1157.5" y="95"/><text fill="#FFFFFF" font-family="sans-serif" font-size="14" lengthAdjust="spacing" textLength="62" x="1184" y="109.9951">&lt;block&gt;</text><text fill="#FFFFFF" font-family="sans-serif" font-size="14" lengthAdjust="spacing" textLength="101" x="1168.5" y="126.292">Motion sensor</text><line style="stroke:#E7E7E7;stroke-width:0.5;" x1="1158.5" x2="1275.5" y1="131.5938" y2="131.5938"/></g><g id="elem_lir2"><rect fill="#313139" height="52.5938" style="stroke:#E7E7E7;stroke-width:0.5;" width="95" x="839" y="359"/><text fill="#FFFFFF" font-family="sans-serif" font-size="14" lengthAdjust="spacing" textLength="46" x="861.5" y="373.9951">&lt;req&gt;</text><text fill="#FFFFFF" font-family="sans-serif" font-size="14" lengthAdjust="spacing" textLength="77" x="850" y="390.292">Know time</text><line style="stroke:#E7E7E7;stroke-width:0.5;" x1="840" x2="933" y1="395.5938" y2="395.5938"/></g><g id="elem_clock"><rect fill="#313139" height="52.5938" style="stroke:#E7E7E7;stroke-width:0.5;" width="80" x="1177" y="359"/><text fill="#FFFFFF" font-family="sans-serif" font-size="14" lengthAdjust="spacing" textLength="62" x="1184" y="373.9951">&lt;block&gt;</text><text fill="#FFFFFF" font-family="sans-serif" font-size="14" lengthAdjust="spacing" textLength="40" x="1199" y="390.292">Clock</text><line style="stroke:#E7E7E7;stroke-width:0.5;" x1="1178" x2="1256" y1="395.5938" y2="395.5938"/></g><g id="elem_lir3"><rect fill="#313139" height="52.5938" style="stroke:#E7E7E7;stroke-width:0.5;" width="116" x="828.5" y="7"/><text fill="#FFFFFF" font-family="sans-serif" font-size="14" lengthAdjust="spacing" textLength="46" x="861.5" y="21.9951">&lt;req&gt;</text><text fill="#FFFFFF" font-family="sans-serif" font-size="14" lengthAdjust="spacing" textLength="98" x="839.5" y="38.292">Control lights</text><line style="stroke:#E7E7E7;stroke-width:0.5;" x1="829.5" x2="943.5" y1="43.5938" y2="43.5938"/></g><g id="elem_LSwitch"><rect fill="#313139" height="52.5938" style="stroke:#E7E7E7;stroke-width:0.5;" width="105" x="1164.5" y="7"/><text fill="#FFFFFF" font-family="sans-serif" font-size="14" lengthAdjust="spacing" textLength="62" x="1184" y="21.9951">&lt;block&gt;</text><text fill="#FFFFFF" font-family="sans-serif" font-size="14" lengthAdjust="spacing" textLength="87" x="1175.5" y="38.292">Light switch</text><line style="stroke:#E7E7E7;stroke-width:0.5;" x1="1165.5" x2="1268.5" y1="43.5938" y2="43.5938"/></g><g id="elem_temperature"><rect fill="#313139" height="109.7813" style="stroke:#E7E7E7;stroke-width:0.5;" width="237" x="354" y="392.5"/><text fill="#FFFFFF" font-family="sans-serif" font-size="14" lengthAdjust="spacing" textLength="46" x="447.5" y="407.4951">&lt;req&gt;</text><text fill="#FFFFFF" font-family="sans-serif" font-size="14" lengthAdjust="spacing" textLength="150" x="399.5" y="423.792">Maintain tempreture</text><line style="stroke:#E7E7E7;stroke-width:0.5;" x1="355" x2="590" y1="429.0938" y2="429.0938"/><text fill="#FFFFFF" font-family="sans-serif" font-size="14" lengthAdjust="spacing" textLength="104" x="360" y="446.0889">"requirement"</text><text fill="#FFFFFF" font-family="sans-serif" font-size="14" lengthAdjust="spacing" textLength="48" x="360" y="462.3857">id = t1</text><text fill="#FFFFFF" font-family="sans-serif" font-size="14" lengthAdjust="spacing" textLength="221" x="360" y="478.6826">Text = "User sets temperature</text><text fill="#FFFFFF" font-family="sans-serif" font-size="14" lengthAdjust="spacing" textLength="178" x="364" y="494.9795">and system maintains it"</text></g><g id="elem_temr1"><rect fill="#313139" height="52.5938" style="stroke:#E7E7E7;stroke-width:0.5;" width="154" x="809.5" y="447"/><text fill="#FFFFFF" font-family="sans-serif" font-size="14" lengthAdjust="spacing" textLength="46" x="861.5" y="461.9951">&lt;req&gt;</text><text fill="#FFFFFF" font-family="sans-serif" font-size="14" lengthAdjust="spacing" textLength="136" x="820.5" y="478.292">Know temperature</text><line style="stroke:#E7E7E7;stroke-width:0.5;" x1="810.5" x2="962.5" y1="483.5938" y2="483.5938"/></g><g id="elem_TSensor"><rect fill="#313139" height="52.5938" style="stroke:#E7E7E7;stroke-width:0.5;" width="164" x="1135" y="447"/><text fill="#FFFFFF" font-family="sans-serif" font-size="14" lengthAdjust="spacing" textLength="62" x="1184" y="461.9951">&lt;block&gt;</text><text fill="#FFFFFF" font-family="sans-serif" font-size="14" lengthAdjust="spacing" textLength="146" x="1146" y="478.292">Temperature sensor</text><line style="stroke:#E7E7E7;stroke-width:0.5;" x1="1136" x2="1298" y1="483.5938" y2="483.5938"/></g><g id="elem_temr2"><rect fill="#313139" height="52.5938" style="stroke:#E7E7E7;stroke-width:0.5;" width="169" x="802" y="271"/><text fill="#FFFFFF" font-family="sans-serif" font-size="14" lengthAdjust="spacing" textLength="46" x="861.5" y="285.9951">&lt;req&gt;</text><text fill="#FFFFFF" font-family="sans-serif" font-size="14" lengthAdjust="spacing" textLength="151" x="813" y="302.292">Control temperature</text><line style="stroke:#E7E7E7;stroke-width:0.5;" x1="803" x2="970" y1="307.5938" y2="307.5938"/></g><g id="elem_ac"><rect fill="#313139" height="52.5938" style="stroke:#E7E7E7;stroke-width:0.5;" width="80" x="1177" y="271"/><text fill="#FFFFFF" font-family="sans-serif" font-size="14" lengthAdjust="spacing" textLength="62" x="1184" y="285.9951">&lt;block&gt;</text><text fill="#FFFFFF" font-family="sans-serif" font-size="14" lengthAdjust="spacing" textLength="20" x="1209" y="302.292">AC</text><line style="stroke:#E7E7E7;stroke-width:0.5;" x1="1178" x2="1256" y1="307.5938" y2="307.5938"/></g><g id="elem_heating"><rect fill="#313139" height="52.5938" style="stroke:#E7E7E7;stroke-width:0.5;" width="130" x="1152" y="183"/><text fill="#FFFFFF" font-family="sans-serif" font-size="14" lengthAdjust="spacing" textLength="62" x="1184" y="197.9951">&lt;block&gt;</text><text fill="#FFFFFF" font-family="sans-serif" font-size="14" lengthAdjust="spacing" textLength="112" x="1163" y="214.292">Heating system</text><line style="stroke:#E7E7E7;stroke-width:0.5;" x1="1153" x2="1281" y1="219.5938" y2="219.5938"/></g><g id="elem_temr3"><rect fill="#313139" height="52.5938" style="stroke:#E7E7E7;stroke-width:0.5;" width="140" x="816.5" y="535"/><text fill="#FFFFFF" font-family="sans-serif" font-size="14" lengthAdjust="spacing" textLength="46" x="861.5" y="549.9951">&lt;req&gt;</text><text fill="#FFFFFF" font-family="sans-serif" font-size="14" lengthAdjust="spacing" textLength="122" x="827.5" y="566.292">Set temperature</text><line style="stroke:#E7E7E7;stroke-width:0.5;" x1="817.5" x2="955.5" y1="571.5938" y2="571.5938"/></g><g id="elem_phone"><rect fill="#313139" height="52.5938" style="stroke:#E7E7E7;stroke-width:0.5;" width="95" x="1169.5" y="850"/><text fill="#FFFFFF" font-family="sans-serif" font-size="14" lengthAdjust="spacing" textLength="62" x="1184" y="864.9951">&lt;block&gt;</text><text fill="#FFFFFF" font-family="sans-serif" font-size="14" lengthAdjust="spacing" textLength="77" x="1180.5" y="881.292">Phone app</text><line style="stroke:#E7E7E7;stroke-width:0.5;" x1="1170.5" x2="1263.5" y1="886.5938" y2="886.5938"/></g><g id="elem_security"><rect fill="#313139" height="109.7813" style="stroke:#E7E7E7;stroke-width:0.5;" width="328" x="308.5" y="946.5"/><text fill="#FFFFFF" font-family="sans-serif" font-size="14" lengthAdjust="spacing" textLength="46" x="447.5" y="961.4951">&lt;req&gt;</text><text fill="#FFFFFF" font-family="sans-serif" font-size="14" lengthAdjust="spacing" textLength="115" x="417" y="977.792">Security control</text><line style="stroke:#E7E7E7;stroke-width:0.5;" x1="309.5" x2="635.5" y1="983.0938" y2="983.0938"/><text fill="#FFFFFF" font-family="sans-serif" font-size="14" lengthAdjust="spacing" textLength="104" x="314.5" y="1000.0889">"requirement"</text><text fill="#FFFFFF" font-family="sans-serif" font-size="14" lengthAdjust="spacing" textLength="48" x="314.5" y="1016.3857">id = s1</text><text fill="#FFFFFF" font-family="sans-serif" font-size="14" lengthAdjust="spacing" textLength="312" x="314.5" y="1032.6826">Text = "Disable alarm and open front doors</text><text fill="#FFFFFF" font-family="sans-serif" font-size="14" lengthAdjust="spacing" textLength="161" x="318.5" y="1048.9795">when residents arrive"</text></g><g id="elem_secr1"><rect fill="#313139" height="52.5938" style="stroke:#E7E7E7;stroke-width:0.5;" width="190" x="791.5" y="799"/><text fill="#FFFFFF" font-family="sans-serif" font-size="14" lengthAdjust="spacing" textLength="46" x="861.5" y="813.9951">&lt;req&gt;</text><text fill="#FFFFFF" font-family="sans-serif" font-size="14" lengthAdjust="spacing" textLength="172" x="802.5" y="830.292">Know residents location</text><line style="stroke:#E7E7E7;stroke-width:0.5;" x1="792.5" x2="980.5" y1="835.5938" y2="835.5938"/></g><g id="elem_secr2"><rect fill="#313139" height="52.5938" style="stroke:#E7E7E7;stroke-width:0.5;" width="135" x="819" y="975"/><text fill="#FFFFFF" font-family="sans-serif" font-size="14" lengthAdjust="spacing" textLength="46" x="861.5" y="989.9951">&lt;req&gt;</text><text fill="#FFFFFF" font-family="sans-serif" font-size="14" lengthAdjust="spacing" textLength="117" x="830" y="1006.292">Open front door</text><line style="stroke:#E7E7E7;stroke-width:0.5;" x1="820" x2="953" y1="1011.5938" y2="1011.5938"/></g><g id="elem_door"><rect fill="#313139" height="52.5938" style="stroke:#E7E7E7;stroke-width:0.5;" width="130" x="1152" y="975"/><text fill="#FFFFFF" font-family="sans-serif" font-size="14" lengthAdjust="spacing" textLength="62" x="1184" y="989.9951">&lt;block&gt;</text><text fill="#FFFFFF" font-family="sans-serif" font-size="14" lengthAdjust="spacing" textLength="112" x="1163" y="1006.292">Automatic door</text><line style="stroke:#E7E7E7;stroke-width:0.5;" x1="1153" x2="1281" y1="1011.5938" y2="1011.5938"/></g><g id="elem_secr3"><rect fill="#313139" height="52.5938" style="stroke:#E7E7E7;stroke-width:0.5;" width="171" x="801" y="1151"/><text fill="#FFFFFF" font-family="sans-serif" font-size="14" lengthAdjust="spacing" textLength="46" x="861.5" y="1165.9951">&lt;req&gt;</text><text fill="#FFFFFF" font-family="sans-serif" font-size="14" lengthAdjust="spacing" textLength="153" x="812" y="1182.292">Turn alarm off and on</text><line style="stroke:#E7E7E7;stroke-width:0.5;" x1="802" x2="971" y1="1187.5938" y2="1187.5938"/></g><g id="elem_alarm"><rect fill="#313139" height="52.5938" style="stroke:#E7E7E7;stroke-width:0.5;" width="116" x="1159" y="1151"/><text fill="#FFFFFF" font-family="sans-serif" font-size="14" lengthAdjust="spacing" textLength="62" x="1184" y="1165.9951">&lt;block&gt;</text><text fill="#FFFFFF" font-family="sans-serif" font-size="14" lengthAdjust="spacing" textLength="98" x="1170" y="1182.292">Alarm system</text><line style="stroke:#E7E7E7;stroke-width:0.5;" x1="1160" x2="1274" y1="1187.5938" y2="1187.5938"/></g><g id="elem_coffee"><rect fill="#313139" height="93.4844" style="stroke:#E7E7E7;stroke-width:0.5;" width="343" x="301" y="779"/><text fill="#FFFFFF" font-family="sans-serif" font-size="14" lengthAdjust="spacing" textLength="46" x="447.5" y="793.9951">&lt;req&gt;</text><text fill="#FFFFFF" font-family="sans-serif" font-size="14" lengthAdjust="spacing" textLength="172" x="388.5" y="810.292">Prepare morning coffee</text><line style="stroke:#E7E7E7;stroke-width:0.5;" x1="302" x2="643" y1="815.5938" y2="815.5938"/><text fill="#FFFFFF" font-family="sans-serif" font-size="14" lengthAdjust="spacing" textLength="104" x="307" y="832.5889">"requirement"</text><text fill="#FFFFFF" font-family="sans-serif" font-size="14" lengthAdjust="spacing" textLength="49" x="307" y="848.8857">id = c1</text><text fill="#FFFFFF" font-family="sans-serif" font-size="14" lengthAdjust="spacing" textLength="331" x="307" y="865.1826">Text = "Make coffee when residents wake up"</text></g><g id="elem_cr1"><rect fill="#313139" height="52.5938" style="stroke:#E7E7E7;stroke-width:0.5;" width="126" x="823.5" y="711"/><text fill="#FFFFFF" font-family="sans-serif" font-size="14" lengthAdjust="spacing" textLength="46" x="861.5" y="725.9951">&lt;req&gt;</text><text fill="#FFFFFF" font-family="sans-serif" font-size="14" lengthAdjust="spacing" textLength="108" x="834.5" y="742.292">Prepare coffee</text><line style="stroke:#E7E7E7;stroke-width:0.5;" x1="824.5" x2="948.5" y1="747.5938" y2="747.5938"/></g><g id="elem_drinker"><rect fill="#313139" height="52.5938" style="stroke:#E7E7E7;stroke-width:0.5;" width="153" x="1140.5" y="682"/><text fill="#FFFFFF" font-family="sans-serif" font-size="14" lengthAdjust="spacing" textLength="62" x="1184" y="696.9951">&lt;block&gt;</text><text fill="#FFFFFF" font-family="sans-serif" font-size="14" lengthAdjust="spacing" textLength="135" x="1151.5" y="713.292">Smart drink maker</text><line style="stroke:#E7E7E7;stroke-width:0.5;" x1="1141.5" x2="1292.5" y1="718.5938" y2="718.5938"/></g><g id="elem_cr2"><rect fill="#313139" height="52.5938" style="stroke:#E7E7E7;stroke-width:0.5;" width="158" x="807.5" y="887"/><text fill="#FFFFFF" font-family="sans-serif" font-size="14" lengthAdjust="spacing" textLength="46" x="861.5" y="901.9951">&lt;req&gt;</text><text fill="#FFFFFF" font-family="sans-serif" font-size="14" lengthAdjust="spacing" textLength="140" x="818.5" y="918.292">Know wake up time</text><line style="stroke:#E7E7E7;stroke-width:0.5;" x1="808.5" x2="964.5" y1="923.5938" y2="923.5938"/></g><g id="elem_tea"><rect fill="#313139" height="109.7813" style="stroke:#E7E7E7;stroke-width:0.5;" width="343" x="301" y="594.5"/><text fill="#FFFFFF" font-family="sans-serif" font-size="14" lengthAdjust="spacing" textLength="46" x="447.5" y="609.4951">&lt;req&gt;</text><text fill="#FFFFFF" font-family="sans-serif" font-size="14" lengthAdjust="spacing" textLength="146" x="401.5" y="625.792">Prepare evening tea</text><line style="stroke:#E7E7E7;stroke-width:0.5;" x1="302" x2="643" y1="631.0938" y2="631.0938"/><text fill="#FFFFFF" font-family="sans-serif" font-size="14" lengthAdjust="spacing" textLength="104" x="307" y="648.0889">"requirement"</text><text fill="#FFFFFF" font-family="sans-serif" font-size="14" lengthAdjust="spacing" textLength="48" x="307" y="664.3857">id = t1</text><text fill="#FFFFFF" font-family="sans-serif" font-size="14" lengthAdjust="spacing" textLength="327" x="307" y="680.6826">Text = "Make tea when resident comes home</text><text fill="#FFFFFF" font-family="sans-serif" font-size="14" lengthAdjust="spacing" textLength="243" x="311" y="696.9795">or at 5PM if he is already present"</text></g><g id="elem_tr1"><rect fill="#313139" height="52.5938" style="stroke:#E7E7E7;stroke-width:0.5;" width="103" x="835" y="623"/><text fill="#FFFFFF" font-family="sans-serif" font-size="14" lengthAdjust="spacing" textLength="46" x="861.5" y="637.9951">&lt;req&gt;</text><text fill="#FFFFFF" font-family="sans-serif" font-size="14" lengthAdjust="spacing" textLength="85" x="846" y="654.292">Prepare tea</text><line style="stroke:#E7E7E7;stroke-width:0.5;" x1="836" x2="937" y1="659.5938" y2="659.5938"/></g><g id="elem_food"><rect fill="#313139" height="109.7813" style="stroke:#E7E7E7;stroke-width:0.5;" width="377" x="284" y="1210.5"/><text fill="#FFFFFF" font-family="sans-serif" font-size="14" lengthAdjust="spacing" textLength="46" x="447.5" y="1225.4951">&lt;req&gt;</text><text fill="#FFFFFF" font-family="sans-serif" font-size="14" lengthAdjust="spacing" textLength="221" x="364" y="1241.792">Maintain enough selected food</text><line style="stroke:#E7E7E7;stroke-width:0.5;" x1="285" x2="660" y1="1247.0938" y2="1247.0938"/><text fill="#FFFFFF" font-family="sans-serif" font-size="14" lengthAdjust="spacing" textLength="104" x="290" y="1264.0889">"requirement"</text><text fill="#FFFFFF" font-family="sans-serif" font-size="14" lengthAdjust="spacing" textLength="47" x="290" y="1280.3857">id = f1</text><text fill="#FFFFFF" font-family="sans-serif" font-size="14" lengthAdjust="spacing" textLength="361" x="290" y="1296.6826">Text = "Automatically order food when it runs out,</text><text fill="#FFFFFF" font-family="sans-serif" font-size="14" lengthAdjust="spacing" textLength="290" x="294" y="1312.9795">receive special requests from residents"</text></g><g id="elem_fr1"><rect fill="#313139" height="52.5938" style="stroke:#E7E7E7;stroke-width:0.5;" width="225" x="774" y="1327"/><text fill="#FFFFFF" font-family="sans-serif" font-size="14" lengthAdjust="spacing" textLength="46" x="861.5" y="1341.9951">&lt;req&gt;</text><text fill="#FFFFFF" font-family="sans-serif" font-size="14" lengthAdjust="spacing" textLength="207" x="785" y="1358.292">Know what food is remeining</text><line style="stroke:#E7E7E7;stroke-width:0.5;" x1="775" x2="998" y1="1363.5938" y2="1363.5938"/></g><g id="elem_fridge"><rect fill="#313139" height="52.5938" style="stroke:#E7E7E7;stroke-width:0.5;" width="109" x="1162.5" y="1327"/><text fill="#FFFFFF" font-family="sans-serif" font-size="14" lengthAdjust="spacing" textLength="62" x="1184" y="1341.9951">&lt;block&gt;</text><text fill="#FFFFFF" font-family="sans-serif" font-size="14" lengthAdjust="spacing" textLength="91" x="1173.5" y="1358.292">Smart fridge</text><line style="stroke:#E7E7E7;stroke-width:0.5;" x1="1163.5" x2="1270.5" y1="1363.5938" y2="1363.5938"/></g><g id="elem_fr2"><rect fill="#313139" height="52.5938" style="stroke:#E7E7E7;stroke-width:0.5;" width="243" x="765" y="1063"/><text fill="#FFFFFF" font-family="sans-serif" font-size="14" lengthAdjust="spacing" textLength="46" x="861.5" y="1077.9951">&lt;req&gt;</text><text fill="#FFFFFF" font-family="sans-serif" font-size="14" lengthAdjust="spacing" textLength="225" x="776" y="1094.292">Know what food residents want</text><line style="stroke:#E7E7E7;stroke-width:0.5;" x1="766" x2="1007" y1="1099.5938" y2="1099.5938"/></g><g id="elem_fr3"><rect fill="#313139" height="52.5938" style="stroke:#E7E7E7;stroke-width:0.5;" width="96" x="838.5" y="1239"/><text fill="#FFFFFF" font-family="sans-serif" font-size="14" lengthAdjust="spacing" textLength="46" x="861.5" y="1253.9951">&lt;req&gt;</text><text fill="#FFFFFF" font-family="sans-serif" font-size="14" lengthAdjust="spacing" textLength="78" x="849.5" y="1270.292">Order food</text><line style="stroke:#E7E7E7;stroke-width:0.5;" x1="839.5" x2="933.5" y1="1275.5938" y2="1275.5938"/></g><g id="elem_foodD"><rect fill="#313139" height="52.5938" style="stroke:#E7E7E7;stroke-width:0.5;" width="184" x="1125" y="1239"/><text fill="#FFFFFF" font-family="sans-serif" font-size="14" lengthAdjust="spacing" textLength="62" x="1184" y="1253.9951">&lt;block&gt;</text><text fill="#FFFFFF" font-family="sans-serif" font-size="14" lengthAdjust="spacing" textLength="166" x="1136" y="1270.292">Food delivery company</text><line style="stroke:#E7E7E7;stroke-width:0.5;" x1="1126" x2="1308" y1="1275.5938" y2="1275.5938"/></g><g id="elem_t1"><rect fill="#313139" height="52.5938" style="stroke:#E7E7E7;stroke-width:0.5;" width="167" x="7" y="975"/><text fill="#FFFFFF" font-family="sans-serif" font-size="14" lengthAdjust="spacing" textLength="90" x="43.5" y="989.9951">&lt;Test case&gt;</text><text fill="#FFFFFF" font-family="sans-serif" font-size="14" lengthAdjust="spacing" textLength="149" x="18" y="1006.292">Security control test</text><line style="stroke:#E7E7E7;stroke-width:0.5;" x1="8" x2="173" y1="1011.5938" y2="1011.5938"/></g><g id="elem_t2"><rect fill="#313139" height="52.5938" style="stroke:#E7E7E7;stroke-width:0.5;" width="108" x="36.5" y="1239"/><text fill="#FFFFFF" font-family="sans-serif" font-size="14" lengthAdjust="spacing" textLength="90" x="43.5" y="1253.9951">&lt;Test case&gt;</text><text fill="#FFFFFF" font-family="sans-serif" font-size="14" lengthAdjust="spacing" textLength="69" x="58" y="1270.292">Food test</text><line style="stroke:#E7E7E7;stroke-width:0.5;" x1="37.5" x2="143.5" y1="1275.5938" y2="1275.5938"/></g><g id="elem_t3"><rect fill="#313139" height="52.5938" style="stroke:#E7E7E7;stroke-width:0.5;" width="108" x="36.5" y="799"/><text fill="#FFFFFF" font-family="sans-serif" font-size="14" lengthAdjust="spacing" textLength="90" x="43.5" y="813.9951">&lt;Test case&gt;</text><text fill="#FFFFFF" font-family="sans-serif" font-size="14" lengthAdjust="spacing" textLength="83" x="51" y="830.292">Coffee test</text><line style="stroke:#E7E7E7;stroke-width:0.5;" x1="37.5" x2="143.5" y1="835.5938" y2="835.5938"/></g><g id="elem_t4"><rect fill="#313139" height="52.5938" style="stroke:#E7E7E7;stroke-width:0.5;" width="108" x="36.5" y="623"/><text fill="#FFFFFF" font-family="sans-serif" font-size="14" lengthAdjust="spacing" textLength="90" x="43.5" y="637.9951">&lt;Test case&gt;</text><text fill="#FFFFFF" font-family="sans-serif" font-size="14" lengthAdjust="spacing" textLength="60" x="62.5" y="654.292">Tea test</text><line style="stroke:#E7E7E7;stroke-width:0.5;" x1="37.5" x2="143.5" y1="659.5938" y2="659.5938"/></g><g id="elem_t5"><rect fill="#313139" height="52.5938" style="stroke:#E7E7E7;stroke-width:0.5;" width="147" x="17" y="421"/><text fill="#FFFFFF" font-family="sans-serif" font-size="14" lengthAdjust="spacing" textLength="90" x="43.5" y="435.9951">&lt;Test case&gt;</text><text fill="#FFFFFF" font-family="sans-serif" font-size="14" lengthAdjust="spacing" textLength="129" x="28" y="452.292">Temperature test</text><line style="stroke:#E7E7E7;stroke-width:0.5;" x1="18" x2="163" y1="457.5938" y2="457.5938"/></g><g id="elem_t6"><rect fill="#313139" height="52.5938" style="stroke:#E7E7E7;stroke-width:0.5;" width="130" x="25.5" y="95"/><text fill="#FFFFFF" font-family="sans-serif" font-size="14" lengthAdjust="spacing" textLength="90" x="43.5" y="109.9951">&lt;Test case&gt;</text><text fill="#FFFFFF" font-family="sans-serif" font-size="14" lengthAdjust="spacing" textLength="112" x="36.5" y="126.292">Lights test test</text><line style="stroke:#E7E7E7;stroke-width:0.5;" x1="26.5" x2="154.5" y1="131.5938" y2="131.5938"/></g><!--reverse link light to lir1--><g id="link_light_lir1"><path codeLine="12" d="M665.701,121.5 C704.251,121.5 743.447,121.5 777.859,121.5 " fill="none" id="light-backto-lir1" style="stroke:#E7E7E7;stroke-width:1.0;stroke-dasharray:7.0,7.0;"/><polygon fill="#E7E7E7" points="660.513,121.5,669.513,125.5,665.513,121.5,669.513,117.5,660.513,121.5" style="stroke:#E7E7E7;stroke-width:1.0;"/><text fill="#FFFFFF" font-family="sans-serif" font-size="13" lengthAdjust="spacing" textLength="42" x="692" y="117.5669">Derive</text></g><!--reverse link lir1 to motionS--><g id="link_lir1_motionS"><path codeLine="13" d="M1000.142,121.5 C1052.88,121.5 1113.53,121.5 1157.08,121.5 " fill="none" id="lir1-backto-motionS" style="stroke:#E7E7E7;stroke-width:1.0;stroke-dasharray:7.0,7.0;"/><polygon fill="#E7E7E7" points="995.063,121.5,1004.063,125.5,1000.063,121.5,1004.063,117.5,995.063,121.5" style="stroke:#E7E7E7;stroke-width:1.0;"/><text fill="#FFFFFF" font-family="sans-serif" font-size="13" lengthAdjust="spacing" textLength="55" x="1039" y="117.5669">Provides</text></g><!--reverse link light to lir2--><g id="link_light_lir2"><path codeLine="18" d="M539.187,180.14 C595.852,228.42 681.515,296.08 765,341.5 C788.28,354.17 815.954,364.56 838.907,372.07 " fill="none" id="light-backto-lir2" style="stroke:#E7E7E7;stroke-width:1.0;stroke-dasharray:7.0,7.0;"/><polygon fill="#E7E7E7" points="535.157,176.69,539.3987,185.5786,538.9575,179.939,544.5971,179.4978,535.157,176.69" style="stroke:#E7E7E7;stroke-width:1.0;"/><text fill="#FFFFFF" font-family="sans-serif" font-size="13" lengthAdjust="spacing" textLength="42" x="692" y="295.5669">Derive</text></g><!--reverse link lir2 to clock--><g id="link_lir2_clock"><path codeLine="19" d="M939.267,385.5 C1005.11,385.5 1117.36,385.5 1176.64,385.5 " fill="none" id="lir2-backto-clock" style="stroke:#E7E7E7;stroke-width:1.0;stroke-dasharray:7.0,7.0;"/><polygon fill="#E7E7E7" points="934.217,385.5,943.217,389.5,939.217,385.5,943.217,381.5,934.217,385.5" style="stroke:#E7E7E7;stroke-width:1.0;"/><text fill="#FFFFFF" font-family="sans-serif" font-size="13" lengthAdjust="spacing" textLength="55" x="1039" y="381.5669">Provides</text></g><!--reverse link light to lir3--><g id="link_light_lir3"><path codeLine="24" d="M665.509,80.49 C724.792,67.83 785.627,54.83 828.255,45.73 " fill="none" id="light-backto-lir3" style="stroke:#E7E7E7;stroke-width:1.0;stroke-dasharray:7.0,7.0;"/><polygon fill="#E7E7E7" points="660.513,81.56,670.1509,83.5878,665.4023,80.5135,668.4765,75.7649,660.513,81.56" style="stroke:#E7E7E7;stroke-width:1.0;"/><text fill="#FFFFFF" font-family="sans-serif" font-size="13" lengthAdjust="spacing" textLength="42" x="692" y="62.5669">Derive</text></g><!--reverse link lir3 to LSwitch--><g id="link_lir3_LSwitch"><path codeLine="25" d="M949.881,33.5 C1012,33.5 1106.23,33.5 1164.3,33.5 " fill="none" id="lir3-backto-LSwitch" style="stroke:#E7E7E7;stroke-width:1.0;stroke-dasharray:7.0,7.0;"/><polygon fill="#E7E7E7" points="944.72,33.5,953.72,37.5,949.72,33.5,953.72,29.5,944.72,33.5" style="stroke:#E7E7E7;stroke-width:1.0;"/><text fill="#FFFFFF" font-family="sans-serif" font-size="13" lengthAdjust="spacing" textLength="55" x="1039" y="29.5669">Provides</text></g><!--reverse link temperature to temr1--><g id="link_temperature_temr1"><path codeLine="36" d="M596.388,455.255 C665.58,459.622 749.803,464.937 809.454,468.701 " fill="none" id="temperature-backto-temr1" style="stroke:#E7E7E7;stroke-width:1.0;stroke-dasharray:7.0,7.0;"/><polygon fill="#E7E7E7" points="591.011,454.916,599.7405,459.4763,596.001,455.2317,600.2456,451.4923,591.011,454.916" style="stroke:#E7E7E7;stroke-width:1.0;"/><text fill="#FFFFFF" font-family="sans-serif" font-size="13" lengthAdjust="spacing" textLength="42" x="692" y="456.5669">Derive</text></g><!--reverse link temr1 to TSensor--><g id="link_temr1_TSensor"><path codeLine="37" d="M968.85,473.5 C1019.43,473.5 1084.22,473.5 1134.77,473.5 " fill="none" id="temr1-backto-TSensor" style="stroke:#E7E7E7;stroke-width:1.0;stroke-dasharray:7.0,7.0;"/><polygon fill="#E7E7E7" points="963.69,473.5,972.69,477.5,968.69,473.5,972.69,469.5,963.69,473.5" style="stroke:#E7E7E7;stroke-width:1.0;"/><text fill="#FFFFFF" font-family="sans-serif" font-size="13" lengthAdjust="spacing" textLength="55" x="1039" y="469.5669">Provides</text></g><!--reverse link temperature to temr2--><g id="link_temperature_temr2"><path codeLine="43" d="M596.057,402.88 C666.514,377.23 752.643,345.87 812.543,324.06 " fill="none" id="temperature-backto-temr2" style="stroke:#E7E7E7;stroke-width:1.0;stroke-dasharray:7.0,7.0;"/><polygon fill="#E7E7E7" points="591.011,404.717,600.8363,405.3978,595.7095,403.007,598.1003,397.8802,591.011,404.717" style="stroke:#E7E7E7;stroke-width:1.0;"/><text fill="#FFFFFF" font-family="sans-serif" font-size="13" lengthAdjust="spacing" textLength="42" x="692" y="350.5669">Derive</text></g><!--reverse link temr2 to ac--><g id="link_temr2_ac"><path codeLine="44" d="M976.312,297.5 C1041.7,297.5 1127.46,297.5 1176.68,297.5 " fill="none" id="temr2-backto-ac" style="stroke:#E7E7E7;stroke-width:1.0;stroke-dasharray:7.0,7.0;"/><polygon fill="#E7E7E7" points="971.244,297.5,980.244,301.5,976.244,297.5,980.244,293.5,971.244,297.5" style="stroke:#E7E7E7;stroke-width:1.0;"/><text fill="#FFFFFF" font-family="sans-serif" font-size="13" lengthAdjust="spacing" textLength="55" x="1039" y="293.5669">Provides</text></g><!--reverse link temr2 to heating--><g id="link_temr2_heating"><path codeLine="45" d="M976.223,273.73 C1031.67,258.88 1101.79,240.1 1151.85,226.68 " fill="none" id="temr2-backto-heating" style="stroke:#E7E7E7;stroke-width:1.0;stroke-dasharray:7.0,7.0;"/><polygon fill="#E7E7E7" points="971.244,275.07,980.9727,276.6034,976.0735,273.7755,978.9015,268.8762,971.244,275.07" style="stroke:#E7E7E7;stroke-width:1.0;"/><text fill="#FFFFFF" font-family="sans-serif" font-size="13" lengthAdjust="spacing" textLength="55" x="1039" y="238.5669">Provides</text></g><!--reverse link temperature to temr3--><g id="link_temperature_temr3"><path codeLine="50" d="M557.639,505.362 C596.413,528.623 644.154,552.699 691,564.5 C731.608,574.729 778.51,574.345 816.082,571.229 " fill="none" id="temperature-backto-temr3" style="stroke:#E7E7E7;stroke-width:1.0;stroke-dasharray:7.0,7.0;"/><polygon fill="#E7E7E7" points="552.956,502.53,558.5878,510.6098,557.2346,505.1172,562.7272,503.764,552.956,502.53" style="stroke:#E7E7E7;stroke-width:1.0;"/><text fill="#FFFFFF" font-family="sans-serif" font-size="13" lengthAdjust="spacing" textLength="42" x="692" y="560.5669">Derive</text></g><!--reverse link temr3 to phone--><g id="link_temr3_phone"><path codeLine="51" d="M961.608,575.714 C1006.662,588.179 1061.74,610.917 1095,651.5 C1124.68,687.717 1104.17,710.559 1125,752.5 C1143.05,788.853 1171.75,825.751 1192.08,849.732 " fill="none" id="temr3-backto-phone" style="stroke:#E7E7E7;stroke-width:1.0;stroke-dasharray:7.0,7.0;"/><polygon fill="#E7E7E7" points="956.725,574.392,964.3683,580.6032,961.5515,575.6976,966.4572,572.8808,956.725,574.392" style="stroke:#E7E7E7;stroke-width:1.0;"/><text fill="#FFFFFF" font-family="sans-serif" font-size="13" lengthAdjust="spacing" textLength="55" x="1039" y="601.5669">Provides</text></g><!--reverse link security to secr1--><g id="link_security_secr1"><path codeLine="61" d="M641.514,959.929 C674.356,947.272 707.192,931.074 735,910.5 C753.151,897.07 746.951,883.068 765,869.5 C773.901,862.809 783.922,857.053 794.285,852.122 " fill="none" id="security-backto-secr1" style="stroke:#E7E7E7;stroke-width:1.0;stroke-dasharray:7.0,7.0;"/><polygon fill="#E7E7E7" points="636.669,961.77,646.5031,962.3095,641.3424,959.9926,643.6593,954.832,636.669,961.77" style="stroke:#E7E7E7;stroke-width:1.0;"/><text fill="#FFFFFF" font-family="sans-serif" font-size="13" lengthAdjust="spacing" textLength="42" x="692" y="906.5669">Derive</text></g><!--reverse link secr1 to phone--><g id="link_secr1_phone"><path codeLine="62" d="M986.709,840.902 C1047.28,850.306 1121.93,861.895 1169.26,869.243 " fill="none" id="secr1-backto-phone" style="stroke:#E7E7E7;stroke-width:1.0;stroke-dasharray:7.0,7.0;"/><polygon fill="#E7E7E7" points="981.635,840.115,989.9148,845.4483,986.5758,840.882,991.1421,837.543,981.635,840.115" style="stroke:#E7E7E7;stroke-width:1.0;"/><text fill="#FFFFFF" font-family="sans-serif" font-size="13" lengthAdjust="spacing" textLength="55" x="1039" y="844.5669">Provides</text></g><!--reverse link security to secr2--><g id="link_security_secr2"><path codeLine="67" d="M642.062,1002.499 C672.975,1002.581 704.958,1002.6 735,1002.5 C762.435,1002.409 792.683,1002.224 818.822,1002.038 " fill="none" id="security-backto-secr2" style="stroke:#E7E7E7;stroke-width:1.0;stroke-dasharray:7.0,7.0;"/><polygon fill="#E7E7E7" points="636.708,1002.484,645.6965,1006.5097,641.708,1002.4983,645.7194,998.5097,636.708,1002.484" style="stroke:#E7E7E7;stroke-width:1.0;"/><text fill="#FFFFFF" font-family="sans-serif" font-size="13" lengthAdjust="spacing" textLength="42" x="692" y="998.5669">Derive</text></g><!--reverse link secr2 to door--><g id="link_secr2_door"><path codeLine="68" d="M959.506,1001.5 C1016.89,1001.5 1096.49,1001.5 1151.74,1001.5 " fill="none" id="secr2-backto-door" style="stroke:#E7E7E7;stroke-width:1.0;stroke-dasharray:7.0,7.0;"/><polygon fill="#E7E7E7" points="954.373,1001.5,963.373,1005.5,959.373,1001.5,963.373,997.5,954.373,1001.5" style="stroke:#E7E7E7;stroke-width:1.0;"/><text fill="#FFFFFF" font-family="sans-serif" font-size="13" lengthAdjust="spacing" textLength="55" x="1039" y="997.5669">Provides</text></g><!--reverse link security to secr3--><g id="link_security_secr3"><path codeLine="73" d="M531.868,1060.185 C572.699,1097.198 630.562,1142.1 691,1164.5 C725.589,1177.32 765.984,1181.58 800.971,1182.245 " fill="none" id="security-backto-secr3" style="stroke:#E7E7E7;stroke-width:1.0;stroke-dasharray:7.0,7.0;"/><polygon fill="#E7E7E7" points="527.971,1056.628,531.9226,1065.6494,531.6643,1059.9984,537.3152,1059.7401,527.971,1056.628" style="stroke:#E7E7E7;stroke-width:1.0;"/><text fill="#FFFFFF" font-family="sans-serif" font-size="13" lengthAdjust="spacing" textLength="42" x="692" y="1160.5669">Derive</text></g><!--reverse link secr3 to alarm--><g id="link_secr3_alarm"><path codeLine="74" d="M977.288,1177.5 C1035.1,1177.5 1108.53,1177.5 1158.58,1177.5 " fill="none" id="secr3-backto-alarm" style="stroke:#E7E7E7;stroke-width:1.0;stroke-dasharray:7.0,7.0;"/><polygon fill="#E7E7E7" points="972.097,1177.5,981.097,1181.5,977.097,1177.5,981.097,1173.5,972.097,1177.5" style="stroke:#E7E7E7;stroke-width:1.0;"/><text fill="#FFFFFF" font-family="sans-serif" font-size="13" lengthAdjust="spacing" textLength="55" x="1039" y="1173.5669">Provides</text></g><!--reverse link coffee to cr1--><g id="link_coffee_cr1"><path codeLine="85" d="M649.272,787.956 C711.298,774.708 777.061,760.662 823.406,750.763 " fill="none" id="coffee-backto-cr1" style="stroke:#E7E7E7;stroke-width:1.0;stroke-dasharray:7.0,7.0;"/><polygon fill="#E7E7E7" points="644.05,789.072,653.6869,791.1042,648.9397,788.0278,652.0162,783.2806,644.05,789.072" style="stroke:#E7E7E7;stroke-width:1.0;"/><text fill="#FFFFFF" font-family="sans-serif" font-size="13" lengthAdjust="spacing" textLength="42" x="692" y="766.5669">Derive</text></g><!--reverse link cr1 to drinker--><g id="link_cr1_drinker"><path codeLine="86" d="M955.18,734.44 C995.78,732.31 1048.41,729.034 1095,724.5 C1109.66,723.073 1125.27,721.242 1140.25,719.331 " fill="none" id="cr1-backto-drinker" style="stroke:#E7E7E7;stroke-width:1.0;stroke-dasharray:7.0,7.0;"/><polygon fill="#E7E7E7" points="949.786,734.72,958.9818,738.2466,954.7792,734.46,958.5658,730.2574,949.786,734.72" style="stroke:#E7E7E7;stroke-width:1.0;"/><text fill="#FFFFFF" font-family="sans-serif" font-size="13" lengthAdjust="spacing" textLength="55" x="1039" y="720.5669">Provides</text></g><!--reverse link coffee to cr2--><g id="link_coffee_cr2"><path codeLine="90" d="M649.456,868.384 C663.492,871.556 677.469,874.632 691,877.5 C729.13,885.581 771.682,893.573 807.239,899.966 " fill="none" id="coffee-backto-cr2" style="stroke:#E7E7E7;stroke-width:1.0;stroke-dasharray:7.0,7.0;"/><polygon fill="#E7E7E7" points="644.282,867.211,652.1761,873.1002,649.1585,868.3155,653.9433,865.2978,644.282,867.211" style="stroke:#E7E7E7;stroke-width:1.0;"/><text fill="#FFFFFF" font-family="sans-serif" font-size="13" lengthAdjust="spacing" textLength="42" x="692" y="873.5669">Derive</text></g><!--reverse link cr2 to phone--><g id="link_cr2_phone"><path codeLine="91" d="M970.652,910.825 C1008.67,908.953 1054.24,905.796 1095,900.5 C1119.74,897.286 1147.02,892.027 1169.41,887.25 " fill="none" id="cr2-backto-phone" style="stroke:#E7E7E7;stroke-width:1.0;stroke-dasharray:7.0,7.0;"/><polygon fill="#E7E7E7" points="965.578,911.07,974.7596,914.6334,970.5722,910.83,974.3756,906.6426,965.578,911.07" style="stroke:#E7E7E7;stroke-width:1.0;"/><text fill="#FFFFFF" font-family="sans-serif" font-size="13" lengthAdjust="spacing" textLength="55" x="1039" y="896.5669">Provides</text></g><!--reverse link tea to tr1--><g id="link_tea_tr1"><path codeLine="101" d="M649.304,649.5 C716.653,649.5 788.404,649.5 834.914,649.5 " fill="none" id="tea-backto-tr1" style="stroke:#E7E7E7;stroke-width:1.0;stroke-dasharray:7.0,7.0;"/><polygon fill="#E7E7E7" points="644.05,649.5,653.05,653.5,649.05,649.5,653.05,645.5,644.05,649.5" style="stroke:#E7E7E7;stroke-width:1.0;"/><text fill="#FFFFFF" font-family="sans-serif" font-size="13" lengthAdjust="spacing" textLength="42" x="692" y="645.5669">Derive</text></g><!--reverse link tr1 to drinker--><g id="link_tr1_drinker"><path codeLine="102" d="M943.262,659.515 C997.46,669.249 1080.17,684.104 1140.29,694.903 " fill="none" id="tr1-backto-drinker" style="stroke:#E7E7E7;stroke-width:1.0;stroke-dasharray:7.0,7.0;"/><polygon fill="#E7E7E7" points="938.108,658.589,946.2587,664.1176,943.0292,659.4732,947.6735,656.2437,938.108,658.589" style="stroke:#E7E7E7;stroke-width:1.0;"/><text fill="#FFFFFF" font-family="sans-serif" font-size="13" lengthAdjust="spacing" textLength="55" x="1039" y="672.5669">Provides</text></g><!--reverse link tea to secr1--><g id="link_tea_secr1"><path codeLine="104" d="M587.389,707.3 C613.04,723.018 639.121,741.341 661,761.5 C677.87,777.044 671.226,791.872 691,803.5 C720.879,821.07 757.826,828.132 791.464,830.27 " fill="none" id="tea-backto-secr1" style="stroke:#E7E7E7;stroke-width:1.0;stroke-dasharray:7.0,7.0;"/><polygon fill="#E7E7E7" points="582.942,704.598,588.5571,712.6894,587.2153,707.194,592.7107,705.8521,582.942,704.598" style="stroke:#E7E7E7;stroke-width:1.0;"/><text fill="#FFFFFF" font-family="sans-serif" font-size="13" lengthAdjust="spacing" textLength="42" x="692" y="799.5669">Derive</text></g><!--reverse link tea to lir2--><g id="link_tea_lir2"><path codeLine="105" d="M597.107,591.851 C644.502,565.327 696.409,530.37 735,488.5 C754.937,466.869 742.986,449.013 765,429.5 C785.666,411.182 814.584,400.286 838.91,393.92 " fill="none" id="tea-backto-lir2" style="stroke:#E7E7E7;stroke-width:1.0;stroke-dasharray:7.0,7.0;"/><polygon fill="#E7E7E7" points="592.535,594.392,602.3449,593.5165,596.9054,591.9632,598.4588,586.5238,592.535,594.392" style="stroke:#E7E7E7;stroke-width:1.0;"/><text fill="#FFFFFF" font-family="sans-serif" font-size="13" lengthAdjust="spacing" textLength="42" x="692" y="484.5669">Derive</text></g><!--reverse link food to fr1--><g id="link_food_fr1"><path codeLine="116" d="M666.088,1306.6354 C703.044,1314.5288 740.577,1322.5457 773.905,1329.6641 " fill="none" id="food-backto-fr1" style="stroke:#E7E7E7;stroke-width:1.0;stroke-dasharray:7.0,7.0;"/><polygon fill="#E7E7E7" points="661.115,1305.573,669.0811,1311.3645,666.0047,1306.6173,670.7519,1303.5409,661.115,1305.573" style="stroke:#E7E7E7;stroke-width:1.0;"/><text fill="#FFFFFF" font-family="sans-serif" font-size="13" lengthAdjust="spacing" textLength="42" x="692" y="1307.5669">Derive</text></g><!--reverse link fr1 to fridge--><g id="link_fr1_fridge"><path codeLine="117" d="M1004.36,1353.5 C1058.2,1353.5 1119.47,1353.5 1162.19,1353.5 " fill="none" id="fr1-backto-fridge" style="stroke:#E7E7E7;stroke-width:1.0;stroke-dasharray:7.0,7.0;"/><polygon fill="#E7E7E7" points="999.173,1353.5,1008.173,1357.5,1004.173,1353.5,1008.173,1349.5,999.173,1353.5" style="stroke:#E7E7E7;stroke-width:1.0;"/><text fill="#FFFFFF" font-family="sans-serif" font-size="13" lengthAdjust="spacing" textLength="55" x="1039" y="1349.5669">Provides</text></g><!--reverse link food to fr2--><g id="link_food_fr2"><path codeLine="121" d="M565.092,1207.656 C603.025,1185.431 648.113,1161.179 691,1143.5 C716.677,1132.915 745.096,1123.709 772.098,1116.042 " fill="none" id="food-backto-fr2" style="stroke:#E7E7E7;stroke-width:1.0;stroke-dasharray:7.0,7.0;"/><polygon fill="#E7E7E7" points="560.502,1210.356,570.2877,1209.2423,564.8121,1207.8216,566.2327,1202.3461,560.502,1210.356" style="stroke:#E7E7E7;stroke-width:1.0;"/><text fill="#FFFFFF" font-family="sans-serif" font-size="13" lengthAdjust="spacing" textLength="42" x="692" y="1123.5669">Derive</text></g><!--reverse link fr2 to phone--><g id="link_fr2_phone"><path codeLine="122" d="M1013.33,1070.05 C1042.71,1060.72 1072.08,1046.918 1095,1026.5 C1119.97,1004.257 1105.39,984.583 1125,957.5 C1140.01,936.773 1161.16,917.543 1179.29,903.027 " fill="none" id="fr2-backto-phone" style="stroke:#E7E7E7;stroke-width:1.0;stroke-dasharray:7.0,7.0;"/><polygon fill="#E7E7E7" points="1008.23,1071.625,1018.0086,1072.7993,1013.0086,1070.1536,1015.6543,1065.1536,1008.23,1071.625" style="stroke:#E7E7E7;stroke-width:1.0;"/><text fill="#FFFFFF" font-family="sans-serif" font-size="13" lengthAdjust="spacing" textLength="55" x="1039" y="1022.5669">Provides</text></g><!--reverse link food to fr3--><g id="link_food_fr3"><path codeLine="127" d="M666.486,1265.5 C730.229,1265.5 795.641,1265.5 838.177,1265.5 " fill="none" id="food-backto-fr3" style="stroke:#E7E7E7;stroke-width:1.0;stroke-dasharray:7.0,7.0;"/><polygon fill="#E7E7E7" points="661.115,1265.5,670.115,1269.5,666.115,1265.5,670.115,1261.5,661.115,1265.5" style="stroke:#E7E7E7;stroke-width:1.0;"/><text fill="#FFFFFF" font-family="sans-serif" font-size="13" lengthAdjust="spacing" textLength="42" x="692" y="1261.5669">Derive</text></g><!--reverse link fr3 to foodD--><g id="link_fr3_foodD"><path codeLine="128" d="M939.593,1265.5 C989.298,1265.5 1065.24,1265.5 1124.95,1265.5 " fill="none" id="fr3-backto-foodD" style="stroke:#E7E7E7;stroke-width:1.0;stroke-dasharray:7.0,7.0;"/><polygon fill="#E7E7E7" points="934.566,1265.5,943.566,1269.5,939.566,1265.5,943.566,1261.5,934.566,1265.5" style="stroke:#E7E7E7;stroke-width:1.0;"/><text fill="#FFFFFF" font-family="sans-serif" font-size="13" lengthAdjust="spacing" textLength="55" x="1039" y="1261.5669">Provides</text></g><!--link t6 to light--><g id="link_t6_light"><path codeLine="137" d="M155.532,121.5 C189.952,121.5 234.41,121.5 279.049,121.5 " fill="none" id="t6-to-light" style="stroke:#E7E7E7;stroke-width:1.0;"/><polygon fill="#E7E7E7" points="284.21,121.5,275.21,117.5,279.21,121.5,275.21,125.5,284.21,121.5" style="stroke:#E7E7E7;stroke-width:1.0;"/><text fill="#FFFFFF" font-family="sans-serif" font-size="13" lengthAdjust="spacing" textLength="48" x="205" y="117.5669">Verifies</text></g><!--link t5 to temperature--><g id="link_t5_temperature"><path codeLine="138" d="M164.318,447.5 C216.407,447.5 287.774,447.5 348.609,447.5 " fill="none" id="t5-to-temperature" style="stroke:#E7E7E7;stroke-width:1.0;"/><polygon fill="#E7E7E7" points="353.714,447.5,344.714,443.5,348.714,447.5,344.714,451.5,353.714,447.5" style="stroke:#E7E7E7;stroke-width:1.0;"/><text fill="#FFFFFF" font-family="sans-serif" font-size="13" lengthAdjust="spacing" textLength="48" x="205" y="443.5669">Verifies</text></g><!--link t4 to tea--><g id="link_t4_tea"><path codeLine="139" d="M144.737,649.5 C184.313,649.5 240.729,649.5 295.572,649.5 " fill="none" id="t4-to-tea" style="stroke:#E7E7E7;stroke-width:1.0;"/><polygon fill="#E7E7E7" points="300.874,649.5,291.874,645.5,295.874,649.5,291.874,653.5,300.874,649.5" style="stroke:#E7E7E7;stroke-width:1.0;"/><text fill="#FFFFFF" font-family="sans-serif" font-size="13" lengthAdjust="spacing" textLength="48" x="205" y="645.5669">Verifies</text></g><!--link t3 to coffee--><g id="link_t3_coffee"><path codeLine="140" d="M144.737,825.5 C184.313,825.5 240.729,825.5 295.572,825.5 " fill="none" id="t3-to-coffee" style="stroke:#E7E7E7;stroke-width:1.0;"/><polygon fill="#E7E7E7" points="300.874,825.5,291.874,821.5,295.874,825.5,291.874,829.5,300.874,825.5" style="stroke:#E7E7E7;stroke-width:1.0;"/><text fill="#FFFFFF" font-family="sans-serif" font-size="13" lengthAdjust="spacing" textLength="48" x="205" y="821.5669">Verifies</text></g><!--link t2 to food--><g id="link_t2_food"><path codeLine="141" d="M144.737,1265.5 C180.284,1265.5 229.415,1265.5 278.791,1265.5 " fill="none" id="t2-to-food" style="stroke:#E7E7E7;stroke-width:1.0;"/><polygon fill="#E7E7E7" points="283.879,1265.5,274.879,1261.5,278.879,1265.5,274.879,1269.5,283.879,1265.5" style="stroke:#E7E7E7;stroke-width:1.0;"/><text fill="#FFFFFF" font-family="sans-serif" font-size="13" lengthAdjust="spacing" textLength="48" x="205" y="1261.5669">Verifies</text></g><!--link t1 to security--><g id="link_t1_security"><path codeLine="142" d="M174.423,1001.5 C212.273,1001.5 258.54,1001.5 303.189,1001.5 " fill="none" id="t1-to-security" style="stroke:#E7E7E7;stroke-width:1.0;"/><polygon fill="#E7E7E7" points="308.343,1001.5,299.343,997.5,303.343,1001.5,299.343,1005.5,308.343,1001.5" style="stroke:#E7E7E7;stroke-width:1.0;"/><text fill="#FFFFFF" font-family="sans-serif" font-size="13" lengthAdjust="spacing" textLength="48" x="205" y="997.5669">Verifies</text></g><!--SRC=[bLTHRziu37xtho3ol0wei-vXs0qOMXmEk1KhaDmztOjgqxLMsyf9IdF1OVzz92N7Sg5uMO4M4lM9_4H-fjGE6m_UWDLFhOTQMwoyDaDHcCTlD8JLHul_Ve9_1lZ220UL6RmrtGgKWuvD_nT0Fok2xMbtZuDVYKNNy1jqrpBUud-UPgjjYs6J0zUQVLU3tzi1pC013YqEu4oFPa0WDsWTM6DwUCJ6M8J1NCbUyBh7LV4zm_7FmHn0DoSlsi7EecDEWQ-zdZOzTgPwbcttXiyCX7F62h8NowOeGiIFRz_APlW0TsZr2nOoOtD4qig3DI-wHdUEbz2EDCeSZLiU2QBYqQlWvInuAMR1BOU-3VMAQH_ZhtFnfSBW3jfNhG2_R6JyYiXwHcGjveXSfdAlzE3f5ppsL1OgVSW7Jz4gdiEYclnSJNyvj5GqF_T0WTHGWpiwia8VOphGVa4pYOEHKbugsoHIefVjHiP5aJBXn8YZAM5XoWjnnsN5oz7BIkZphQohAhVu1oglXwUO6W6smPJdNSvv1ycfAgKysQEdvVDiq6VFafNZGykViDhj1BRZMPxdUiupA5BmFsDJxQtsnrbFSz6uA4Gt5-ATTkgn8wwTihsep-oebpMM_49j33MoiRzHDo8s0sbMMMQyeCa9IYbHt6L6WYJDOkGfXnNRb8KmlJ0BN-TKJp7o-jfxqnENQiBo84EddDC98c7iCfijtmSXZwPfGYwdSsTrybdGYQXbUuRIUaufw2J4MkJqO76dI6-ziGDBl29c6CGRXijTgvgBvLuzuxZlbIGElBJVvJKniaYZvtlKfbUMYcdry4pzxnbZdNYELAeOM-wFL3MZPYBmWXijyfrkDbRDt7-P-YylrUHuLdn1oRX75Nk5-gKRGdBDcsQ9fXJsIBsF_d8magJoSFDmpo-7LXuDghEewkFfyR1Oa1Cv_YmvcFIbMTTVoEouuTKdF9hd5__2dOg3sJ-rvAOZ0DRG65CBBHui9wsP9-tqZQkkEr9sQc8iJYI9seFTqtLgzluD4w078n8rS3kijEg0Gw0ZCLDBwITjB_IvGqlfbm2KUIQdkUQ1-vB06wlh9umu7XQ5UE6qDMakcvZ-WBf4roT6wRSP7v4DQpm9LAQ1BbRurrDQezDiQ_kTmzJOaNFBrrI_KyFnLDMx6OzroYFqDW7bUMofHb0fXzcRa3JjmcdzzRazmct2bUTmjw4TJCZrEUIMD3_1tfs7JK-02Nvp3Xx_Rs5a0dzFNzvxkBhw1E5b_07-fjmrcjyqDy6UF3NIrNVZgagjws0DlIzTACC2bo8rNmVpU4TDIpy0]--></g></svg>