<?xml version="1.0" encoding="us-ascii" standalone="no"?><svg xmlns="http://www.w3.org/2000/svg" xmlns:xlink="http://www.w3.org/1999/xlink" contentStyleType="text/css" height="1300px" preserveAspectRatio="none" style="width:1038px;height:1300px;background:#1B1B1B;" version="1.1" viewBox="0 0 1038 1300" width="1038px" zoomAndPan="magnify"><defs/><g><rect fill="#1B1B1B" height="1300" style="stroke:none;stroke-width:1.0;" width="1038" x="0" y="0"/><g id="elem_light"><rect fill="#313139" height="109.7813" style="stroke:#E7E7E7;stroke-width:0.5;" width="376" x="7.5" y="66.5"/><text fill="#FFFFFF" font-family="sans-serif" font-size="14" lengthAdjust="spacing" textLength="46" x="170.5" y="81.4951">&lt;req&gt;</text><text fill="#FFFFFF" font-family="sans-serif" font-size="14" lengthAdjust="spacing" textLength="100" x="147.5" y="97.792">Lights control</text><line style="stroke:#E7E7E7;stroke-width:0.5;" x1="8.5" x2="382.5" y1="103.0938" y2="103.0938"/><text fill="#FFFFFF" font-family="sans-serif" font-size="14" lengthAdjust="spacing" textLength="104" x="13.5" y="120.0889">"requirement"</text><text fill="#FFFFFF" font-family="sans-serif" font-size="14" lengthAdjust="spacing" textLength="45" x="13.5" y="136.3857">id = l1</text><text fill="#FFFFFF" font-family="sans-serif" font-size="14" lengthAdjust="spacing" textLength="236" x="13.5" y="152.6826">Text = "The lights should turn on</text><text fill="#FFFFFF" font-family="sans-serif" font-size="14" lengthAdjust="spacing" textLength="360" x="17.5" y="168.9795">when someone enters room before no-light time"</text></g><g id="elem_lir1"><rect fill="#313139" height="52.5938" style="stroke:#E7E7E7;stroke-width:0.5;" width="217" x="501" y="95"/><text fill="#FFFFFF" font-family="sans-serif" font-size="14" lengthAdjust="spacing" textLength="46" x="584.5" y="109.9951">&lt;req&gt;</text><text fill="#FFFFFF" font-family="sans-serif" font-size="14" lengthAdjust="spacing" textLength="199" x="512" y="126.292">Know if someone is present</text><line style="stroke:#E7E7E7;stroke-width:0.5;" x1="502" x2="717" y1="131.5938" y2="131.5938"/></g><g id="elem_motionS"><rect fill="#313139" height="52.5938" style="stroke:#E7E7E7;stroke-width:0.5;" width="119" x="880.5" y="95"/><text fill="#FFFFFF" font-family="sans-serif" font-size="14" lengthAdjust="spacing" textLength="62" x="907" y="109.9951">&lt;block&gt;</text><text fill="#FFFFFF" font-family="sans-serif" font-size="14" lengthAdjust="spacing" textLength="101" x="891.5" y="126.292">Motion sensor</text><line style="stroke:#E7E7E7;stroke-width:0.5;" x1="881.5" x2="998.5" y1="131.5938" y2="131.5938"/></g><g id="elem_lir2"><rect fill="#313139" height="52.5938" style="stroke:#E7E7E7;stroke-width:0.5;" width="95" x="562" y="183"/><text fill="#FFFFFF" font-family="sans-serif" font-size="14" lengthAdjust="spacing" textLength="46" x="584.5" y="197.9951">&lt;req&gt;</text><text fill="#FFFFFF" font-family="sans-serif" font-size="14" lengthAdjust="spacing" textLength="77" x="573" y="214.292">Know time</text><line style="stroke:#E7E7E7;stroke-width:0.5;" x1="563" x2="656" y1="219.5938" y2="219.5938"/></g><g id="elem_clock"><rect fill="#313139" height="52.5938" style="stroke:#E7E7E7;stroke-width:0.5;" width="80" x="900" y="183"/><text fill="#FFFFFF" font-family="sans-serif" font-size="14" lengthAdjust="spacing" textLength="62" x="907" y="197.9951">&lt;block&gt;</text><text fill="#FFFFFF" font-family="sans-serif" font-size="14" lengthAdjust="spacing" textLength="40" x="922" y="214.292">Clock</text><line style="stroke:#E7E7E7;stroke-width:0.5;" x1="901" x2="979" y1="219.5938" y2="219.5938"/></g><g id="elem_lir3"><rect fill="#313139" height="52.5938" style="stroke:#E7E7E7;stroke-width:0.5;" width="116" x="551.5" y="7"/><text fill="#FFFFFF" font-family="sans-serif" font-size="14" lengthAdjust="spacing" textLength="46" x="584.5" y="21.9951">&lt;req&gt;</text><text fill="#FFFFFF" font-family="sans-serif" font-size="14" lengthAdjust="spacing" textLength="98" x="562.5" y="38.292">Control lights</text><line style="stroke:#E7E7E7;stroke-width:0.5;" x1="552.5" x2="666.5" y1="43.5938" y2="43.5938"/></g><g id="elem_LSwitch"><rect fill="#313139" height="52.5938" style="stroke:#E7E7E7;stroke-width:0.5;" width="105" x="887.5" y="7"/><text fill="#FFFFFF" font-family="sans-serif" font-size="14" lengthAdjust="spacing" textLength="62" x="907" y="21.9951">&lt;block&gt;</text><text fill="#FFFFFF" font-family="sans-serif" font-size="14" lengthAdjust="spacing" textLength="87" x="898.5" y="38.292">Light switch</text><line style="stroke:#E7E7E7;stroke-width:0.5;" x1="888.5" x2="991.5" y1="43.5938" y2="43.5938"/></g><g id="elem_temperature"><rect fill="#313139" height="109.7813" style="stroke:#E7E7E7;stroke-width:0.5;" width="237" x="77" y="513.5"/><text fill="#FFFFFF" font-family="sans-serif" font-size="14" lengthAdjust="spacing" textLength="46" x="170.5" y="528.4951">&lt;req&gt;</text><text fill="#FFFFFF" font-family="sans-serif" font-size="14" lengthAdjust="spacing" textLength="150" x="122.5" y="544.792">Maintain tempreture</text><line style="stroke:#E7E7E7;stroke-width:0.5;" x1="78" x2="313" y1="550.0938" y2="550.0938"/><text fill="#FFFFFF" font-family="sans-serif" font-size="14" lengthAdjust="spacing" textLength="104" x="83" y="567.0889">"requirement"</text><text fill="#FFFFFF" font-family="sans-serif" font-size="14" lengthAdjust="spacing" textLength="48" x="83" y="583.3857">id = t1</text><text fill="#FFFFFF" font-family="sans-serif" font-size="14" lengthAdjust="spacing" textLength="221" x="83" y="599.6826">Text = "User sets temperature</text><text fill="#FFFFFF" font-family="sans-serif" font-size="14" lengthAdjust="spacing" textLength="178" x="87" y="615.9795">and system maintains it"</text></g><g id="elem_temr1"><rect fill="#313139" height="52.5938" style="stroke:#E7E7E7;stroke-width:0.5;" width="154" x="532.5" y="538"/><text fill="#FFFFFF" font-family="sans-serif" font-size="14" lengthAdjust="spacing" textLength="46" x="584.5" y="552.9951">&lt;req&gt;</text><text fill="#FFFFFF" font-family="sans-serif" font-size="14" lengthAdjust="spacing" textLength="136" x="543.5" y="569.292">Know temperature</text><line style="stroke:#E7E7E7;stroke-width:0.5;" x1="533.5" x2="685.5" y1="574.5938" y2="574.5938"/></g><g id="elem_TSensor"><rect fill="#313139" height="52.5938" style="stroke:#E7E7E7;stroke-width:0.5;" width="164" x="858" y="554"/><text fill="#FFFFFF" font-family="sans-serif" font-size="14" lengthAdjust="spacing" textLength="62" x="907" y="568.9951">&lt;block&gt;</text><text fill="#FFFFFF" font-family="sans-serif" font-size="14" lengthAdjust="spacing" textLength="146" x="869" y="585.292">Temperature sensor</text><line style="stroke:#E7E7E7;stroke-width:0.5;" x1="859" x2="1021" y1="590.5938" y2="590.5938"/></g><g id="elem_temr2"><rect fill="#313139" height="52.5938" style="stroke:#E7E7E7;stroke-width:0.5;" width="169" x="525" y="450"/><text fill="#FFFFFF" font-family="sans-serif" font-size="14" lengthAdjust="spacing" textLength="46" x="584.5" y="464.9951">&lt;req&gt;</text><text fill="#FFFFFF" font-family="sans-serif" font-size="14" lengthAdjust="spacing" textLength="151" x="536" y="481.292">Control temperature</text><line style="stroke:#E7E7E7;stroke-width:0.5;" x1="526" x2="693" y1="486.5938" y2="486.5938"/></g><g id="elem_ac"><rect fill="#313139" height="52.5938" style="stroke:#E7E7E7;stroke-width:0.5;" width="80" x="900" y="378"/><text fill="#FFFFFF" font-family="sans-serif" font-size="14" lengthAdjust="spacing" textLength="62" x="907" y="392.9951">&lt;block&gt;</text><text fill="#FFFFFF" font-family="sans-serif" font-size="14" lengthAdjust="spacing" textLength="20" x="932" y="409.292">AC</text><line style="stroke:#E7E7E7;stroke-width:0.5;" x1="901" x2="979" y1="414.5938" y2="414.5938"/></g><g id="elem_heating"><rect fill="#313139" height="52.5938" style="stroke:#E7E7E7;stroke-width:0.5;" width="130" x="875" y="466"/><text fill="#FFFFFF" font-family="sans-serif" font-size="14" lengthAdjust="spacing" textLength="62" x="907" y="480.9951">&lt;block&gt;</text><text fill="#FFFFFF" font-family="sans-serif" font-size="14" lengthAdjust="spacing" textLength="112" x="886" y="497.292">Heating system</text><line style="stroke:#E7E7E7;stroke-width:0.5;" x1="876" x2="1004" y1="502.5938" y2="502.5938"/></g><g id="elem_temr3"><rect fill="#313139" height="52.5938" style="stroke:#E7E7E7;stroke-width:0.5;" width="140" x="539.5" y="802"/><text fill="#FFFFFF" font-family="sans-serif" font-size="14" lengthAdjust="spacing" textLength="46" x="584.5" y="816.9951">&lt;req&gt;</text><text fill="#FFFFFF" font-family="sans-serif" font-size="14" lengthAdjust="spacing" textLength="122" x="550.5" y="833.292">Set temperature</text><line style="stroke:#E7E7E7;stroke-width:0.5;" x1="540.5" x2="678.5" y1="838.5938" y2="838.5938"/></g><g id="elem_phone"><rect fill="#313139" height="52.5938" style="stroke:#E7E7E7;stroke-width:0.5;" width="95" x="892.5" y="750"/><text fill="#FFFFFF" font-family="sans-serif" font-size="14" lengthAdjust="spacing" textLength="62" x="907" y="764.9951">&lt;block&gt;</text><text fill="#FFFFFF" font-family="sans-serif" font-size="14" lengthAdjust="spacing" textLength="77" x="903.5" y="781.292">Phone app</text><line style="stroke:#E7E7E7;stroke-width:0.5;" x1="893.5" x2="986.5" y1="786.5938" y2="786.5938"/></g><g id="elem_security"><rect fill="#313139" height="109.7813" style="stroke:#E7E7E7;stroke-width:0.5;" width="328" x="31.5" y="1125.5"/><text fill="#FFFFFF" font-family="sans-serif" font-size="14" lengthAdjust="spacing" textLength="46" x="170.5" y="1140.4951">&lt;req&gt;</text><text fill="#FFFFFF" font-family="sans-serif" font-size="14" lengthAdjust="spacing" textLength="115" x="140" y="1156.792">Security control</text><line style="stroke:#E7E7E7;stroke-width:0.5;" x1="32.5" x2="358.5" y1="1162.0938" y2="1162.0938"/><text fill="#FFFFFF" font-family="sans-serif" font-size="14" lengthAdjust="spacing" textLength="104" x="37.5" y="1179.0889">"requirement"</text><text fill="#FFFFFF" font-family="sans-serif" font-size="14" lengthAdjust="spacing" textLength="48" x="37.5" y="1195.3857">id = s1</text><text fill="#FFFFFF" font-family="sans-serif" font-size="14" lengthAdjust="spacing" textLength="312" x="37.5" y="1211.6826">Text = "Disable alarm and open front doors</text><text fill="#FFFFFF" font-family="sans-serif" font-size="14" lengthAdjust="spacing" textLength="161" x="41.5" y="1227.9795">when residents arrive"</text></g><g id="elem_secr1"><rect fill="#313139" height="52.5938" style="stroke:#E7E7E7;stroke-width:0.5;" width="190" x="514.5" y="714"/><text fill="#FFFFFF" font-family="sans-serif" font-size="14" lengthAdjust="spacing" textLength="46" x="584.5" y="728.9951">&lt;req&gt;</text><text fill="#FFFFFF" font-family="sans-serif" font-size="14" lengthAdjust="spacing" textLength="172" x="525.5" y="745.292">Know residents location</text><line style="stroke:#E7E7E7;stroke-width:0.5;" x1="515.5" x2="703.5" y1="750.5938" y2="750.5938"/></g><g id="elem_secr2"><rect fill="#313139" height="52.5938" style="stroke:#E7E7E7;stroke-width:0.5;" width="135" x="542" y="1154"/><text fill="#FFFFFF" font-family="sans-serif" font-size="14" lengthAdjust="spacing" textLength="46" x="584.5" y="1168.9951">&lt;req&gt;</text><text fill="#FFFFFF" font-family="sans-serif" font-size="14" lengthAdjust="spacing" textLength="117" x="553" y="1185.292">Open front door</text><line style="stroke:#E7E7E7;stroke-width:0.5;" x1="543" x2="676" y1="1190.5938" y2="1190.5938"/></g><g id="elem_door"><rect fill="#313139" height="52.5938" style="stroke:#E7E7E7;stroke-width:0.5;" width="130" x="875" y="1154"/><text fill="#FFFFFF" font-family="sans-serif" font-size="14" lengthAdjust="spacing" textLength="62" x="907" y="1168.9951">&lt;block&gt;</text><text fill="#FFFFFF" font-family="sans-serif" font-size="14" lengthAdjust="spacing" textLength="112" x="886" y="1185.292">Automatic door</text><line style="stroke:#E7E7E7;stroke-width:0.5;" x1="876" x2="1004" y1="1190.5938" y2="1190.5938"/></g><g id="elem_secr3"><rect fill="#313139" height="52.5938" style="stroke:#E7E7E7;stroke-width:0.5;" width="171" x="524" y="1242"/><text fill="#FFFFFF" font-family="sans-serif" font-size="14" lengthAdjust="spacing" textLength="46" x="584.5" y="1256.9951">&lt;req&gt;</text><text fill="#FFFFFF" font-family="sans-serif" font-size="14" lengthAdjust="spacing" textLength="153" x="535" y="1273.292">Turn alarm off and on</text><line style="stroke:#E7E7E7;stroke-width:0.5;" x1="525" x2="694" y1="1278.5938" y2="1278.5938"/></g><g id="elem_alarm"><rect fill="#313139" height="52.5938" style="stroke:#E7E7E7;stroke-width:0.5;" width="116" x="882" y="1242"/><text fill="#FFFFFF" font-family="sans-serif" font-size="14" lengthAdjust="spacing" textLength="62" x="907" y="1256.9951">&lt;block&gt;</text><text fill="#FFFFFF" font-family="sans-serif" font-size="14" lengthAdjust="spacing" textLength="98" x="893" y="1273.292">Alarm system</text><line style="stroke:#E7E7E7;stroke-width:0.5;" x1="883" x2="997" y1="1278.5938" y2="1278.5938"/></g><g id="elem_coffee"><rect fill="#313139" height="93.4844" style="stroke:#E7E7E7;stroke-width:0.5;" width="343" x="24" y="385"/><text fill="#FFFFFF" font-family="sans-serif" font-size="14" lengthAdjust="spacing" textLength="46" x="170.5" y="399.9951">&lt;req&gt;</text><text fill="#FFFFFF" font-family="sans-serif" font-size="14" lengthAdjust="spacing" textLength="172" x="111.5" y="416.292">Prepare morning coffee</text><line style="stroke:#E7E7E7;stroke-width:0.5;" x1="25" x2="366" y1="421.5938" y2="421.5938"/><text fill="#FFFFFF" font-family="sans-serif" font-size="14" lengthAdjust="spacing" textLength="104" x="30" y="438.5889">"requirement"</text><text fill="#FFFFFF" font-family="sans-serif" font-size="14" lengthAdjust="spacing" textLength="49" x="30" y="454.8857">id = c1</text><text fill="#FFFFFF" font-family="sans-serif" font-size="14" lengthAdjust="spacing" textLength="331" x="30" y="471.1826">Text = "Make coffee when residents wake up"</text></g><g id="elem_cr1"><rect fill="#313139" height="52.5938" style="stroke:#E7E7E7;stroke-width:0.5;" width="126" x="546.5" y="360"/><text fill="#FFFFFF" font-family="sans-serif" font-size="14" lengthAdjust="spacing" textLength="46" x="584.5" y="374.9951">&lt;req&gt;</text><text fill="#FFFFFF" font-family="sans-serif" font-size="14" lengthAdjust="spacing" textLength="108" x="557.5" y="391.292">Prepare coffee</text><line style="stroke:#E7E7E7;stroke-width:0.5;" x1="547.5" x2="671.5" y1="396.5938" y2="396.5938"/></g><g id="elem_drinker"><rect fill="#313139" height="52.5938" style="stroke:#E7E7E7;stroke-width:0.5;" width="153" x="863.5" y="284"/><text fill="#FFFFFF" font-family="sans-serif" font-size="14" lengthAdjust="spacing" textLength="62" x="907" y="298.9951">&lt;block&gt;</text><text fill="#FFFFFF" font-family="sans-serif" font-size="14" lengthAdjust="spacing" textLength="135" x="874.5" y="315.292">Smart drink maker</text><line style="stroke:#E7E7E7;stroke-width:0.5;" x1="864.5" x2="1015.5" y1="320.5938" y2="320.5938"/></g><g id="elem_cr2"><rect fill="#313139" height="52.5938" style="stroke:#E7E7E7;stroke-width:0.5;" width="158" x="530.5" y="626"/><text fill="#FFFFFF" font-family="sans-serif" font-size="14" lengthAdjust="spacing" textLength="46" x="584.5" y="640.9951">&lt;req&gt;</text><text fill="#FFFFFF" font-family="sans-serif" font-size="14" lengthAdjust="spacing" textLength="140" x="541.5" y="657.292">Know wake up time</text><line style="stroke:#E7E7E7;stroke-width:0.5;" x1="531.5" x2="687.5" y1="662.5938" y2="662.5938"/></g><g id="elem_tea"><rect fill="#313139" height="109.7813" style="stroke:#E7E7E7;stroke-width:0.5;" width="343" x="24" y="239.5"/><text fill="#FFFFFF" font-family="sans-serif" font-size="14" lengthAdjust="spacing" textLength="46" x="170.5" y="254.4951">&lt;req&gt;</text><text fill="#FFFFFF" font-family="sans-serif" font-size="14" lengthAdjust="spacing" textLength="146" x="124.5" y="270.792">Prepare evening tea</text><line style="stroke:#E7E7E7;stroke-width:0.5;" x1="25" x2="366" y1="276.0938" y2="276.0938"/><text fill="#FFFFFF" font-family="sans-serif" font-size="14" lengthAdjust="spacing" textLength="104" x="30" y="293.0889">"requirement"</text><text fill="#FFFFFF" font-family="sans-serif" font-size="14" lengthAdjust="spacing" textLength="48" x="30" y="309.3857">id = t1</text><text fill="#FFFFFF" font-family="sans-serif" font-size="14" lengthAdjust="spacing" textLength="327" x="30" y="325.6826">Text = "Make tea when resident comes home</text><text fill="#FFFFFF" font-family="sans-serif" font-size="14" lengthAdjust="spacing" textLength="243" x="34" y="341.9795">or at 5PM if he is already present"</text></g><g id="elem_tr1"><rect fill="#313139" height="52.5938" style="stroke:#E7E7E7;stroke-width:0.5;" width="103" x="558" y="271"/><text fill="#FFFFFF" font-family="sans-serif" font-size="14" lengthAdjust="spacing" textLength="46" x="584.5" y="285.9951">&lt;req&gt;</text><text fill="#FFFFFF" font-family="sans-serif" font-size="14" lengthAdjust="spacing" textLength="85" x="569" y="302.292">Prepare tea</text><line style="stroke:#E7E7E7;stroke-width:0.5;" x1="559" x2="660" y1="307.5938" y2="307.5938"/></g><g id="elem_food"><rect fill="#313139" height="109.7813" style="stroke:#E7E7E7;stroke-width:0.5;" width="377" x="7" y="949.5"/><text fill="#FFFFFF" font-family="sans-serif" font-size="14" lengthAdjust="spacing" textLength="46" x="170.5" y="964.4951">&lt;req&gt;</text><text fill="#FFFFFF" font-family="sans-serif" font-size="14" lengthAdjust="spacing" textLength="221" x="87" y="980.792">Maintain enough selected food</text><line style="stroke:#E7E7E7;stroke-width:0.5;" x1="8" x2="383" y1="986.0938" y2="986.0938"/><text fill="#FFFFFF" font-family="sans-serif" font-size="14" lengthAdjust="spacing" textLength="104" x="13" y="1003.0889">"requirement"</text><text fill="#FFFFFF" font-family="sans-serif" font-size="14" lengthAdjust="spacing" textLength="47" x="13" y="1019.3857">id = f1</text><text fill="#FFFFFF" font-family="sans-serif" font-size="14" lengthAdjust="spacing" textLength="361" x="13" y="1035.6826">Text = "Automatically order food when it runs out,</text><text fill="#FFFFFF" font-family="sans-serif" font-size="14" lengthAdjust="spacing" textLength="290" x="17" y="1051.9795">receive special requests from residents"</text></g><g id="elem_fr1"><rect fill="#313139" height="52.5938" style="stroke:#E7E7E7;stroke-width:0.5;" width="225" x="497" y="978"/><text fill="#FFFFFF" font-family="sans-serif" font-size="14" lengthAdjust="spacing" textLength="46" x="584.5" y="992.9951">&lt;req&gt;</text><text fill="#FFFFFF" font-family="sans-serif" font-size="14" lengthAdjust="spacing" textLength="207" x="508" y="1009.292">Know what food is remeining</text><line style="stroke:#E7E7E7;stroke-width:0.5;" x1="498" x2="721" y1="1014.5938" y2="1014.5938"/></g><g id="elem_fridge"><rect fill="#313139" height="52.5938" style="stroke:#E7E7E7;stroke-width:0.5;" width="109" x="885.5" y="978"/><text fill="#FFFFFF" font-family="sans-serif" font-size="14" lengthAdjust="spacing" textLength="62" x="907" y="992.9951">&lt;block&gt;</text><text fill="#FFFFFF" font-family="sans-serif" font-size="14" lengthAdjust="spacing" textLength="91" x="896.5" y="1009.292">Smart fridge</text><line style="stroke:#E7E7E7;stroke-width:0.5;" x1="886.5" x2="993.5" y1="1014.5938" y2="1014.5938"/></g><g id="elem_fr2"><rect fill="#313139" height="52.5938" style="stroke:#E7E7E7;stroke-width:0.5;" width="243" x="488" y="890"/><text fill="#FFFFFF" font-family="sans-serif" font-size="14" lengthAdjust="spacing" textLength="46" x="584.5" y="904.9951">&lt;req&gt;</text><text fill="#FFFFFF" font-family="sans-serif" font-size="14" lengthAdjust="spacing" textLength="225" x="499" y="921.292">Know what food residents want</text><line style="stroke:#E7E7E7;stroke-width:0.5;" x1="489" x2="730" y1="926.5938" y2="926.5938"/></g><g id="elem_fr3"><rect fill="#313139" height="52.5938" style="stroke:#E7E7E7;stroke-width:0.5;" width="96" x="561.5" y="1066"/><text fill="#FFFFFF" font-family="sans-serif" font-size="14" lengthAdjust="spacing" textLength="46" x="584.5" y="1080.9951">&lt;req&gt;</text><text fill="#FFFFFF" font-family="sans-serif" font-size="14" lengthAdjust="spacing" textLength="78" x="572.5" y="1097.292">Order food</text><line style="stroke:#E7E7E7;stroke-width:0.5;" x1="562.5" x2="656.5" y1="1102.5938" y2="1102.5938"/></g><g id="elem_foodD"><rect fill="#313139" height="52.5938" style="stroke:#E7E7E7;stroke-width:0.5;" width="184" x="848" y="1066"/><text fill="#FFFFFF" font-family="sans-serif" font-size="14" lengthAdjust="spacing" textLength="62" x="907" y="1080.9951">&lt;block&gt;</text><text fill="#FFFFFF" font-family="sans-serif" font-size="14" lengthAdjust="spacing" textLength="166" x="859" y="1097.292">Food delivery company</text><line style="stroke:#E7E7E7;stroke-width:0.5;" x1="849" x2="1031" y1="1102.5938" y2="1102.5938"/></g><!--reverse link light to lir1--><g id="link_light_lir1"><path codeLine="12" d="M388.701,121.5 C427.251,121.5 466.447,121.5 500.859,121.5 " fill="none" id="light-backto-lir1" style="stroke:#E7E7E7;stroke-width:1.0;stroke-dasharray:7.0,7.0;"/><polygon fill="#E7E7E7" points="383.513,121.5,392.513,125.5,388.513,121.5,392.513,117.5,383.513,121.5" style="stroke:#E7E7E7;stroke-width:1.0;"/><text fill="#FFFFFF" font-family="sans-serif" font-size="13" lengthAdjust="spacing" textLength="42" x="415" y="117.5669">Derive</text></g><!--reverse link lir1 to motionS--><g id="link_lir1_motionS"><path codeLine="13" d="M723.142,121.5 C775.884,121.5 836.528,121.5 880.081,121.5 " fill="none" id="lir1-backto-motionS" style="stroke:#E7E7E7;stroke-width:1.0;stroke-dasharray:7.0,7.0;"/><polygon fill="#E7E7E7" points="718.063,121.5,727.063,125.5,723.063,121.5,727.063,117.5,718.063,121.5" style="stroke:#E7E7E7;stroke-width:1.0;"/><text fill="#FFFFFF" font-family="sans-serif" font-size="13" lengthAdjust="spacing" textLength="55" x="762" y="117.5669">Provides</text></g><!--reverse link light to lir2--><g id="link_light_lir2"><path codeLine="18" d="M388.541,162.52 C452.929,176.27 519.143,190.41 561.868,199.54 " fill="none" id="light-backto-lir2" style="stroke:#E7E7E7;stroke-width:1.0;stroke-dasharray:7.0,7.0;"/><polygon fill="#E7E7E7" points="383.513,161.44,391.4765,167.2351,388.4023,162.4865,393.1509,159.4122,383.513,161.44" style="stroke:#E7E7E7;stroke-width:1.0;"/><text fill="#FFFFFF" font-family="sans-serif" font-size="13" lengthAdjust="spacing" textLength="42" x="415" y="163.5669">Derive</text></g><!--reverse link lir2 to clock--><g id="link_lir2_clock"><path codeLine="19" d="M662.267,209.5 C728.11,209.5 840.362,209.5 899.642,209.5 " fill="none" id="lir2-backto-clock" style="stroke:#E7E7E7;stroke-width:1.0;stroke-dasharray:7.0,7.0;"/><polygon fill="#E7E7E7" points="657.217,209.5,666.217,213.5,662.217,209.5,666.217,205.5,657.217,209.5" style="stroke:#E7E7E7;stroke-width:1.0;"/><text fill="#FFFFFF" font-family="sans-serif" font-size="13" lengthAdjust="spacing" textLength="55" x="762" y="205.5669">Provides</text></g><!--reverse link light to lir3--><g id="link_light_lir3"><path codeLine="24" d="M388.509,80.49 C447.792,67.83 508.627,54.83 551.255,45.73 " fill="none" id="light-backto-lir3" style="stroke:#E7E7E7;stroke-width:1.0;stroke-dasharray:7.0,7.0;"/><polygon fill="#E7E7E7" points="383.513,81.56,393.1509,83.5878,388.4023,80.5135,391.4765,75.7649,383.513,81.56" style="stroke:#E7E7E7;stroke-width:1.0;"/><text fill="#FFFFFF" font-family="sans-serif" font-size="13" lengthAdjust="spacing" textLength="42" x="415" y="62.5669">Derive</text></g><!--reverse link lir3 to LSwitch--><g id="link_lir3_LSwitch"><path codeLine="25" d="M672.881,33.5 C734.995,33.5 829.227,33.5 887.299,33.5 " fill="none" id="lir3-backto-LSwitch" style="stroke:#E7E7E7;stroke-width:1.0;stroke-dasharray:7.0,7.0;"/><polygon fill="#E7E7E7" points="667.72,33.5,676.72,37.5,672.72,33.5,676.72,29.5,667.72,33.5" style="stroke:#E7E7E7;stroke-width:1.0;"/><text fill="#FFFFFF" font-family="sans-serif" font-size="13" lengthAdjust="spacing" textLength="55" x="762" y="29.5669">Provides</text></g><!--reverse link temperature to temr1--><g id="link_temperature_temr1"><path codeLine="36" d="M319.388,567.307 C388.58,566.635 472.803,565.817 532.454,565.238 " fill="none" id="temperature-backto-temr1" style="stroke:#E7E7E7;stroke-width:1.0;stroke-dasharray:7.0,7.0;"/><polygon fill="#E7E7E7" points="314.011,567.359,323.0494,571.2714,319.0108,567.3104,322.9717,563.2717,314.011,567.359" style="stroke:#E7E7E7;stroke-width:1.0;"/><text fill="#FFFFFF" font-family="sans-serif" font-size="13" lengthAdjust="spacing" textLength="42" x="415" y="561.5669">Derive</text></g><!--reverse link temr1 to TSensor--><g id="link_temr1_TSensor"><path codeLine="37" d="M691.85,568.462 C742.427,570.926 807.217,574.081 857.771,576.544 " fill="none" id="temr1-backto-TSensor" style="stroke:#E7E7E7;stroke-width:1.0;stroke-dasharray:7.0,7.0;"/><polygon fill="#E7E7E7" points="686.69,568.211,695.4851,572.6434,691.6841,568.4538,695.8737,564.6528,686.69,568.211" style="stroke:#E7E7E7;stroke-width:1.0;"/><text fill="#FFFFFF" font-family="sans-serif" font-size="13" lengthAdjust="spacing" textLength="55" x="762" y="567.5669">Provides</text></g><!--reverse link temperature to temr2--><g id="link_temperature_temr2"><path codeLine="43" d="M319.168,541.108 C385.515,526.293 465.733,508.38 524.859,495.177 " fill="none" id="temperature-backto-temr2" style="stroke:#E7E7E7;stroke-width:1.0;stroke-dasharray:7.0,7.0;"/><polygon fill="#E7E7E7" points="314.011,542.26,323.6665,544.2019,318.8908,541.1701,321.9226,536.3943,314.011,542.26" style="stroke:#E7E7E7;stroke-width:1.0;"/><text fill="#FFFFFF" font-family="sans-serif" font-size="13" lengthAdjust="spacing" textLength="42" x="415" y="507.5669">Derive</text></g><!--reverse link temr2 to ac--><g id="link_temr2_ac"><path codeLine="44" d="M699.312,457.034 C764.699,442.703 850.463,423.905 899.677,413.119 " fill="none" id="temr2-backto-ac" style="stroke:#E7E7E7;stroke-width:1.0;stroke-dasharray:7.0,7.0;"/><polygon fill="#E7E7E7" points="694.244,458.145,703.8915,460.1264,699.1282,457.075,702.1795,452.3117,694.244,458.145" style="stroke:#E7E7E7;stroke-width:1.0;"/><text fill="#FFFFFF" font-family="sans-serif" font-size="13" lengthAdjust="spacing" textLength="55" x="762" y="427.5669">Provides</text></g><!--reverse link temr2 to heating--><g id="link_temr2_heating"><path codeLine="45" d="M699.558,480.838 C754.949,483.536 824.889,486.942 874.852,489.376 " fill="none" id="temr2-backto-heating" style="stroke:#E7E7E7;stroke-width:1.0;stroke-dasharray:7.0,7.0;"/><polygon fill="#E7E7E7" points="694.244,480.579,703.0378,485.0139,699.238,480.8233,703.4287,477.0235,694.244,480.579" style="stroke:#E7E7E7;stroke-width:1.0;"/><text fill="#FFFFFF" font-family="sans-serif" font-size="13" lengthAdjust="spacing" textLength="55" x="762" y="479.5669">Provides</text></g><!--reverse link temperature to temr3--><g id="link_temperature_temr3"><path codeLine="50" d="M263.48,626.913 C320.259,674.201 405.407,740.03 488,784.5 C504.08,793.158 522.222,800.783 539.455,807.15 " fill="none" id="temperature-backto-temr3" style="stroke:#E7E7E7;stroke-width:1.0;stroke-dasharray:7.0,7.0;"/><polygon fill="#E7E7E7" points="259.442,623.541,263.7878,632.3792,263.2804,626.7452,268.9145,626.2377,259.442,623.541" style="stroke:#E7E7E7;stroke-width:1.0;"/><text fill="#FFFFFF" font-family="sans-serif" font-size="13" lengthAdjust="spacing" textLength="42" x="415" y="739.5669">Derive</text></g><!--reverse link temr3 to phone--><g id="link_temr3_phone"><path codeLine="51" d="M685.064,816.697 C748.633,806.634 838.053,792.479 892.067,783.929 " fill="none" id="temr3-backto-phone" style="stroke:#E7E7E7;stroke-width:1.0;stroke-dasharray:7.0,7.0;"/><polygon fill="#E7E7E7" points="679.765,817.536,689.2795,820.0803,684.7036,816.7546,688.0293,812.1786,679.765,817.536" style="stroke:#E7E7E7;stroke-width:1.0;"/><text fill="#FFFFFF" font-family="sans-serif" font-size="13" lengthAdjust="spacing" textLength="55" x="762" y="791.5669">Provides</text></g><!--reverse link security to secr1--><g id="link_security_secr1"><path codeLine="61" d="M336.147,1122.547 C354.39,1109.982 371.166,1095.064 384,1077.5 C424.883,1021.55 390.895,989.83 414,924.5 C437.466,858.148 434.964,830.766 488,784.5 C495.888,777.619 504.941,771.781 514.466,766.836 " fill="none" id="security-backto-secr1" style="stroke:#E7E7E7;stroke-width:1.0;stroke-dasharray:7.0,7.0;"/><polygon fill="#E7E7E7" points="331.984,1125.357,341.6816,1123.6375,336.1284,1122.5598,337.2061,1117.0066,331.984,1125.357" style="stroke:#E7E7E7;stroke-width:1.0;"/><text fill="#FFFFFF" font-family="sans-serif" font-size="13" lengthAdjust="spacing" textLength="42" x="415" y="813.5669">Derive</text></g><!--reverse link secr1 to phone--><g id="link_secr1_phone"><path codeLine="62" d="M709.709,751.372 C770.281,758.01 844.928,766.191 892.256,771.377 " fill="none" id="secr1-backto-phone" style="stroke:#E7E7E7;stroke-width:1.0;stroke-dasharray:7.0,7.0;"/><polygon fill="#E7E7E7" points="704.635,750.816,713.1448,755.7741,709.6051,751.3616,714.0177,747.8219,704.635,750.816" style="stroke:#E7E7E7;stroke-width:1.0;"/><text fill="#FFFFFF" font-family="sans-serif" font-size="13" lengthAdjust="spacing" textLength="55" x="762" y="752.5669">Provides</text></g><!--reverse link security to secr2--><g id="link_security_secr2"><path codeLine="67" d="M364.86,1180.5 C427.022,1180.5 493.918,1180.5 541.857,1180.5 " fill="none" id="security-backto-secr2" style="stroke:#E7E7E7;stroke-width:1.0;stroke-dasharray:7.0,7.0;"/><polygon fill="#E7E7E7" points="359.629,1180.5,368.629,1184.5,364.629,1180.5,368.629,1176.5,359.629,1180.5" style="stroke:#E7E7E7;stroke-width:1.0;"/><text fill="#FFFFFF" font-family="sans-serif" font-size="13" lengthAdjust="spacing" textLength="42" x="415" y="1176.5669">Derive</text></g><!--reverse link secr2 to door--><g id="link_secr2_door"><path codeLine="68" d="M682.506,1180.5 C739.886,1180.5 819.491,1180.5 874.736,1180.5 " fill="none" id="secr2-backto-door" style="stroke:#E7E7E7;stroke-width:1.0;stroke-dasharray:7.0,7.0;"/><polygon fill="#E7E7E7" points="677.373,1180.5,686.373,1184.5,682.373,1180.5,686.373,1176.5,677.373,1180.5" style="stroke:#E7E7E7;stroke-width:1.0;"/><text fill="#FFFFFF" font-family="sans-serif" font-size="13" lengthAdjust="spacing" textLength="55" x="762" y="1176.5669">Provides</text></g><!--reverse link security to secr3--><g id="link_security_secr3"><path codeLine="73" d="M364.579,1216.4005 C419.37,1228.1033 477.868,1240.598 523.838,1250.417 " fill="none" id="security-backto-secr3" style="stroke:#E7E7E7;stroke-width:1.0;stroke-dasharray:7.0,7.0;"/><polygon fill="#E7E7E7" points="359.629,1215.3431,367.5951,1221.1346,364.5187,1216.3874,369.2659,1213.311,359.629,1215.3431" style="stroke:#E7E7E7;stroke-width:1.0;"/><text fill="#FFFFFF" font-family="sans-serif" font-size="13" lengthAdjust="spacing" textLength="42" x="415" y="1222.5669">Derive</text></g><!--reverse link secr3 to alarm--><g id="link_secr3_alarm"><path codeLine="74" d="M700.288,1268.5 C758.102,1268.5 831.529,1268.5 881.58,1268.5 " fill="none" id="secr3-backto-alarm" style="stroke:#E7E7E7;stroke-width:1.0;stroke-dasharray:7.0,7.0;"/><polygon fill="#E7E7E7" points="695.097,1268.5,704.097,1272.5,700.097,1268.5,704.097,1264.5,695.097,1268.5" style="stroke:#E7E7E7;stroke-width:1.0;"/><text fill="#FFFFFF" font-family="sans-serif" font-size="13" lengthAdjust="spacing" textLength="55" x="762" y="1264.5669">Provides</text></g><!--reverse link coffee to cr1--><g id="link_coffee_cr1"><path codeLine="85" d="M372.012,424.811 C400.807,422.745 430.284,420.04 458,416.5 C487.203,412.77 519.236,406.671 546.214,400.943 " fill="none" id="coffee-backto-cr1" style="stroke:#E7E7E7;stroke-width:1.0;stroke-dasharray:7.0,7.0;"/><polygon fill="#E7E7E7" points="367.022,425.163,376.2809,428.5205,372.0096,424.8115,375.7186,420.5403,367.022,425.163" style="stroke:#E7E7E7;stroke-width:1.0;"/><text fill="#FFFFFF" font-family="sans-serif" font-size="13" lengthAdjust="spacing" textLength="42" x="415" y="412.5669">Derive</text></g><!--reverse link cr1 to drinker--><g id="link_cr1_drinker"><path codeLine="86" d="M677.819,370.925 C731.697,358.461 807.24,340.983 863.23,328.03 " fill="none" id="cr1-backto-drinker" style="stroke:#E7E7E7;stroke-width:1.0;stroke-dasharray:7.0,7.0;"/><polygon fill="#E7E7E7" points="672.675,372.116,682.345,373.9842,677.5463,370.9889,680.5417,366.1902,672.675,372.116" style="stroke:#E7E7E7;stroke-width:1.0;"/><text fill="#FFFFFF" font-family="sans-serif" font-size="13" lengthAdjust="spacing" textLength="55" x="762" y="334.5669">Provides</text></g><!--reverse link coffee to cr2--><g id="link_coffee_cr2"><path codeLine="90" d="M366.53,481.33 C372.759,485.946 378.625,490.99 384,496.5 C414.623,527.891 382.985,559.496 414,590.5 C444.705,621.194 490.56,636.71 530.036,644.545 " fill="none" id="coffee-backto-cr2" style="stroke:#E7E7E7;stroke-width:1.0;stroke-dasharray:7.0,7.0;"/><polygon fill="#E7E7E7" points="362.161,478.202,367.1501,486.6937,366.2264,481.1128,371.8073,480.1891,362.161,478.202" style="stroke:#E7E7E7;stroke-width:1.0;"/><text fill="#FFFFFF" font-family="sans-serif" font-size="13" lengthAdjust="spacing" textLength="42" x="415" y="586.5669">Derive</text></g><!--reverse link cr2 to phone--><g id="link_cr2_phone"><path codeLine="91" d="M688.624,680.806 C702.744,685.985 717.323,691.373 731,696.5 C786.611,717.346 850.314,741.955 892.412,758.32 " fill="none" id="cr2-backto-phone" style="stroke:#E7E7E7;stroke-width:1.0;stroke-dasharray:7.0,7.0;"/><polygon fill="#E7E7E7" points="683.855,679.059,690.9295,685.9112,688.5498,680.7792,693.6818,678.3995,683.855,679.059" style="stroke:#E7E7E7;stroke-width:1.0;"/><text fill="#FFFFFF" font-family="sans-serif" font-size="13" lengthAdjust="spacing" textLength="55" x="762" y="704.5669">Provides</text></g><!--reverse link tea to tr1--><g id="link_tea_tr1"><path codeLine="101" d="M372.364,298.01 C386.451,298.207 400.462,298.376 414,298.5 C433.555,298.68 438.445,298.565 458,298.5 C491.314,298.389 528.776,298.141 557.99,297.919 " fill="none" id="tea-backto-tr1" style="stroke:#E7E7E7;stroke-width:1.0;stroke-dasharray:7.0,7.0;"/><polygon fill="#E7E7E7" points="367.172,297.937,376.1139,302.0652,372.1715,298.0084,376.2282,294.066,367.172,297.937" style="stroke:#E7E7E7;stroke-width:1.0;"/><text fill="#FFFFFF" font-family="sans-serif" font-size="13" lengthAdjust="spacing" textLength="42" x="415" y="294.5669">Derive</text></g><!--reverse link tr1 to drinker--><g id="link_tr1_drinker"><path codeLine="102" d="M666.262,299.707 C720.46,301.852 803.167,305.125 863.294,307.504 " fill="none" id="tr1-backto-drinker" style="stroke:#E7E7E7;stroke-width:1.0;stroke-dasharray:7.0,7.0;"/><polygon fill="#E7E7E7" points="661.108,299.503,669.942,303.8573,666.1041,299.7016,670.2598,295.8636,661.108,299.503" style="stroke:#E7E7E7;stroke-width:1.0;"/><text fill="#FFFFFF" font-family="sans-serif" font-size="13" lengthAdjust="spacing" textLength="55" x="762" y="299.5669">Provides</text></g><!--reverse link tea to secr1--><g id="link_tea_secr1"><path codeLine="104" d="M372.178,331.693 C405.239,346.393 436.222,366.898 458,395.5 C539.445,502.463 405.57,590.294 488,696.5 C495.101,705.649 504.288,712.896 514.423,718.637 " fill="none" id="tea-backto-secr1" style="stroke:#E7E7E7;stroke-width:1.0;stroke-dasharray:7.0,7.0;"/><polygon fill="#E7E7E7" points="367.286,329.566,373.9441,336.8234,371.8712,331.56,377.1345,329.4872,367.286,329.566" style="stroke:#E7E7E7;stroke-width:1.0;"/><text fill="#FFFFFF" font-family="sans-serif" font-size="13" lengthAdjust="spacing" textLength="42" x="415" y="350.5669">Derive</text></g><!--reverse link tea to lir2--><g id="link_tea_lir2"><path codeLine="105" d="M372.04,258.28 C441.465,243.96 515.61,228.66 561.989,219.1 " fill="none" id="tea-backto-lir2" style="stroke:#E7E7E7;stroke-width:1.0;stroke-dasharray:7.0,7.0;"/><polygon fill="#E7E7E7" points="367.05,259.31,376.6728,261.408,371.9468,258.2992,375.0556,253.5732,367.05,259.31" style="stroke:#E7E7E7;stroke-width:1.0;"/><text fill="#FFFFFF" font-family="sans-serif" font-size="13" lengthAdjust="spacing" textLength="42" x="415" y="237.5669">Derive</text></g><!--reverse link food to fr1--><g id="link_food_fr1"><path codeLine="116" d="M389.541,1004.5 C426.35,1004.5 463.714,1004.5 496.905,1004.5 " fill="none" id="food-backto-fr1" style="stroke:#E7E7E7;stroke-width:1.0;stroke-dasharray:7.0,7.0;"/><polygon fill="#E7E7E7" points="384.115,1004.5,393.115,1008.5,389.115,1004.5,393.115,1000.5,384.115,1004.5" style="stroke:#E7E7E7;stroke-width:1.0;"/><text fill="#FFFFFF" font-family="sans-serif" font-size="13" lengthAdjust="spacing" textLength="42" x="415" y="1000.5669">Derive</text></g><!--reverse link fr1 to fridge--><g id="link_fr1_fridge"><path codeLine="117" d="M727.36,1004.5 C781.202,1004.5 842.475,1004.5 885.186,1004.5 " fill="none" id="fr1-backto-fridge" style="stroke:#E7E7E7;stroke-width:1.0;stroke-dasharray:7.0,7.0;"/><polygon fill="#E7E7E7" points="722.173,1004.5,731.173,1008.5,727.173,1004.5,731.173,1000.5,722.173,1004.5" style="stroke:#E7E7E7;stroke-width:1.0;"/><text fill="#FFFFFF" font-family="sans-serif" font-size="13" lengthAdjust="spacing" textLength="55" x="762" y="1000.5669">Provides</text></g><!--reverse link food to fr2--><g id="link_food_fr2"><path codeLine="121" d="M389.077,963.367 C422.739,956.177 456.88,948.885 487.886,942.262 " fill="none" id="food-backto-fr2" style="stroke:#E7E7E7;stroke-width:1.0;stroke-dasharray:7.0,7.0;"/><polygon fill="#E7E7E7" points="384.115,964.427,393.7519,966.4592,389.0047,963.3828,392.0812,958.6356,384.115,964.427" style="stroke:#E7E7E7;stroke-width:1.0;"/><text fill="#FFFFFF" font-family="sans-serif" font-size="13" lengthAdjust="spacing" textLength="42" x="415" y="945.5669">Derive</text></g><!--reverse link fr2 to phone--><g id="link_fr2_phone"><path codeLine="122" d="M691.006,888.148 C704.434,883.12 718.165,877.795 731,872.5 C787.252,849.295 850.562,819.536 892.4,799.347 " fill="none" id="fr2-backto-phone" style="stroke:#E7E7E7;stroke-width:1.0;stroke-dasharray:7.0,7.0;"/><polygon fill="#E7E7E7" points="686.075,889.986,695.9052,890.5922,690.7604,888.2404,693.1122,883.0956,686.075,889.986" style="stroke:#E7E7E7;stroke-width:1.0;"/><text fill="#FFFFFF" font-family="sans-serif" font-size="13" lengthAdjust="spacing" textLength="55" x="762" y="830.5669">Provides</text></g><!--reverse link food to fr3--><g id="link_food_fr3"><path codeLine="127" d="M389.102,1045.638 C452.967,1059.279 518.556,1073.289 561.177,1082.392 " fill="none" id="food-backto-fr3" style="stroke:#E7E7E7;stroke-width:1.0;stroke-dasharray:7.0,7.0;"/><polygon fill="#E7E7E7" points="384.115,1044.573,392.0812,1050.3644,389.0047,1045.6172,393.7519,1042.5408,384.115,1044.573" style="stroke:#E7E7E7;stroke-width:1.0;"/><text fill="#FFFFFF" font-family="sans-serif" font-size="13" lengthAdjust="spacing" textLength="42" x="415" y="1046.5669">Derive</text></g><!--reverse link fr3 to foodD--><g id="link_fr3_foodD"><path codeLine="128" d="M662.593,1092.5 C712.298,1092.5 788.236,1092.5 847.948,1092.5 " fill="none" id="fr3-backto-foodD" style="stroke:#E7E7E7;stroke-width:1.0;stroke-dasharray:7.0,7.0;"/><polygon fill="#E7E7E7" points="657.566,1092.5,666.566,1096.5,662.566,1092.5,666.566,1088.5,657.566,1092.5" style="stroke:#E7E7E7;stroke-width:1.0;"/><text fill="#FFFFFF" font-family="sans-serif" font-size="13" lengthAdjust="spacing" textLength="55" x="762" y="1088.5669">Provides</text></g><!--SRC=[bLPDRzms4BthLmpst0R8BdefqWA1ZI90OyJ0Rc-zqDB8OYoHAabvkoZwtpipf5QYmIXR0skGe_buVFCqL8zjW631wUSkGACTra5RKrNswIijOVV1uL-_mfy6FhE7XzgQu6o_0-MXPzC_5T3VZjmcYXxGX9rOT0E_GFzUrYVyEz1kT-em1ddmdPtw1iBa35Z31SuT6l1sG6iGA0qw3yxQ0PwmjGx1s1yb5e8US5VzMy3ukx5dqEqrY_OmElICAU9rxvUWfzxMBnBsOFdCG7xUEl4Sn7AigbZnmxjt4Wm_mpqw_OgLxDYSFEd9exElka7_BLm2Ey7Obs3SyKeyQbwzARxFYk_5B7xRfUzYlnBjS_r3gRvq6FnPXxeJnyz7MRy1SiY07CISFBUXF2Xj0lqWu41jeTP7FdYBJl4UDjKKSZNzuT5HqqAUWGefqu2_UBB2a6fwq653Cwi4CwIoL4whIYkzd8wohger4YP64Ys4nIq_I16tDQy4hoYXZtVoNDMbXvzG1MsU4pNYs4LJ6VS-nnqbf-ervCMUCcsVvuYXU9QY71yxVeNLE8hRoBiopaEECofI_B-7ffwS3fTiflbat1IYpuLuhxrwwWbhhzmWwhCZpRBMKLvehAL1DiytcaQ4nf1cbMF46vfSN8aInLDc1aZIh6QSSbYnBIp4xOqiVCcXNckKzJK5En2MUl7bHG7EFeSJHSA-ssXEV1z47ctRHYwNSnTryb6yLwAMy0AaGmufwYJMsiJqw71KfBV1EiCIhmaPHl76vVRKgdEnFAWNdEFUIEBCZwQnh8aPnRfwUKOT1-MecKwR5vf_BvZwn7kaLgNQSd-iLJDh9ZdUSACblClDngh9y-_N-VUtQd8-AxwYC1vGfLcX_jSD8LnpK4OqKJWWpJxwpyL8aYh0JuyF_ENGoKU3wXsgvdBzUDXio1KSySS3IiN1b8tz3MhdW3Vly6pER_wDInMDdPuxIjEJ0pRGMji8BbviizRch5rVSjNt5wAd8SIIH5ZK0Tn4zwcTmWyCWBuOaQ217x7MgWSkWPxKJ3DbMCIzCUZE7V4l1OXw1gUvwH4xS_fDYRTEDy-O77bPLPA6UMlNPBQ9_-XrYxAlaDPlP_gCRAaZMQNzkjBD8lzo9JPbBKwttxXCWpqbTtnJ3QCobsjVxpCSXpMEEDx4QONZFm00]--></g></svg>