<?xml version="1.0" encoding="us-ascii" standalone="no"?><svg xmlns="http://www.w3.org/2000/svg" xmlns:xlink="http://www.w3.org/1999/xlink" contentStyleType="text/css" height="452px" preserveAspectRatio="none" style="width:2247px;height:452px;background:#1B1B1B;" version="1.1" viewBox="0 0 2247 452" width="2247px" zoomAndPan="magnify"><defs/><g><rect fill="#1B1B1B" height="452" style="stroke:none;stroke-width:1.0;" width="2247" x="0" y="0"/><!--cluster Notes--><g id="cluster_Notes"><rect fill="#0000FF" height="199" rx="2.5" ry="2.5" style="stroke:#E7E7E7;stroke-width:1.0;" width="317" x="7" y="7"/><rect fill="#0000FF" height="10" style="stroke:#E7E7E7;stroke-width:1.0;" width="15" x="304" y="12"/><rect fill="#0000FF" height="2" style="stroke:#E7E7E7;stroke-width:1.0;" width="4" x="302" y="14"/><rect fill="#0000FF" height="2" style="stroke:#E7E7E7;stroke-width:1.0;" width="4" x="302" y="18"/><text fill="#FFFFFF" font-family="sans-serif" font-size="14" font-weight="bold" lengthAdjust="spacing" textLength="47" x="142" y="32.9951">Notes</text></g><g id="elem_N1"><path d="M23.5,42 L23.5,67.1328 L168.5,67.1328 L168.5,52 L158.5,42 L23.5,42 " fill="#714137" style="stroke:#E7E7E7;stroke-width:0.5;"/><path d="M158.5,42 L158.5,52 L168.5,52 L158.5,42 " fill="#714137" style="stroke:#E7E7E7;stroke-width:1.0;"/><text fill="#FFFFFF" font-family="sans-serif" font-size="13" lengthAdjust="spacing" textLength="124" x="29.5" y="59.0669">PD = provides data</text></g><g id="elem_N2"><path d="M204,42 L204,67.1328 L308,67.1328 L308,52 L298,42 L204,42 " fill="#714137" style="stroke:#E7E7E7;stroke-width:0.5;"/><path d="M298,42 L298,52 L308,52 L298,42 " fill="#714137" style="stroke:#E7E7E7;stroke-width:1.0;"/><text fill="#FFFFFF" font-family="sans-serif" font-size="13" lengthAdjust="spacing" textLength="83" x="210" y="59.0669">D = depends</text></g><g id="elem_N3"><path d="M51,165 L51,190.1328 L141,190.1328 L141,175 L131,165 L51,165 " fill="#714137" style="stroke:#E7E7E7;stroke-width:0.5;"/><path d="M131,165 L131,175 L141,175 L131,165 " fill="#714137" style="stroke:#E7E7E7;stroke-width:1.0;"/><text fill="#FFFFFF" font-family="sans-serif" font-size="13" lengthAdjust="spacing" textLength="69" x="57" y="182.0669">IP = is part</text></g><!--entity sh--><g id="elem_sh"><rect fill="#313139" height="46.2969" rx="2.5" ry="2.5" style="stroke:#E7E7E7;stroke-width:0.5;" width="186" x="1089" y="400.5"/><rect fill="#313139" height="10" style="stroke:#E7E7E7;stroke-width:0.5;" width="15" x="1255" y="405.5"/><rect fill="#313139" height="2" style="stroke:#E7E7E7;stroke-width:0.5;" width="4" x="1253" y="407.5"/><rect fill="#313139" height="2" style="stroke:#E7E7E7;stroke-width:0.5;" width="4" x="1253" y="411.5"/><text fill="#FFFFFF" font-family="sans-serif" font-size="14" lengthAdjust="spacing" textLength="146" x="1104" y="433.4951">Smart house system</text></g><!--entity cu--><g id="elem_cu"><rect fill="#313139" height="46.2969" rx="2.5" ry="2.5" style="stroke:#E7E7E7;stroke-width:0.5;" width="126" x="1137" y="154.5"/><rect fill="#313139" height="10" style="stroke:#E7E7E7;stroke-width:0.5;" width="15" x="1243" y="159.5"/><rect fill="#313139" height="2" style="stroke:#E7E7E7;stroke-width:0.5;" width="4" x="1241" y="161.5"/><rect fill="#313139" height="2" style="stroke:#E7E7E7;stroke-width:0.5;" width="4" x="1241" y="165.5"/><text fill="#FFFFFF" font-family="sans-serif" font-size="14" lengthAdjust="spacing" textLength="86" x="1152" y="187.4951">Control unit</text></g><!--entity rp--><g id="elem_rp"><rect fill="#313139" height="46.2969" rx="2.5" ry="2.5" style="stroke:#E7E7E7;stroke-width:0.5;" width="131" x="1060.5" y="31.5"/><rect fill="#313139" height="10" style="stroke:#E7E7E7;stroke-width:0.5;" width="15" x="1171.5" y="36.5"/><rect fill="#313139" height="2" style="stroke:#E7E7E7;stroke-width:0.5;" width="4" x="1169.5" y="38.5"/><rect fill="#313139" height="2" style="stroke:#E7E7E7;stroke-width:0.5;" width="4" x="1169.5" y="42.5"/><text fill="#FFFFFF" font-family="sans-serif" font-size="14" lengthAdjust="spacing" textLength="91" x="1075.5" y="64.4951">Raspberry Pi</text></g><!--entity wi--><g id="elem_wi"><rect fill="#313139" height="46.2969" rx="2.5" ry="2.5" style="stroke:#E7E7E7;stroke-width:0.5;" width="95" x="1226.5" y="31.5"/><rect fill="#313139" height="10" style="stroke:#E7E7E7;stroke-width:0.5;" width="15" x="1301.5" y="36.5"/><rect fill="#313139" height="2" style="stroke:#E7E7E7;stroke-width:0.5;" width="4" x="1299.5" y="38.5"/><rect fill="#313139" height="2" style="stroke:#E7E7E7;stroke-width:0.5;" width="4" x="1299.5" y="42.5"/><text fill="#FFFFFF" font-family="sans-serif" font-size="14" lengthAdjust="spacing" textLength="55" x="1241.5" y="64.4951">Wireing</text></g><!--entity l--><g id="elem_l"><rect fill="#313139" height="46.2969" rx="2.5" ry="2.5" style="stroke:#E7E7E7;stroke-width:0.5;" width="84" x="594" y="277.5"/><rect fill="#313139" height="10" style="stroke:#E7E7E7;stroke-width:0.5;" width="15" x="658" y="282.5"/><rect fill="#313139" height="2" style="stroke:#E7E7E7;stroke-width:0.5;" width="4" x="656" y="284.5"/><rect fill="#313139" height="2" style="stroke:#E7E7E7;stroke-width:0.5;" width="4" x="656" y="288.5"/><text fill="#FFFFFF" font-family="sans-serif" font-size="14" lengthAdjust="spacing" textLength="44" x="609" y="310.4951">Lights</text></g><!--entity fd--><g id="elem_fd"><rect fill="#313139" height="46.2969" rx="2.5" ry="2.5" style="stroke:#E7E7E7;stroke-width:0.5;" width="116" x="713" y="277.5"/><rect fill="#313139" height="10" style="stroke:#E7E7E7;stroke-width:0.5;" width="15" x="809" y="282.5"/><rect fill="#313139" height="2" style="stroke:#E7E7E7;stroke-width:0.5;" width="4" x="807" y="284.5"/><rect fill="#313139" height="2" style="stroke:#E7E7E7;stroke-width:0.5;" width="4" x="807" y="288.5"/><text fill="#FFFFFF" font-family="sans-serif" font-size="14" lengthAdjust="spacing" textLength="76" x="728" y="310.4951">Front door</text></g><!--entity ls--><g id="elem_ls"><rect fill="#313139" height="46.2969" rx="2.5" ry="2.5" style="stroke:#E7E7E7;stroke-width:0.5;" width="143" x="340.5" y="154.5"/><rect fill="#313139" height="10" style="stroke:#E7E7E7;stroke-width:0.5;" width="15" x="463.5" y="159.5"/><rect fill="#313139" height="2" style="stroke:#E7E7E7;stroke-width:0.5;" width="4" x="461.5" y="161.5"/><rect fill="#313139" height="2" style="stroke:#E7E7E7;stroke-width:0.5;" width="4" x="461.5" y="165.5"/><text fill="#FFFFFF" font-family="sans-serif" font-size="14" lengthAdjust="spacing" textLength="103" x="355.5" y="187.4951">Light switches</text></g><!--entity lc--><g id="elem_lc"><rect fill="#313139" height="46.2969" rx="2.5" ry="2.5" style="stroke:#E7E7E7;stroke-width:0.5;" width="155" x="518.5" y="154.5"/><rect fill="#313139" height="10" style="stroke:#E7E7E7;stroke-width:0.5;" width="15" x="653.5" y="159.5"/><rect fill="#313139" height="2" style="stroke:#E7E7E7;stroke-width:0.5;" width="4" x="651.5" y="161.5"/><rect fill="#313139" height="2" style="stroke:#E7E7E7;stroke-width:0.5;" width="4" x="651.5" y="165.5"/><text fill="#FFFFFF" font-family="sans-serif" font-size="14" lengthAdjust="spacing" textLength="115" x="533.5" y="187.4951">Light connector</text></g><!--entity dm--><g id="elem_dm"><rect fill="#313139" height="46.2969" rx="2.5" ry="2.5" style="stroke:#E7E7E7;stroke-width:0.5;" width="124" x="709" y="154.5"/><rect fill="#313139" height="10" style="stroke:#E7E7E7;stroke-width:0.5;" width="15" x="813" y="159.5"/><rect fill="#313139" height="2" style="stroke:#E7E7E7;stroke-width:0.5;" width="4" x="811" y="161.5"/><rect fill="#313139" height="2" style="stroke:#E7E7E7;stroke-width:0.5;" width="4" x="811" y="165.5"/><text fill="#FFFFFF" font-family="sans-serif" font-size="14" lengthAdjust="spacing" textLength="84" x="724" y="187.4951">Door motor</text></g><!--entity dc--><g id="elem_dc"><rect fill="#313139" height="46.2969" rx="2.5" ry="2.5" style="stroke:#E7E7E7;stroke-width:0.5;" width="153" x="868.5" y="154.5"/><rect fill="#313139" height="10" style="stroke:#E7E7E7;stroke-width:0.5;" width="15" x="1001.5" y="159.5"/><rect fill="#313139" height="2" style="stroke:#E7E7E7;stroke-width:0.5;" width="4" x="999.5" y="161.5"/><rect fill="#313139" height="2" style="stroke:#E7E7E7;stroke-width:0.5;" width="4" x="999.5" y="165.5"/><text fill="#FFFFFF" font-family="sans-serif" font-size="14" lengthAdjust="spacing" textLength="113" x="883.5" y="187.4951">Door connector</text></g><!--entity detec--><g id="elem_detec"><rect fill="#313139" height="46.2969" rx="2.5" ry="2.5" style="stroke:#E7E7E7;stroke-width:0.5;" width="113" x="1666.5" y="277.5"/><rect fill="#313139" height="10" style="stroke:#E7E7E7;stroke-width:0.5;" width="15" x="1759.5" y="282.5"/><rect fill="#313139" height="2" style="stroke:#E7E7E7;stroke-width:0.5;" width="4" x="1757.5" y="284.5"/><rect fill="#313139" height="2" style="stroke:#E7E7E7;stroke-width:0.5;" width="4" x="1757.5" y="288.5"/><text fill="#FFFFFF" font-family="sans-serif" font-size="14" lengthAdjust="spacing" textLength="73" x="1681.5" y="310.4951">Detectors</text></g><!--entity md--><g id="elem_md"><rect fill="#313139" height="46.2969" rx="2.5" ry="2.5" style="stroke:#E7E7E7;stroke-width:0.5;" width="165" x="1830.5" y="154.5"/><rect fill="#313139" height="10" style="stroke:#E7E7E7;stroke-width:0.5;" width="15" x="1975.5" y="159.5"/><rect fill="#313139" height="2" style="stroke:#E7E7E7;stroke-width:0.5;" width="4" x="1973.5" y="161.5"/><rect fill="#313139" height="2" style="stroke:#E7E7E7;stroke-width:0.5;" width="4" x="1973.5" y="165.5"/><text fill="#FFFFFF" font-family="sans-serif" font-size="14" lengthAdjust="spacing" textLength="125" x="1845.5" y="187.4951">Motion detectors</text></g><!--entity td--><g id="elem_td"><rect fill="#313139" height="46.2969" rx="2.5" ry="2.5" style="stroke:#E7E7E7;stroke-width:0.5;" width="210" x="2031" y="154.5"/><rect fill="#313139" height="10" style="stroke:#E7E7E7;stroke-width:0.5;" width="15" x="2221" y="159.5"/><rect fill="#313139" height="2" style="stroke:#E7E7E7;stroke-width:0.5;" width="4" x="2219" y="161.5"/><rect fill="#313139" height="2" style="stroke:#E7E7E7;stroke-width:0.5;" width="4" x="2219" y="165.5"/><text fill="#FFFFFF" font-family="sans-serif" font-size="14" lengthAdjust="spacing" textLength="170" x="2046" y="187.4951">Temperature detectors</text></g><!--entity pa--><g id="elem_pa"><rect fill="#313139" height="46.2969" rx="2.5" ry="2.5" style="stroke:#E7E7E7;stroke-width:0.5;" width="117" x="864.5" y="277.5"/><rect fill="#313139" height="10" style="stroke:#E7E7E7;stroke-width:0.5;" width="15" x="961.5" y="282.5"/><rect fill="#313139" height="2" style="stroke:#E7E7E7;stroke-width:0.5;" width="4" x="959.5" y="284.5"/><rect fill="#313139" height="2" style="stroke:#E7E7E7;stroke-width:0.5;" width="4" x="959.5" y="288.5"/><text fill="#FFFFFF" font-family="sans-serif" font-size="14" lengthAdjust="spacing" textLength="77" x="879.5" y="310.4951">Phone app</text></g><!--entity sa--><g id="elem_sa"><rect fill="#313139" height="46.2969" rx="2.5" ry="2.5" style="stroke:#E7E7E7;stroke-width:0.5;" width="165" x="1466.5" y="277.5"/><rect fill="#313139" height="10" style="stroke:#E7E7E7;stroke-width:0.5;" width="15" x="1611.5" y="282.5"/><rect fill="#313139" height="2" style="stroke:#E7E7E7;stroke-width:0.5;" width="4" x="1609.5" y="284.5"/><rect fill="#313139" height="2" style="stroke:#E7E7E7;stroke-width:0.5;" width="4" x="1609.5" y="288.5"/><text fill="#FFFFFF" font-family="sans-serif" font-size="14" lengthAdjust="spacing" textLength="125" x="1481.5" y="310.4951">Smart appliances</text></g><!--entity sf--><g id="elem_sf"><rect fill="#313139" height="46.2969" rx="2.5" ry="2.5" style="stroke:#E7E7E7;stroke-width:0.5;" width="131" x="1466.5" y="154.5"/><rect fill="#313139" height="10" style="stroke:#E7E7E7;stroke-width:0.5;" width="15" x="1577.5" y="159.5"/><rect fill="#313139" height="2" style="stroke:#E7E7E7;stroke-width:0.5;" width="4" x="1575.5" y="161.5"/><rect fill="#313139" height="2" style="stroke:#E7E7E7;stroke-width:0.5;" width="4" x="1575.5" y="165.5"/><text fill="#FFFFFF" font-family="sans-serif" font-size="14" lengthAdjust="spacing" textLength="91" x="1481.5" y="187.4951">Smart fridge</text></g><!--entity bm--><g id="elem_bm"><rect fill="#313139" height="46.2969" rx="2.5" ry="2.5" style="stroke:#E7E7E7;stroke-width:0.5;" width="163" x="1632.5" y="154.5"/><rect fill="#313139" height="10" style="stroke:#E7E7E7;stroke-width:0.5;" width="15" x="1775.5" y="159.5"/><rect fill="#313139" height="2" style="stroke:#E7E7E7;stroke-width:0.5;" width="4" x="1773.5" y="161.5"/><rect fill="#313139" height="2" style="stroke:#E7E7E7;stroke-width:0.5;" width="4" x="1773.5" y="165.5"/><text fill="#FFFFFF" font-family="sans-serif" font-size="14" lengthAdjust="spacing" textLength="123" x="1647.5" y="187.4951">Brewing machine</text></g><!--entity ss--><g id="elem_ss"><rect fill="#313139" height="46.2969" rx="2.5" ry="2.5" style="stroke:#E7E7E7;stroke-width:0.5;" width="180" x="1017" y="277.5"/><rect fill="#313139" height="10" style="stroke:#E7E7E7;stroke-width:0.5;" width="15" x="1177" y="282.5"/><rect fill="#313139" height="2" style="stroke:#E7E7E7;stroke-width:0.5;" width="4" x="1175" y="284.5"/><rect fill="#313139" height="2" style="stroke:#E7E7E7;stroke-width:0.5;" width="4" x="1175" y="288.5"/><text fill="#FFFFFF" font-family="sans-serif" font-size="14" lengthAdjust="spacing" textLength="140" x="1032" y="310.4951">Security subsystem</text></g><!--entity ac--><g id="elem_ac"><rect fill="#313139" height="46.2969" rx="2.5" ry="2.5" style="stroke:#E7E7E7;stroke-width:0.5;" width="116" x="1232" y="277.5"/><rect fill="#313139" height="10" style="stroke:#E7E7E7;stroke-width:0.5;" width="15" x="1328" y="282.5"/><rect fill="#313139" height="2" style="stroke:#E7E7E7;stroke-width:0.5;" width="4" x="1326" y="284.5"/><rect fill="#313139" height="2" style="stroke:#E7E7E7;stroke-width:0.5;" width="4" x="1326" y="288.5"/><text fill="#FFFFFF" font-family="sans-serif" font-size="14" lengthAdjust="spacing" textLength="76" x="1247" y="310.4951">AC system</text></g><!--link cu to sh--><g id="link_cu_sh"><path d="M1261.29,200.519 C1320.53,225.513 1396.97,269.858 1365,323.5 C1343.5,359.5807 1303.77,383.3095 1266.82,398.4633 " fill="none" id="cu-to-sh" style="stroke:#E7E7E7;stroke-width:1.0;"/><polygon fill="#E7E7E7" points="1261.86,400.4529,1271.7019,400.8225,1266.502,398.5951,1268.7295,393.3952,1261.86,400.4529" style="stroke:#E7E7E7;stroke-width:1.0;"/><text fill="#FFFFFF" font-family="sans-serif" font-size="13" lengthAdjust="spacing" textLength="11" x="1374" y="305.0669">IP</text></g><!--link rp to cu--><g id="link_rp_cu"><path d="M1139.57,77.693 C1152.04,98.076 1170.53,128.313 1183.77,149.964 " fill="none" id="rp-to-cu" style="stroke:#E7E7E7;stroke-width:1.0;"/><polygon fill="#E7E7E7" points="1186.51,154.447,1185.233,144.6813,1183.904,150.1798,1178.4055,148.8509,1186.51,154.447" style="stroke:#E7E7E7;stroke-width:1.0;"/><text fill="#FFFFFF" font-family="sans-serif" font-size="13" lengthAdjust="spacing" textLength="11" x="1169" y="120.5669">IP</text></g><!--link wi to cu--><g id="link_wi_cu"><path d="M1260.43,77.693 C1247.96,98.076 1229.47,128.313 1216.23,149.964 " fill="none" id="wi-to-cu" style="stroke:#E7E7E7;stroke-width:1.0;"/><polygon fill="#E7E7E7" points="1213.49,154.447,1221.5945,148.8509,1216.096,150.1798,1214.767,144.6813,1213.49,154.447" style="stroke:#E7E7E7;stroke-width:1.0;"/><text fill="#FFFFFF" font-family="sans-serif" font-size="13" lengthAdjust="spacing" textLength="11" x="1243" y="120.5669">IP</text></g><!--link l to sh--><g id="link_l_sh"><path d="M678.275,318.166 C683.855,320.1 689.535,321.936 695,323.5 C827.757,361.4926 984.866,390.6753 1083.99,407.214 " fill="none" id="l-to-sh" style="stroke:#E7E7E7;stroke-width:1.0;"/><polygon fill="#E7E7E7" points="1088.96,408.0408,1080.7318,402.6282,1084.0268,407.2263,1079.4286,410.5213,1088.96,408.0408" style="stroke:#E7E7E7;stroke-width:1.0;"/><text fill="#FFFFFF" font-family="sans-serif" font-size="13" lengthAdjust="spacing" textLength="11" x="882" y="366.5669">IP</text></g><!--link fd to sh--><g id="link_fd_sh"><path d="M829.015,318.58 C900.358,339.583 1021.83,375.3443 1102,398.9471 " fill="none" id="fd-to-sh" style="stroke:#E7E7E7;stroke-width:1.0;"/><polygon fill="#E7E7E7" points="1107.22,400.4839,1099.7187,394.1018,1102.4241,399.0698,1097.4562,401.7752,1107.22,400.4839" style="stroke:#E7E7E7;stroke-width:1.0;"/><text fill="#FFFFFF" font-family="sans-serif" font-size="13" lengthAdjust="spacing" textLength="11" x="1003" y="366.5669">IP</text></g><!--link ls to l--><g id="link_ls_l"><path d="M452.825,200.553 C491.628,221.513 549.894,252.987 590.248,274.786 " fill="none" id="ls-to-l" style="stroke:#E7E7E7;stroke-width:1.0;"/><polygon fill="#E7E7E7" points="595.078,277.395,589.0601,269.5985,590.6787,275.0189,585.2583,276.6374,595.078,277.395" style="stroke:#E7E7E7;stroke-width:1.0;"/><text fill="#FFFFFF" font-family="sans-serif" font-size="13" lengthAdjust="spacing" textLength="11" x="539" y="243.5669">IP</text></g><!--link lc to l--><g id="link_lc_l"><path d="M603.337,200.693 C610.046,220.99 619.987,251.06 627.138,272.692 " fill="none" id="lc-to-l" style="stroke:#E7E7E7;stroke-width:1.0;"/><polygon fill="#E7E7E7" points="628.71,277.447,629.6844,267.6465,627.1413,272.6995,622.0883,270.1564,628.71,277.447" style="stroke:#E7E7E7;stroke-width:1.0;"/><text fill="#FFFFFF" font-family="sans-serif" font-size="13" lengthAdjust="spacing" textLength="11" x="620" y="243.5669">IP</text></g><!--link dm to fd--><g id="link_dm_fd"><path d="M771,200.693 C771,220.905 771,250.807 771,272.419 " fill="none" id="dm-to-fd" style="stroke:#E7E7E7;stroke-width:1.0;"/><polygon fill="#E7E7E7" points="771,277.447,775,268.447,771,272.447,767,268.447,771,277.447" style="stroke:#E7E7E7;stroke-width:1.0;"/><text fill="#FFFFFF" font-family="sans-serif" font-size="13" lengthAdjust="spacing" textLength="11" x="772" y="243.5669">IP</text></g><!--link dc to fd--><g id="link_dc_fd"><path d="M890.407,200.557 C872.93,208.768 853.982,218.94 838,230.5 C821.058,242.755 804.659,259.531 792.326,273.473 " fill="none" id="dc-to-fd" style="stroke:#E7E7E7;stroke-width:1.0;"/><polygon fill="#E7E7E7" points="788.958,277.324,797.8934,273.1817,792.2492,273.56,791.8709,267.9158,788.958,277.324" style="stroke:#E7E7E7;stroke-width:1.0;"/><text fill="#FFFFFF" font-family="sans-serif" font-size="13" lengthAdjust="spacing" textLength="11" x="839" y="243.5669">IP</text></g><!--link l to cu--><g id="link_l_cu"><path d="M678.252,282.755 C683.837,280.834 689.523,279.022 695,277.5 C764.707,258.123 786.055,269.435 855,247.5 C872.245,242.013 874.564,235.349 892,230.5 C955.34,212.886 974.143,224.76 1039,214 C1069.7,208.908 1103.36,201.738 1131.93,195.175 " fill="none" id="l-to-cu" style="stroke:#E7E7E7;stroke-width:1.0;"/><polygon fill="#E7E7E7" points="1136.83,194.042,1127.1647,192.1495,1131.9559,195.1569,1128.9485,199.9481,1136.83,194.042" style="stroke:#E7E7E7;stroke-width:1.0;"/><text fill="#FFFFFF" font-family="sans-serif" font-size="13" lengthAdjust="spacing" textLength="10" x="893" y="243.5669">D</text></g><!--link cu to l--><g id="link_cu_l"><path d="M1136.96,194.873 C1107.41,201.907 1071.61,209.526 1039,214 C973.732,222.955 805.654,210.138 743,230.5 C714.424,239.787 686.025,258.667 665.673,274.333 " fill="none" id="cu-to-l" style="stroke:#E7E7E7;stroke-width:1.0;"/><polygon fill="#E7E7E7" points="661.713,277.42,671.271,275.0443,665.6573,274.3471,666.3544,268.7334,661.713,277.42" style="stroke:#E7E7E7;stroke-width:1.0;"/><text fill="#FFFFFF" font-family="sans-serif" font-size="13" lengthAdjust="spacing" textLength="18" x="744" y="243.5669">PD</text></g><!--link fd to cu--><g id="link_fd_cu"><path d="M829.031,282.464 C835.09,280.756 841.165,279.073 847,277.5 C900.079,263.188 915.133,265.721 967,247.5 C984.074,241.502 986.969,236.621 1004,230.5 C1045.69,215.516 1093.76,202.697 1131.86,193.536 " fill="none" id="fd-to-cu" style="stroke:#E7E7E7;stroke-width:1.0;"/><polygon fill="#E7E7E7" points="1136.93,192.324,1127.2485,190.5161,1132.0658,193.4815,1129.1004,198.2988,1136.93,192.324" style="stroke:#E7E7E7;stroke-width:1.0;"/><text fill="#FFFFFF" font-family="sans-serif" font-size="13" lengthAdjust="spacing" textLength="10" x="1005" y="243.5669">D</text></g><!--link cu to fd--><g id="link_cu_fd"><path d="M1136.69,193.279 C1107.09,199.978 1071.32,207.775 1039,214 C994.77,222.519 981.674,216.077 939,230.5 C923.743,235.657 921.66,240.834 907,247.5 C883.584,258.148 857.294,268.547 834.116,277.213 " fill="none" id="cu-to-fd" style="stroke:#E7E7E7;stroke-width:1.0;"/><polygon fill="#E7E7E7" points="829.219,279.035,839.049,279.6439,833.9049,277.2907,836.2581,272.1465,829.219,279.035" style="stroke:#E7E7E7;stroke-width:1.0;"/><text fill="#FFFFFF" font-family="sans-serif" font-size="13" lengthAdjust="spacing" textLength="18" x="940" y="243.5669">PD</text></g><!--link detec to sh--><g id="link_detec_sh"><path d="M1666.19,321.035 C1620.61,336.155 1554.76,356.7664 1496,370.5 C1424.43,387.2272 1342.47,400.6101 1280.23,409.6084 " fill="none" id="detec-to-sh" style="stroke:#E7E7E7;stroke-width:1.0;"/><polygon fill="#E7E7E7" points="1275.03,410.3568,1284.5091,413.0302,1279.9787,409.6426,1283.3663,405.1122,1275.03,410.3568" style="stroke:#E7E7E7;stroke-width:1.0;"/><text fill="#FFFFFF" font-family="sans-serif" font-size="13" lengthAdjust="spacing" textLength="11" x="1561" y="366.5669">IP</text></g><!--link md to detec--><g id="link_md_detec"><path d="M1878.15,200.693 C1845.34,221.587 1796.27,252.837 1762.13,274.578 " fill="none" id="md-to-detec" style="stroke:#E7E7E7;stroke-width:1.0;"/><polygon fill="#E7E7E7" points="1757.63,277.447,1767.3702,275.9878,1761.8478,274.7618,1763.0738,269.2394,1757.63,277.447" style="stroke:#E7E7E7;stroke-width:1.0;"/><text fill="#FFFFFF" font-family="sans-serif" font-size="13" lengthAdjust="spacing" textLength="11" x="1830" y="243.5669">IP</text></g><!--link td to detec--><g id="link_td_detec"><path d="M2060.73,200.553 C1981.55,223.751 1858.41,259.828 1784.74,281.413 " fill="none" id="td-to-detec" style="stroke:#E7E7E7;stroke-width:1.0;"/><polygon fill="#E7E7E7" points="1779.52,282.941,1789.2801,284.2602,1784.3199,281.5406,1787.0395,276.5804,1779.52,282.941" style="stroke:#E7E7E7;stroke-width:1.0;"/><text fill="#FFFFFF" font-family="sans-serif" font-size="13" lengthAdjust="spacing" textLength="11" x="1955" y="243.5669">IP</text></g><!--link cu to detec--><g id="link_cu_detec"><path d="M1263.26,187.505 C1366.8,202.249 1561.21,229.972 1563,230.5 C1580.36,235.614 1583.44,240.198 1600,247.5 C1621.2,256.849 1644.59,266.824 1665.24,275.511 " fill="none" id="cu-to-detec" style="stroke:#E7E7E7;stroke-width:1.0;"/><polygon fill="#E7E7E7" points="1669.87,277.459,1663.1299,270.2777,1665.2625,275.5172,1660.023,277.6498,1669.87,277.459" style="stroke:#E7E7E7;stroke-width:1.0;"/><text fill="#FFFFFF" font-family="sans-serif" font-size="13" lengthAdjust="spacing" textLength="10" x="1601" y="243.5669">D</text></g><!--link detec to cu--><g id="link_detec_cu"><path d="M1691.92,277.333 C1666.06,259.327 1630.98,236.04 1615,230.5 C1544.95,206.209 1522.61,222.901 1449,214 C1387.71,206.588 1318.16,196.534 1268.18,189.017 " fill="none" id="detec-to-cu" style="stroke:#E7E7E7;stroke-width:1.0;"/><polygon fill="#E7E7E7" points="1263.1,188.252,1271.4058,193.5448,1268.0445,188.9949,1272.5944,185.6336,1263.1,188.252" style="stroke:#E7E7E7;stroke-width:1.0;"/><text fill="#FFFFFF" font-family="sans-serif" font-size="13" lengthAdjust="spacing" textLength="18" x="1645" y="243.5669">PD</text></g><!--link pa to sh--><g id="link_pa_sh"><path d="M970.203,323.553 C1015.34,344.641 1083.26,376.3715 1129.95,398.1834 " fill="none" id="pa-to-sh" style="stroke:#E7E7E7;stroke-width:1.0;"/><polygon fill="#E7E7E7" points="1134.68,400.3947,1128.2163,392.9637,1130.1492,398.28,1124.8328,400.213,1134.68,400.3947" style="stroke:#E7E7E7;stroke-width:1.0;"/><text fill="#FFFFFF" font-family="sans-serif" font-size="13" lengthAdjust="spacing" textLength="11" x="1070" y="366.5669">IP</text></g><!--link cu to pa--><g id="link_cu_pa"><path d="M1136.92,199.252 C1111.49,208.142 1082.05,219.097 1056,230.5 C1025.6,243.804 992.48,260.982 966.887,274.869 " fill="none" id="cu-to-pa" style="stroke:#E7E7E7;stroke-width:1.0;"/><polygon fill="#E7E7E7" points="962.199,277.422,972.016,276.6306,966.5901,275.0307,968.19,269.6048,962.199,277.422" style="stroke:#E7E7E7;stroke-width:1.0;"/><text fill="#FFFFFF" font-family="sans-serif" font-size="13" lengthAdjust="spacing" textLength="10" x="1057" y="243.5669">D</text></g><!--link pa to cu--><g id="link_pa_cu"><path d="M981.788,281.151 C1009.27,271.991 1042.21,260.169 1071,247.5 C1100.76,234.403 1133.02,217.148 1157.84,203.17 " fill="none" id="pa-to-cu" style="stroke:#E7E7E7;stroke-width:1.0;"/><polygon fill="#E7E7E7" points="1162.38,200.6,1152.5763,201.5422,1158.0262,203.0585,1156.5099,208.5084,1162.38,200.6" style="stroke:#E7E7E7;stroke-width:1.0;"/><text fill="#FFFFFF" font-family="sans-serif" font-size="13" lengthAdjust="spacing" textLength="18" x="1105" y="243.5669">PD</text></g><!--link sa to sh--><g id="link_sa_sh"><path d="M1521.7,323.706 C1501.42,339.097 1472.46,358.8452 1444,370.5 C1392.03,391.7792 1330.61,404.5623 1280.3,412.1257 " fill="none" id="sa-to-sh" style="stroke:#E7E7E7;stroke-width:1.0;"/><polygon fill="#E7E7E7" points="1275.16,412.8867,1284.6468,415.5324,1280.1066,412.1581,1283.481,407.6178,1275.16,412.8867" style="stroke:#E7E7E7;stroke-width:1.0;"/><text fill="#FFFFFF" font-family="sans-serif" font-size="13" lengthAdjust="spacing" textLength="11" x="1476" y="366.5669">IP</text></g><!--link sa to cu--><g id="link_sa_cu"><path d="M1523.44,277.315 C1504.41,261.935 1477.13,242.19 1450,230.5 C1391.55,205.312 1320.03,192.021 1268.48,185.205 " fill="none" id="sa-to-cu" style="stroke:#E7E7E7;stroke-width:1.0;"/><polygon fill="#E7E7E7" points="1263.24,184.525,1271.651,189.6489,1268.1985,185.1678,1272.6796,181.7153,1263.24,184.525" style="stroke:#E7E7E7;stroke-width:1.0;"/><text fill="#FFFFFF" font-family="sans-serif" font-size="13" lengthAdjust="spacing" textLength="18" x="1481" y="243.5669">PD</text></g><!--link cu to sa--><g id="link_cu_sa"><path d="M1263.18,192.078 C1300.7,201.051 1348.83,214.166 1390,230.5 C1404.97,236.44 1407.42,240.663 1422,247.5 C1442.86,257.28 1466.08,267.09 1486.9,275.513 " fill="none" id="cu-to-sa" style="stroke:#E7E7E7;stroke-width:1.0;"/><polygon fill="#E7E7E7" points="1491.58,277.399,1484.731,270.3215,1486.9434,275.5278,1481.7371,277.7401,1491.58,277.399" style="stroke:#E7E7E7;stroke-width:1.0;"/><text fill="#FFFFFF" font-family="sans-serif" font-size="13" lengthAdjust="spacing" textLength="18" x="1423" y="243.5669">PD</text></g><!--link sf to sa--><g id="link_sf_sa"><path d="M1535.12,200.693 C1537.96,220.905 1542.16,250.807 1545.2,272.419 " fill="none" id="sf-to-sa" style="stroke:#E7E7E7;stroke-width:1.0;"/><polygon fill="#E7E7E7" points="1545.9,277.447,1548.6103,267.9784,1545.2051,272.4955,1540.688,269.0903,1545.9,277.447" style="stroke:#E7E7E7;stroke-width:1.0;"/><text fill="#FFFFFF" font-family="sans-serif" font-size="13" lengthAdjust="spacing" textLength="11" x="1543" y="243.5669">IP</text></g><!--link bm to sa--><g id="link_bm_sa"><path d="M1705.99,200.626 C1699.6,215.579 1689.33,234.832 1675,247.5 C1662.06,258.934 1646.27,268.074 1630.3,275.299 " fill="none" id="bm-to-sa" style="stroke:#E7E7E7;stroke-width:1.0;"/><polygon fill="#E7E7E7" points="1625.33,277.48,1635.1788,277.516,1629.9064,275.466,1631.9564,270.1937,1625.33,277.48" style="stroke:#E7E7E7;stroke-width:1.0;"/><text fill="#FFFFFF" font-family="sans-serif" font-size="13" lengthAdjust="spacing" textLength="11" x="1690" y="243.5669">IP</text></g><!--link ss to sh--><g id="link_ss_sh"><path d="M1120.76,323.693 C1133.39,344.076 1152.13,374.3125 1165.55,395.9642 " fill="none" id="ss-to-sh" style="stroke:#E7E7E7;stroke-width:1.0;"/><polygon fill="#E7E7E7" points="1168.33,400.4474,1166.981,390.6914,1165.6926,396.1996,1160.1844,394.9112,1168.33,400.4474" style="stroke:#E7E7E7;stroke-width:1.0;"/><text fill="#FFFFFF" font-family="sans-serif" font-size="13" lengthAdjust="spacing" textLength="11" x="1150" y="366.5669">IP</text></g><!--link cu to ss--><g id="link_cu_ss"><path d="M1182.94,200.693 C1167.21,221.161 1143.84,251.566 1127.19,273.235 " fill="none" id="cu-to-ss" style="stroke:#E7E7E7;stroke-width:1.0;"/><polygon fill="#E7E7E7" points="1123.95,277.447,1132.6103,272.7566,1127.0006,273.4854,1126.2717,267.8757,1123.95,277.447" style="stroke:#E7E7E7;stroke-width:1.0;"/><text fill="#FFFFFF" font-family="sans-serif" font-size="13" lengthAdjust="spacing" textLength="18" x="1161" y="243.5669">PD</text></g><!--link ac to sh--><g id="link_ac_sh"><path d="M1270.19,323.693 C1251.85,344.246 1224.56,374.8193 1205.2,396.5059 " fill="none" id="ac-to-sh" style="stroke:#E7E7E7;stroke-width:1.0;"/><polygon fill="#E7E7E7" points="1201.68,400.4474,1210.6582,396.3987,1205.0104,396.718,1204.6911,391.0701,1201.68,400.4474" style="stroke:#E7E7E7;stroke-width:1.0;"/><text fill="#FFFFFF" font-family="sans-serif" font-size="13" lengthAdjust="spacing" textLength="11" x="1244" y="366.5669">IP</text></g><!--link ac to cu--><g id="link_ac_cu"><path d="M1279.42,277.463 C1272.25,263.448 1262.09,245.234 1251,230.5 C1244.2,221.469 1235.94,212.406 1228.06,204.434 " fill="none" id="ac-to-cu" style="stroke:#E7E7E7;stroke-width:1.0;"/><polygon fill="#E7E7E7" points="1224.23,200.613,1227.7804,209.7997,1227.7712,204.1428,1233.4281,204.1337,1224.23,200.613" style="stroke:#E7E7E7;stroke-width:1.0;"/><text fill="#FFFFFF" font-family="sans-serif" font-size="13" lengthAdjust="spacing" textLength="10" x="1264" y="243.5669">D</text></g><!--link cu to ac--><g id="link_cu_ac"><path d="M1203.88,200.532 C1207.2,214.888 1213.07,233.486 1223,247.5 C1230.15,257.593 1239.82,266.661 1249.59,274.29 " fill="none" id="cu-to-ac" style="stroke:#E7E7E7;stroke-width:1.0;"/><polygon fill="#E7E7E7" points="1253.77,277.471,1249.0286,268.8386,1249.7905,274.4439,1244.1852,275.2058,1253.77,277.471" style="stroke:#E7E7E7;stroke-width:1.0;"/><text fill="#FFFFFF" font-family="sans-serif" font-size="13" lengthAdjust="spacing" textLength="18" x="1224" y="243.5669">PD</text></g><!--SRC=[RPFFYzKm4CVlyrSCwtaFwarGq2t2WYx55JmK3scIlWRoYqpguo7-xqwJl6TRjuV2p7o-tymqKnbS35xxZ4yXQy9Nerqq_WRantC6x_eEtsDCuPTHN5SYYpiKX4-lDyoAA1srLrIBRpR5nvwhXZ2Ab6lrBVm169uT9t0E2sca2sNjVgvLchds47nEmUBYJIvPkN3scw0uwfGks9kIJH667oPfuqybFXi0kU3z_GUsmNVus4EA9UHi2Szc5yBmnPpcJ4Lj0UnE2yFdn8sW2Y4LOb80apemnG7fRBASTNCYjgB2sJqcW_TQvkPd9NDoptLy6BfmHPG3KAuWVFAMsLifjb9opzdRhDsrxHgmWyv5M_jLQmJbVHZkQyWc-0hSSCUVmLM_gcdmT-sYJY8lIHyKcHNvVqMxgskgsxHGRgZlReojOOlAY6jrw6TUNnGnbdEY08XYFqEJS7ezeLLlzcqDsS0QuMMxG68VElZGNddTCx4tcf9H9rrD9XPD_wZoZJubVUPrHIVaR7m5HxxZqHt0PosNPF85QHctlmUl5j6B4tAwjVBnOVj72LuDSRXO8RVhq0o4B0P_0G00]--></g></svg>