<?xml version="1.0" encoding="us-ascii" standalone="no"?><svg xmlns="http://www.w3.org/2000/svg" xmlns:xlink="http://www.w3.org/1999/xlink" contentStyleType="text/css" height="208px" preserveAspectRatio="none" style="width:359px;height:208px;background:#1B1B1B;" version="1.1" viewBox="0 0 359 208" width="359px" zoomAndPan="magnify"><defs/><g><rect fill="#1B1B1B" height="208" style="stroke:none;stroke-width:1.0;" width="359" x="0" y="0"/><line style="stroke:#E7E7E7;stroke-width:0.5;stroke-dasharray:5.0,5.0;" x1="53" x2="53" y1="36.2969" y2="172.8281"/><line style="stroke:#E7E7E7;stroke-width:0.5;stroke-dasharray:5.0,5.0;" x1="203.5" x2="203.5" y1="36.2969" y2="172.8281"/><line style="stroke:#E7E7E7;stroke-width:0.5;stroke-dasharray:5.0,5.0;" x1="300.5" x2="300.5" y1="36.2969" y2="172.8281"/><rect fill="#222222" height="30.2969" rx="2.5" ry="2.5" style="stroke:#E7E7E7;stroke-width:0.5;" width="97" x="5" y="5"/><text fill="#FFFFFF" font-family="sans-serif" font-size="14" lengthAdjust="spacing" textLength="83" x="12" y="24.9951">ControlUnit</text><rect fill="#222222" height="30.2969" rx="2.5" ry="2.5" style="stroke:#E7E7E7;stroke-width:0.5;" width="97" x="5" y="171.8281"/><text fill="#FFFFFF" font-family="sans-serif" font-size="14" lengthAdjust="spacing" textLength="83" x="12" y="191.8232">ControlUnit</text><rect fill="#222222" height="30.2969" rx="2.5" ry="2.5" style="stroke:#E7E7E7;stroke-width:0.5;" width="70" x="168.5" y="5"/><text fill="#FFFFFF" font-family="sans-serif" font-size="14" lengthAdjust="spacing" textLength="56" x="175.5" y="24.9951">Sensors</text><rect fill="#222222" height="30.2969" rx="2.5" ry="2.5" style="stroke:#E7E7E7;stroke-width:0.5;" width="70" x="168.5" y="171.8281"/><text fill="#FFFFFF" font-family="sans-serif" font-size="14" lengthAdjust="spacing" textLength="56" x="175.5" y="191.8232">Sensors</text><rect fill="#222222" height="30.2969" rx="2.5" ry="2.5" style="stroke:#E7E7E7;stroke-width:0.5;" width="105" x="248.5" y="5"/><text fill="#FFFFFF" font-family="sans-serif" font-size="14" lengthAdjust="spacing" textLength="91" x="255.5" y="24.9951">LightControl</text><rect fill="#222222" height="30.2969" rx="2.5" ry="2.5" style="stroke:#E7E7E7;stroke-width:0.5;" width="105" x="248.5" y="171.8281"/><text fill="#FFFFFF" font-family="sans-serif" font-size="14" lengthAdjust="spacing" textLength="91" x="255.5" y="191.8232">LightControl</text><polygon fill="#E7E7E7" points="191.5,63.4297,201.5,67.4297,191.5,71.4297,195.5,67.4297" style="stroke:#E7E7E7;stroke-width:1.0;"/><line style="stroke:#E7E7E7;stroke-width:1.0;stroke-dasharray:2.0,2.0;" x1="53.5" x2="197.5" y1="67.4297" y2="67.4297"/><text fill="#FFFFFF" font-family="sans-serif" font-size="13" lengthAdjust="spacing" textLength="126" x="60.5" y="62.3638">"Request presence"</text><polygon fill="#E7E7E7" points="64.5,92.5625,54.5,96.5625,64.5,100.5625,60.5,96.5625" style="stroke:#E7E7E7;stroke-width:1.0;"/><line style="stroke:#E7E7E7;stroke-width:1.0;stroke-dasharray:2.0,2.0;" x1="58.5" x2="202.5" y1="96.5625" y2="96.5625"/><text fill="#FFFFFF" font-family="sans-serif" font-size="13" lengthAdjust="spacing" textLength="41" x="70.5" y="91.4966">"Data"</text><polygon fill="#E7E7E7" points="289,121.6953,299,125.6953,289,129.6953,293,125.6953" style="stroke:#E7E7E7;stroke-width:1.0;"/><line style="stroke:#E7E7E7;stroke-width:1.0;stroke-dasharray:2.0,2.0;" x1="53.5" x2="295" y1="125.6953" y2="125.6953"/><text fill="#FFFFFF" font-family="sans-serif" font-size="13" lengthAdjust="spacing" textLength="81" x="60.5" y="120.6294">"Turn on/off"</text><polygon fill="#E7E7E7" points="64.5,150.8281,54.5,154.8281,64.5,158.8281,60.5,154.8281" style="stroke:#E7E7E7;stroke-width:1.0;"/><line style="stroke:#E7E7E7;stroke-width:1.0;stroke-dasharray:2.0,2.0;" x1="58.5" x2="300" y1="154.8281" y2="154.8281"/><text fill="#FFFFFF" font-family="sans-serif" font-size="13" lengthAdjust="spacing" textLength="27" x="70.5" y="149.7622">"Ok"</text><!--SRC=[SyxFAodApmdDoonHqDMrKmXEpIlEBofMi59G2aejB4qjBb4eA4ejJirBJbNYWac253eZQGGgTaaiILJYSaOppISpFQC4AWXI5L9QbAUGdwUVdvQcn8KYYSL8_smb0000]--></g></svg>