<?xml version="1.0" encoding="us-ascii" standalone="no"?><svg xmlns="http://www.w3.org/2000/svg" xmlns:xlink="http://www.w3.org/1999/xlink" contentStyleType="text/css" height="337px" preserveAspectRatio="none" style="width:645px;height:337px;background:#1B1B1B;" version="1.1" viewBox="0 0 645 337" width="645px" zoomAndPan="magnify"><defs/><g><rect fill="#1B1B1B" height="337" style="stroke:none;stroke-width:1.0;" width="645" x="0" y="0"/><rect fill="#000000" height="71.2656" style="stroke:#E7E7E7;stroke-width:1.0;" width="10" x="511" y="183.9609"/><line style="stroke:#E7E7E7;stroke-width:0.5;stroke-dasharray:5.0,5.0;" x1="44" x2="44" y1="36.2969" y2="302.3594"/><line style="stroke:#E7E7E7;stroke-width:0.5;stroke-dasharray:5.0,5.0;" x1="130.5" x2="130.5" y1="36.2969" y2="302.3594"/><line style="stroke:#E7E7E7;stroke-width:0.5;stroke-dasharray:5.0,5.0;" x1="228.5" x2="228.5" y1="36.2969" y2="302.3594"/><line style="stroke:#E7E7E7;stroke-width:0.5;stroke-dasharray:5.0,5.0;" x1="387.5" x2="387.5" y1="36.2969" y2="302.3594"/><line style="stroke:#E7E7E7;stroke-width:0.5;stroke-dasharray:5.0,5.0;" x1="515.5" x2="515.5" y1="36.2969" y2="302.3594"/><rect fill="#222222" height="30.2969" rx="2.5" ry="2.5" style="stroke:#E7E7E7;stroke-width:0.5;" width="78" x="5" y="5"/><text fill="#FFFFFF" font-family="sans-serif" font-size="14" lengthAdjust="spacing" textLength="64" x="12" y="24.9951">Resident</text><rect fill="#222222" height="30.2969" rx="2.5" ry="2.5" style="stroke:#E7E7E7;stroke-width:0.5;" width="78" x="5" y="301.3594"/><text fill="#FFFFFF" font-family="sans-serif" font-size="14" lengthAdjust="spacing" textLength="64" x="12" y="321.3545">Resident</text><rect fill="#222222" height="30.2969" rx="2.5" ry="2.5" style="stroke:#E7E7E7;stroke-width:0.5;" width="59" x="101.5" y="5"/><text fill="#FFFFFF" font-family="sans-serif" font-size="14" lengthAdjust="spacing" textLength="45" x="108.5" y="24.9951">Phone</text><rect fill="#222222" height="30.2969" rx="2.5" ry="2.5" style="stroke:#E7E7E7;stroke-width:0.5;" width="59" x="101.5" y="301.3594"/><text fill="#FFFFFF" font-family="sans-serif" font-size="14" lengthAdjust="spacing" textLength="45" x="108.5" y="321.3545">Phone</text><rect fill="#222222" height="30.2969" rx="2.5" ry="2.5" style="stroke:#E7E7E7;stroke-width:0.5;" width="97" x="180.5" y="5"/><text fill="#FFFFFF" font-family="sans-serif" font-size="14" lengthAdjust="spacing" textLength="83" x="187.5" y="24.9951">ControlUnit</text><rect fill="#222222" height="30.2969" rx="2.5" ry="2.5" style="stroke:#E7E7E7;stroke-width:0.5;" width="97" x="180.5" y="301.3594"/><text fill="#FFFFFF" font-family="sans-serif" font-size="14" lengthAdjust="spacing" textLength="83" x="187.5" y="321.3545">ControlUnit</text><rect fill="#222222" height="30.2969" rx="2.5" ry="2.5" style="stroke:#E7E7E7;stroke-width:0.5;" width="103" x="336.5" y="5"/><text fill="#FFFFFF" font-family="sans-serif" font-size="14" lengthAdjust="spacing" textLength="89" x="343.5" y="24.9951">SmartFridge</text><rect fill="#222222" height="30.2969" rx="2.5" ry="2.5" style="stroke:#E7E7E7;stroke-width:0.5;" width="103" x="336.5" y="301.3594"/><text fill="#FFFFFF" font-family="sans-serif" font-size="14" lengthAdjust="spacing" textLength="89" x="343.5" y="321.3545">SmartFridge</text><rect fill="#222222" height="30.2969" rx="2.5" ry="2.5" style="stroke:#E7E7E7;stroke-width:0.5;" width="133" x="449.5" y="5"/><text fill="#FFFFFF" font-family="sans-serif" font-size="14" lengthAdjust="spacing" textLength="119" x="456.5" y="24.9951">OnlineShopSilpo</text><rect fill="#222222" height="30.2969" rx="2.5" ry="2.5" style="stroke:#E7E7E7;stroke-width:0.5;" width="133" x="449.5" y="301.3594"/><text fill="#FFFFFF" font-family="sans-serif" font-size="14" lengthAdjust="spacing" textLength="119" x="456.5" y="321.3545">OnlineShopSilpo</text><rect fill="#000000" height="71.2656" style="stroke:#E7E7E7;stroke-width:1.0;" width="10" x="511" y="183.9609"/><polygon fill="#E7E7E7" points="119,63.4297,129,67.4297,119,71.4297,123,67.4297" style="stroke:#E7E7E7;stroke-width:1.0;"/><line style="stroke:#E7E7E7;stroke-width:1.0;stroke-dasharray:2.0,2.0;" x1="44" x2="125" y1="67.4297" y2="67.4297"/><text fill="#FFFFFF" font-family="sans-serif" font-size="13" lengthAdjust="spacing" textLength="63" x="51" y="62.3638">"Food list"</text><polygon fill="#E7E7E7" points="217,92.5625,227,96.5625,217,100.5625,221,96.5625" style="stroke:#E7E7E7;stroke-width:1.0;"/><line style="stroke:#E7E7E7;stroke-width:1.0;stroke-dasharray:2.0,2.0;" x1="131" x2="223" y1="96.5625" y2="96.5625"/><text fill="#FFFFFF" font-family="sans-serif" font-size="13" lengthAdjust="spacing" textLength="74" x="138" y="91.4966">"Food data"</text><polygon fill="#E7E7E7" points="376,121.6953,386,125.6953,376,129.6953,380,125.6953" style="stroke:#E7E7E7;stroke-width:1.0;"/><line style="stroke:#E7E7E7;stroke-width:1.0;stroke-dasharray:2.0,2.0;" x1="229" x2="382" y1="125.6953" y2="125.6953"/><text fill="#FFFFFF" font-family="sans-serif" font-size="13" lengthAdjust="spacing" textLength="135" x="236" y="120.6294">"What do you have?"</text><polygon fill="#E7E7E7" points="240,150.8281,230,154.8281,240,158.8281,236,154.8281" style="stroke:#E7E7E7;stroke-width:1.0;"/><line style="stroke:#E7E7E7;stroke-width:1.0;stroke-dasharray:2.0,2.0;" x1="234" x2="387" y1="154.8281" y2="154.8281"/><text fill="#FFFFFF" font-family="sans-serif" font-size="13" lengthAdjust="spacing" textLength="91" x="246" y="149.7622">"Current food"</text><polygon fill="#E7E7E7" points="499,179.9609,509,183.9609,499,187.9609,503,183.9609" style="stroke:#E7E7E7;stroke-width:1.0;"/><line style="stroke:#E7E7E7;stroke-width:1.0;stroke-dasharray:2.0,2.0;" x1="229" x2="505" y1="183.9609" y2="183.9609"/><text fill="#FFFFFF" font-family="sans-serif" font-size="13" lengthAdjust="spacing" textLength="82" x="236" y="178.895">"Place order"</text><line style="stroke:#E7E7E7;stroke-width:1.0;stroke-dasharray:2.0,2.0;" x1="521" x2="563" y1="213.0938" y2="213.0938"/><line style="stroke:#E7E7E7;stroke-width:1.0;stroke-dasharray:2.0,2.0;" x1="563" x2="563" y1="213.0938" y2="226.0938"/><line style="stroke:#E7E7E7;stroke-width:1.0;stroke-dasharray:2.0,2.0;" x1="522" x2="563" y1="226.0938" y2="226.0938"/><polygon fill="#E7E7E7" points="532,222.0938,522,226.0938,532,230.0938,528,226.0938" style="stroke:#E7E7E7;stroke-width:1.0;"/><text fill="#FFFFFF" font-family="sans-serif" font-size="13" lengthAdjust="spacing" textLength="110" x="528" y="208.0278">"Complete order"</text><polygon fill="#E7E7E7" points="55,251.2266,45,255.2266,55,259.2266,51,255.2266" style="stroke:#E7E7E7;stroke-width:1.0;"/><line style="stroke:#E7E7E7;stroke-width:1.0;stroke-dasharray:2.0,2.0;" x1="49" x2="515" y1="255.2266" y2="255.2266"/><text fill="#FFFFFF" font-family="sans-serif" font-size="13" lengthAdjust="spacing" textLength="93" x="61" y="250.1606">"Deliver order"</text><polygon fill="#E7E7E7" points="376,280.3594,386,284.3594,376,288.3594,380,284.3594" style="stroke:#E7E7E7;stroke-width:1.0;"/><line style="stroke:#E7E7E7;stroke-width:1.0;stroke-dasharray:2.0,2.0;" x1="44" x2="382" y1="284.3594" y2="284.3594"/><text fill="#FFFFFF" font-family="sans-serif" font-size="13" lengthAdjust="spacing" textLength="77" x="51" y="279.2935">"Place food"</text><!--SRC=[TP0z3i8m38NtdCBApWKOO2ZgIaM5cAt6K4iXZeAfnEtfZrgLqcwM_Rrd-qLCoXL730eNUh6ZeCQC5Uns1oXg2GHxiBc80yyljMReTTDCWYRnry0wCGuLhPbFEh9yjhlonExHkzrgL7027tb3ZGqThPaJAzxPEwNkg7kxuz_-73m7Ack99ViedQ3mM158SfIimKgvGQKbQ9R23RDCdj6JJdvhiYctbZ-HvuRIY3lQFE0dxKLAmmlznry0]--></g></svg>