<?xml version="1.0" encoding="us-ascii" standalone="no"?><svg xmlns="http://www.w3.org/2000/svg" xmlns:xlink="http://www.w3.org/1999/xlink" contentStyleType="text/css" height="324px" preserveAspectRatio="none" style="width:576px;height:324px;background:#1B1B1B;" version="1.1" viewBox="0 0 576 324" width="576px" zoomAndPan="magnify"><defs/><g><rect fill="#1B1B1B" height="324" style="stroke:none;stroke-width:1.0;" width="576" x="0" y="0"/><line style="stroke:#E7E7E7;stroke-width:0.5;stroke-dasharray:5.0,5.0;" x1="44" x2="44" y1="36.2969" y2="289.3594"/><line style="stroke:#E7E7E7;stroke-width:0.5;stroke-dasharray:5.0,5.0;" x1="141" x2="141" y1="36.2969" y2="289.3594"/><line style="stroke:#E7E7E7;stroke-width:0.5;stroke-dasharray:5.0,5.0;" x1="260.5" x2="260.5" y1="36.2969" y2="289.3594"/><line style="stroke:#E7E7E7;stroke-width:0.5;stroke-dasharray:5.0,5.0;" x1="473" x2="473" y1="36.2969" y2="289.3594"/><line style="stroke:#E7E7E7;stroke-width:0.5;stroke-dasharray:5.0,5.0;" x1="541" x2="541" y1="36.2969" y2="289.3594"/><rect fill="#222222" height="30.2969" rx="2.5" ry="2.5" style="stroke:#E7E7E7;stroke-width:0.5;" width="78" x="5" y="5"/><text fill="#FFFFFF" font-family="sans-serif" font-size="14" lengthAdjust="spacing" textLength="64" x="12" y="24.9951">Resident</text><rect fill="#222222" height="30.2969" rx="2.5" ry="2.5" style="stroke:#E7E7E7;stroke-width:0.5;" width="78" x="5" y="288.3594"/><text fill="#FFFFFF" font-family="sans-serif" font-size="14" lengthAdjust="spacing" textLength="64" x="12" y="308.3545">Resident</text><rect fill="#222222" height="30.2969" rx="2.5" ry="2.5" style="stroke:#E7E7E7;stroke-width:0.5;" width="97" x="93" y="5"/><text fill="#FFFFFF" font-family="sans-serif" font-size="14" lengthAdjust="spacing" textLength="83" x="100" y="24.9951">ControlUnit</text><rect fill="#222222" height="30.2969" rx="2.5" ry="2.5" style="stroke:#E7E7E7;stroke-width:0.5;" width="97" x="93" y="288.3594"/><text fill="#FFFFFF" font-family="sans-serif" font-size="14" lengthAdjust="spacing" textLength="83" x="100" y="308.3545">ControlUnit</text><rect fill="#222222" height="30.2969" rx="2.5" ry="2.5" style="stroke:#E7E7E7;stroke-width:0.5;" width="70" x="225.5" y="5"/><text fill="#FFFFFF" font-family="sans-serif" font-size="14" lengthAdjust="spacing" textLength="56" x="232.5" y="24.9951">Sensors</text><rect fill="#222222" height="30.2969" rx="2.5" ry="2.5" style="stroke:#E7E7E7;stroke-width:0.5;" width="70" x="225.5" y="288.3594"/><text fill="#FFFFFF" font-family="sans-serif" font-size="14" lengthAdjust="spacing" textLength="56" x="232.5" y="308.3545">Sensors</text><rect fill="#222222" height="30.2969" rx="2.5" ry="2.5" style="stroke:#E7E7E7;stroke-width:0.5;" width="59" x="444" y="5"/><text fill="#FFFFFF" font-family="sans-serif" font-size="14" lengthAdjust="spacing" textLength="45" x="451" y="24.9951">Phone</text><rect fill="#222222" height="30.2969" rx="2.5" ry="2.5" style="stroke:#E7E7E7;stroke-width:0.5;" width="59" x="444" y="288.3594"/><text fill="#FFFFFF" font-family="sans-serif" font-size="14" lengthAdjust="spacing" textLength="45" x="451" y="308.3545">Phone</text><rect fill="#222222" height="30.2969" rx="2.5" ry="2.5" style="stroke:#E7E7E7;stroke-width:0.5;" width="57" x="513" y="5"/><text fill="#FFFFFF" font-family="sans-serif" font-size="14" lengthAdjust="spacing" textLength="43" x="520" y="24.9951">Police</text><rect fill="#222222" height="30.2969" rx="2.5" ry="2.5" style="stroke:#E7E7E7;stroke-width:0.5;" width="57" x="513" y="288.3594"/><text fill="#FFFFFF" font-family="sans-serif" font-size="14" lengthAdjust="spacing" textLength="43" x="520" y="308.3545">Police</text><polygon fill="#E7E7E7" points="248.5,63.4297,258.5,67.4297,248.5,71.4297,252.5,67.4297" style="stroke:#E7E7E7;stroke-width:1.0;"/><line style="stroke:#E7E7E7;stroke-width:1.0;stroke-dasharray:2.0,2.0;" x1="141.5" x2="254.5" y1="67.4297" y2="67.4297"/><text fill="#FFFFFF" font-family="sans-serif" font-size="13" lengthAdjust="spacing" textLength="90" x="148.5" y="62.3638">"Gimme data"</text><polygon fill="#E7E7E7" points="152.5,92.5625,142.5,96.5625,152.5,100.5625,148.5,96.5625" style="stroke:#E7E7E7;stroke-width:1.0;"/><line style="stroke:#E7E7E7;stroke-width:1.0;stroke-dasharray:2.0,2.0;" x1="146.5" x2="259.5" y1="96.5625" y2="96.5625"/><text fill="#FFFFFF" font-family="sans-serif" font-size="13" lengthAdjust="spacing" textLength="95" x="158.5" y="91.4966">"There you go"</text><polygon fill="#E7E7E7" points="461.5,121.6953,471.5,125.6953,461.5,129.6953,465.5,125.6953" style="stroke:#E7E7E7;stroke-width:1.0;"/><line style="stroke:#E7E7E7;stroke-width:1.0;stroke-dasharray:2.0,2.0;" x1="141.5" x2="467.5" y1="125.6953" y2="125.6953"/><text fill="#FFFFFF" font-family="sans-serif" font-size="13" lengthAdjust="spacing" textLength="112" x="148.5" y="120.6294">"Where are you?"</text><polygon fill="#E7E7E7" points="152.5,150.8281,142.5,154.8281,152.5,158.8281,148.5,154.8281" style="stroke:#E7E7E7;stroke-width:1.0;"/><line style="stroke:#E7E7E7;stroke-width:1.0;stroke-dasharray:2.0,2.0;" x1="146.5" x2="472.5" y1="154.8281" y2="154.8281"/><text fill="#FFFFFF" font-family="sans-serif" font-size="13" lengthAdjust="spacing" textLength="40" x="158.5" y="149.7622">"Here"</text><polygon fill="#E7E7E7" points="529.5,179.9609,539.5,183.9609,529.5,187.9609,533.5,183.9609" style="stroke:#E7E7E7;stroke-width:1.0;"/><line style="stroke:#E7E7E7;stroke-width:1.0;stroke-dasharray:2.0,2.0;" x1="141.5" x2="535.5" y1="183.9609" y2="183.9609"/><text fill="#FFFFFF" font-family="sans-serif" font-size="13" lengthAdjust="spacing" textLength="216" x="148.5" y="178.895">"There is somebody in the house"</text><polygon fill="#E7E7E7" points="152.5,209.0938,142.5,213.0938,152.5,217.0938,148.5,213.0938" style="stroke:#E7E7E7;stroke-width:1.0;"/><line style="stroke:#E7E7E7;stroke-width:1.0;stroke-dasharray:2.0,2.0;" x1="146.5" x2="540.5" y1="213.0938" y2="213.0938"/><text fill="#FFFFFF" font-family="sans-serif" font-size="13" lengthAdjust="spacing" textLength="107" x="158.5" y="208.0278">"We are cuming"</text><polygon fill="#E7E7E7" points="461.5,238.2266,471.5,242.2266,461.5,246.2266,465.5,242.2266" style="stroke:#E7E7E7;stroke-width:1.0;"/><line style="stroke:#E7E7E7;stroke-width:1.0;stroke-dasharray:2.0,2.0;" x1="141.5" x2="467.5" y1="242.2266" y2="242.2266"/><text fill="#FFFFFF" font-family="sans-serif" font-size="13" lengthAdjust="spacing" textLength="308" x="148.5" y="237.1606">"Somebody is in the house, police is on it's way"</text><polygon fill="#E7E7E7" points="55,267.3594,45,271.3594,55,275.3594,51,271.3594" style="stroke:#E7E7E7;stroke-width:1.0;"/><line style="stroke:#E7E7E7;stroke-width:1.0;stroke-dasharray:2.0,2.0;" x1="49" x2="472.5" y1="271.3594" y2="271.3594"/><text fill="#FFFFFF" font-family="sans-serif" font-size="13" lengthAdjust="spacing" textLength="192" x="61" y="266.2935">"There is something going on"</text><!--SRC=[VP2_3e9038TtdgAvnKLUm4471nsDVy9yGiCrWPRSbHZUtaD4CH2N6tfVlr_Rndgbd1hB2cSCL21hako5rKjrOr98qorSa8Fu01im1wfhXCAgDSbOxf5fIyIk3Zr29osKOcQ-anF67ijUc1tGdKc6ZmNVCN8B7gaensyU1GXIursA3eX17OAJDiJEDxbWpeRylAs9op-ZNZxYyEDUGpEuOrqOI5S17hQRxZ8UTZQekfWPBzI_mkO9]--></g></svg>