<?xml version="1.0" encoding="us-ascii" standalone="no"?><svg xmlns="http://www.w3.org/2000/svg" xmlns:xlink="http://www.w3.org/1999/xlink" contentStyleType="text/css" height="279px" preserveAspectRatio="none" style="width:702px;height:279px;background:#1B1B1B;" version="1.1" viewBox="0 0 702 279" width="702px" zoomAndPan="magnify"><defs/><g><rect fill="#1B1B1B" height="279" style="stroke:none;stroke-width:1.0;" width="702" x="0" y="0"/><rect fill="#000000" height="51.1328" style="stroke:#E7E7E7;stroke-width:1.0;" width="10" x="628" y="183.9609"/><line style="stroke:#E7E7E7;stroke-width:0.5;stroke-dasharray:5.0,5.0;" x1="44" x2="44" y1="36.2969" y2="244.0938"/><line style="stroke:#E7E7E7;stroke-width:0.5;stroke-dasharray:5.0,5.0;" x1="234.5" x2="234.5" y1="36.2969" y2="244.0938"/><line style="stroke:#E7E7E7;stroke-width:0.5;stroke-dasharray:5.0,5.0;" x1="398.5" x2="398.5" y1="36.2969" y2="244.0938"/><line style="stroke:#E7E7E7;stroke-width:0.5;stroke-dasharray:5.0,5.0;" x1="571" x2="571" y1="36.2969" y2="244.0938"/><line style="stroke:#E7E7E7;stroke-width:0.5;stroke-dasharray:5.0,5.0;" x1="633" x2="633" y1="36.2969" y2="244.0938"/><rect fill="#222222" height="30.2969" rx="2.5" ry="2.5" style="stroke:#E7E7E7;stroke-width:0.5;" width="78" x="5" y="5"/><text fill="#FFFFFF" font-family="sans-serif" font-size="14" lengthAdjust="spacing" textLength="64" x="12" y="24.9951">Resident</text><rect fill="#222222" height="30.2969" rx="2.5" ry="2.5" style="stroke:#E7E7E7;stroke-width:0.5;" width="78" x="5" y="243.0938"/><text fill="#FFFFFF" font-family="sans-serif" font-size="14" lengthAdjust="spacing" textLength="64" x="12" y="263.0889">Resident</text><rect fill="#222222" height="30.2969" rx="2.5" ry="2.5" style="stroke:#E7E7E7;stroke-width:0.5;" width="59" x="205.5" y="5"/><text fill="#FFFFFF" font-family="sans-serif" font-size="14" lengthAdjust="spacing" textLength="45" x="212.5" y="24.9951">Phone</text><rect fill="#222222" height="30.2969" rx="2.5" ry="2.5" style="stroke:#E7E7E7;stroke-width:0.5;" width="59" x="205.5" y="243.0938"/><text fill="#FFFFFF" font-family="sans-serif" font-size="14" lengthAdjust="spacing" textLength="45" x="212.5" y="263.0889">Phone</text><rect fill="#222222" height="30.2969" rx="2.5" ry="2.5" style="stroke:#E7E7E7;stroke-width:0.5;" width="97" x="350.5" y="5"/><text fill="#FFFFFF" font-family="sans-serif" font-size="14" lengthAdjust="spacing" textLength="83" x="357.5" y="24.9951">ControlUnit</text><rect fill="#222222" height="30.2969" rx="2.5" ry="2.5" style="stroke:#E7E7E7;stroke-width:0.5;" width="97" x="350.5" y="243.0938"/><text fill="#FFFFFF" font-family="sans-serif" font-size="14" lengthAdjust="spacing" textLength="83" x="357.5" y="263.0889">ControlUnit</text><rect fill="#222222" height="30.2969" rx="2.5" ry="2.5" style="stroke:#E7E7E7;stroke-width:0.5;" width="70" x="536" y="5"/><text fill="#FFFFFF" font-family="sans-serif" font-size="14" lengthAdjust="spacing" textLength="56" x="543" y="24.9951">Sensors</text><rect fill="#222222" height="30.2969" rx="2.5" ry="2.5" style="stroke:#E7E7E7;stroke-width:0.5;" width="70" x="536" y="243.0938"/><text fill="#FFFFFF" font-family="sans-serif" font-size="14" lengthAdjust="spacing" textLength="56" x="543" y="263.0889">Sensors</text><rect fill="#222222" height="30.2969" rx="2.5" ry="2.5" style="stroke:#E7E7E7;stroke-width:0.5;" width="34" x="616" y="5"/><text fill="#FFFFFF" font-family="sans-serif" font-size="14" lengthAdjust="spacing" textLength="20" x="623" y="24.9951">AC</text><rect fill="#222222" height="30.2969" rx="2.5" ry="2.5" style="stroke:#E7E7E7;stroke-width:0.5;" width="34" x="616" y="243.0938"/><text fill="#FFFFFF" font-family="sans-serif" font-size="14" lengthAdjust="spacing" textLength="20" x="623" y="263.0889">AC</text><rect fill="#000000" height="51.1328" style="stroke:#E7E7E7;stroke-width:1.0;" width="10" x="628" y="183.9609"/><polygon fill="#E7E7E7" points="223,63.4297,233,67.4297,223,71.4297,227,67.4297" style="stroke:#E7E7E7;stroke-width:1.0;"/><line style="stroke:#E7E7E7;stroke-width:1.0;stroke-dasharray:2.0,2.0;" x1="44" x2="229" y1="67.4297" y2="67.4297"/><text fill="#FFFFFF" font-family="sans-serif" font-size="13" lengthAdjust="spacing" textLength="167" x="51" y="62.3638">"Set desired temperature"</text><polygon fill="#E7E7E7" points="387,92.5625,397,96.5625,387,100.5625,391,96.5625" style="stroke:#E7E7E7;stroke-width:1.0;"/><line style="stroke:#E7E7E7;stroke-width:1.0;stroke-dasharray:2.0,2.0;" x1="235" x2="393" y1="96.5625" y2="96.5625"/><text fill="#FFFFFF" font-family="sans-serif" font-size="13" lengthAdjust="spacing" textLength="140" x="242" y="91.4966">"Deliver temperature"</text><polygon fill="#E7E7E7" points="559,121.6953,569,125.6953,559,129.6953,563,125.6953" style="stroke:#E7E7E7;stroke-width:1.0;"/><line style="stroke:#E7E7E7;stroke-width:1.0;stroke-dasharray:2.0,2.0;" x1="399" x2="565" y1="125.6953" y2="125.6953"/><text fill="#FFFFFF" font-family="sans-serif" font-size="13" lengthAdjust="spacing" textLength="148" x="406" y="120.6294">"Request temperature"</text><polygon fill="#E7E7E7" points="410,150.8281,400,154.8281,410,158.8281,406,154.8281" style="stroke:#E7E7E7;stroke-width:1.0;"/><line style="stroke:#E7E7E7;stroke-width:1.0;stroke-dasharray:2.0,2.0;" x1="404" x2="570" y1="154.8281" y2="154.8281"/><text fill="#FFFFFF" font-family="sans-serif" font-size="13" lengthAdjust="spacing" textLength="143" x="416" y="149.7622">"Current temperature"</text><polygon fill="#E7E7E7" points="616,179.9609,626,183.9609,616,187.9609,620,183.9609" style="stroke:#E7E7E7;stroke-width:1.0;"/><line style="stroke:#E7E7E7;stroke-width:1.0;stroke-dasharray:2.0,2.0;" x1="399" x2="622" y1="183.9609" y2="183.9609"/><text fill="#FFFFFF" font-family="sans-serif" font-size="13" lengthAdjust="spacing" textLength="141" x="406" y="178.895">"Update temperature"</text><line style="stroke:#E7E7E7;stroke-width:1.0;stroke-dasharray:2.0,2.0;" x1="638" x2="680" y1="213.0938" y2="213.0938"/><line style="stroke:#E7E7E7;stroke-width:1.0;stroke-dasharray:2.0,2.0;" x1="680" x2="680" y1="213.0938" y2="226.0938"/><line style="stroke:#E7E7E7;stroke-width:1.0;stroke-dasharray:2.0,2.0;" x1="639" x2="680" y1="226.0938" y2="226.0938"/><polygon fill="#E7E7E7" points="649,222.0938,639,226.0938,649,230.0938,645,226.0938" style="stroke:#E7E7E7;stroke-width:1.0;"/><text fill="#FFFFFF" font-family="sans-serif" font-size="13" lengthAdjust="spacing" textLength="50" x="645" y="208.0278">"WORK"</text><!--SRC=[VSx12i8m30RWUvyYxBuNy22CUlEWR0pFPVt1mcnhckxvNP2X0_4Mydz_I7OiOGhPHQ4U9NX4CMQRg6sFTBsd23fGCq38hmd3a-2HmKugep5leTQcA9pcCGRHnWbpMC1x_MsqCo2Mn4LzZsT5aRtVyX_tRMNMD__UxwpICNids4itILXqsrcpgW- -NVfpym80]--></g></svg>