<?xml version="1.0" encoding="us-ascii" standalone="no"?><svg xmlns="http://www.w3.org/2000/svg" xmlns:xlink="http://www.w3.org/1999/xlink" contentStyleType="text/css" height="321px" preserveAspectRatio="none" style="width:573px;height:321px;background:#1B1B1B;" version="1.1" viewBox="0 0 573 321" width="573px" zoomAndPan="magnify"><defs/><g><rect fill="#1B1B1B" height="321" style="stroke:none;stroke-width:1.0;" width="573" x="0" y="0"/><rect fill="#000000" height="105.3984" style="stroke:#E7E7E7;stroke-width:1.0;" width="10" x="359" y="133.6953"/><rect fill="#000000" height="71.2656" style="stroke:#E7E7E7;stroke-width:1.0;" width="10" x="507" y="167.8281"/><line style="stroke:#E7E7E7;stroke-width:0.5;stroke-dasharray:5.0,5.0;" x1="44" x2="44" y1="36.2969" y2="286.2266"/><line style="stroke:#E7E7E7;stroke-width:0.5;stroke-dasharray:5.0,5.0;" x1="182.5" x2="182.5" y1="36.2969" y2="286.2266"/><line style="stroke:#E7E7E7;stroke-width:0.5;stroke-dasharray:5.0,5.0;" x1="363.5" x2="363.5" y1="36.2969" y2="286.2266"/><line style="stroke:#E7E7E7;stroke-width:0.5;stroke-dasharray:5.0,5.0;" x1="511.5" x2="511.5" y1="36.2969" y2="286.2266"/><rect fill="#222222" height="30.2969" rx="2.5" ry="2.5" style="stroke:#E7E7E7;stroke-width:0.5;" width="78" x="5" y="5"/><text fill="#FFFFFF" font-family="sans-serif" font-size="14" lengthAdjust="spacing" textLength="64" x="12" y="24.9951">Resident</text><rect fill="#222222" height="30.2969" rx="2.5" ry="2.5" style="stroke:#E7E7E7;stroke-width:0.5;" width="78" x="5" y="285.2266"/><text fill="#FFFFFF" font-family="sans-serif" font-size="14" lengthAdjust="spacing" textLength="64" x="12" y="305.2217">Resident</text><rect fill="#222222" height="30.2969" rx="2.5" ry="2.5" style="stroke:#E7E7E7;stroke-width:0.5;" width="59" x="153.5" y="5"/><text fill="#FFFFFF" font-family="sans-serif" font-size="14" lengthAdjust="spacing" textLength="45" x="160.5" y="24.9951">Phone</text><rect fill="#222222" height="30.2969" rx="2.5" ry="2.5" style="stroke:#E7E7E7;stroke-width:0.5;" width="59" x="153.5" y="285.2266"/><text fill="#FFFFFF" font-family="sans-serif" font-size="14" lengthAdjust="spacing" textLength="45" x="160.5" y="305.2217">Phone</text><rect fill="#222222" height="30.2969" rx="2.5" ry="2.5" style="stroke:#E7E7E7;stroke-width:0.5;" width="97" x="315.5" y="5"/><text fill="#FFFFFF" font-family="sans-serif" font-size="14" lengthAdjust="spacing" textLength="83" x="322.5" y="24.9951">ControlUnit</text><rect fill="#222222" height="30.2969" rx="2.5" ry="2.5" style="stroke:#E7E7E7;stroke-width:0.5;" width="97" x="315.5" y="285.2266"/><text fill="#FFFFFF" font-family="sans-serif" font-size="14" lengthAdjust="spacing" textLength="83" x="322.5" y="305.2217">ControlUnit</text><rect fill="#222222" height="30.2969" rx="2.5" ry="2.5" style="stroke:#E7E7E7;stroke-width:0.5;" width="65" x="479.5" y="5"/><text fill="#FFFFFF" font-family="sans-serif" font-size="14" lengthAdjust="spacing" textLength="51" x="486.5" y="24.9951">Brewer</text><rect fill="#222222" height="30.2969" rx="2.5" ry="2.5" style="stroke:#E7E7E7;stroke-width:0.5;" width="65" x="479.5" y="285.2266"/><text fill="#FFFFFF" font-family="sans-serif" font-size="14" lengthAdjust="spacing" textLength="51" x="486.5" y="305.2217">Brewer</text><rect fill="#000000" height="105.3984" style="stroke:#E7E7E7;stroke-width:1.0;" width="10" x="359" y="133.6953"/><rect fill="#000000" height="71.2656" style="stroke:#E7E7E7;stroke-width:1.0;" width="10" x="507" y="167.8281"/><polygon fill="#E7E7E7" points="171,63.4297,181,67.4297,171,71.4297,175,67.4297" style="stroke:#E7E7E7;stroke-width:1.0;"/><line style="stroke:#E7E7E7;stroke-width:1.0;stroke-dasharray:2.0,2.0;" x1="44" x2="177" y1="67.4297" y2="67.4297"/><text fill="#FFFFFF" font-family="sans-serif" font-size="13" lengthAdjust="spacing" textLength="115" x="51" y="62.3638">"Set desired time"</text><polygon fill="#E7E7E7" points="352,92.5625,362,96.5625,352,100.5625,356,96.5625" style="stroke:#E7E7E7;stroke-width:1.0;"/><line style="stroke:#E7E7E7;stroke-width:1.0;stroke-dasharray:2.0,2.0;" x1="183" x2="358" y1="96.5625" y2="96.5625"/><text fill="#FFFFFF" font-family="sans-serif" font-size="13" lengthAdjust="spacing" textLength="84" x="190" y="91.4966">"Create task"</text><line style="stroke:#E7E7E7;stroke-width:1.0;stroke-dasharray:2.0,2.0;" x1="364" x2="411" y1="120.6953" y2="120.6953"/><line style="stroke:#E7E7E7;stroke-width:1.0;stroke-dasharray:2.0,2.0;" x1="411" x2="411" y1="120.6953" y2="133.6953"/><line style="stroke:#E7E7E7;stroke-width:1.0;stroke-dasharray:2.0,2.0;" x1="370" x2="411" y1="133.6953" y2="133.6953"/><polygon fill="#E7E7E7" points="380,129.6953,370,133.6953,380,137.6953,376,133.6953" style="stroke:#E7E7E7;stroke-width:1.0;"/><text fill="#FFFFFF" font-family="sans-serif" font-size="13" lengthAdjust="spacing" textLength="134" x="376" y="115.6294">"The time has come"</text><polygon fill="#E7E7E7" points="495,163.8281,505,167.8281,495,171.8281,499,167.8281" style="stroke:#E7E7E7;stroke-width:1.0;"/><line style="stroke:#E7E7E7;stroke-width:1.0;stroke-dasharray:2.0,2.0;" x1="369" x2="501" y1="167.8281" y2="167.8281"/><text fill="#FFFFFF" font-family="sans-serif" font-size="13" lengthAdjust="spacing" textLength="78" x="376" y="162.7622">"Do the tea"</text><line style="stroke:#E7E7E7;stroke-width:1.0;stroke-dasharray:2.0,2.0;" x1="517" x2="559" y1="196.9609" y2="196.9609"/><line style="stroke:#E7E7E7;stroke-width:1.0;stroke-dasharray:2.0,2.0;" x1="559" x2="559" y1="196.9609" y2="209.9609"/><line style="stroke:#E7E7E7;stroke-width:1.0;stroke-dasharray:2.0,2.0;" x1="518" x2="559" y1="209.9609" y2="209.9609"/><polygon fill="#E7E7E7" points="528,205.9609,518,209.9609,528,213.9609,524,209.9609" style="stroke:#E7E7E7;stroke-width:1.0;"/><text fill="#FFFFFF" font-family="sans-serif" font-size="13" lengthAdjust="spacing" textLength="42" x="524" y="191.895">"Brew"</text><polygon fill="#E7E7E7" points="375,235.0938,365,239.0938,375,243.0938,371,239.0938" style="stroke:#E7E7E7;stroke-width:1.0;"/><line style="stroke:#E7E7E7;stroke-width:1.0;stroke-dasharray:2.0,2.0;" x1="369" x2="511" y1="239.0938" y2="239.0938"/><text fill="#FFFFFF" font-family="sans-serif" font-size="13" lengthAdjust="spacing" textLength="70" x="381" y="234.0278">"Tea done"</text><polygon fill="#E7E7E7" points="55,264.2266,45,268.2266,55,272.2266,51,268.2266" style="stroke:#E7E7E7;stroke-width:1.0;"/><line style="stroke:#E7E7E7;stroke-width:1.0;stroke-dasharray:2.0,2.0;" x1="49" x2="363" y1="268.2266" y2="268.2266"/><text fill="#FFFFFF" font-family="sans-serif" font-size="13" lengthAdjust="spacing" textLength="296" x="61" y="263.1606">"The tea has been completed, your highness."</text><!--SRC=[VP1D3i8W48Ntd6B2sde05owi1p3-703BYn0L6XWrtjwEjGQhSJVXVVDb7gr9x1lVci2qHlOMWPKQ9gggEQrS3A0PwGsOR9SaM69_XbPz950T0wTusWNFWjO9Xa5iyb6hCll1RXsUEd8cKnF5QnhsLn4Kw9TcaN134iCo4ei4fbZjO_MYFXTaqcKqFWc6R5TDAukni7ZvTztx2uU6dL8Axe4WBTiJ67P2ztX9vFp11UGyrGy0]--></g></svg>