<?xml version="1.0" encoding="us-ascii" standalone="no"?><svg xmlns="http://www.w3.org/2000/svg" xmlns:xlink="http://www.w3.org/1999/xlink" contentStyleType="text/css" height="321px" preserveAspectRatio="none" style="width:593px;height:321px;background:#1B1B1B;" version="1.1" viewBox="0 0 593 321" width="593px" zoomAndPan="magnify"><defs/><g><rect fill="#1B1B1B" height="321" style="stroke:none;stroke-width:1.0;" width="593" x="0" y="0"/><rect fill="#000000" height="105.3984" style="stroke:#E7E7E7;stroke-width:1.0;" width="10" x="379" y="133.6953"/><rect fill="#000000" height="71.2656" style="stroke:#E7E7E7;stroke-width:1.0;" width="10" x="527" y="167.8281"/><line style="stroke:#E7E7E7;stroke-width:0.5;stroke-dasharray:5.0,5.0;" x1="44" x2="44" y1="36.2969" y2="286.2266"/><line style="stroke:#E7E7E7;stroke-width:0.5;stroke-dasharray:5.0,5.0;" x1="182.5" x2="182.5" y1="36.2969" y2="286.2266"/><line style="stroke:#E7E7E7;stroke-width:0.5;stroke-dasharray:5.0,5.0;" x1="383.5" x2="383.5" y1="36.2969" y2="286.2266"/><line style="stroke:#E7E7E7;stroke-width:0.5;stroke-dasharray:5.0,5.0;" x1="531.5" x2="531.5" y1="36.2969" y2="286.2266"/><rect fill="#222222" height="30.2969" rx="2.5" ry="2.5" style="stroke:#E7E7E7;stroke-width:0.5;" width="78" x="5" y="5"/><text fill="#FFFFFF" font-family="sans-serif" font-size="14" lengthAdjust="spacing" textLength="64" x="12" y="24.9951">Resident</text><rect fill="#222222" height="30.2969" rx="2.5" ry="2.5" style="stroke:#E7E7E7;stroke-width:0.5;" width="78" x="5" y="285.2266"/><text fill="#FFFFFF" font-family="sans-serif" font-size="14" lengthAdjust="spacing" textLength="64" x="12" y="305.2217">Resident</text><rect fill="#222222" height="30.2969" rx="2.5" ry="2.5" style="stroke:#E7E7E7;stroke-width:0.5;" width="59" x="153.5" y="5"/><text fill="#FFFFFF" font-family="sans-serif" font-size="14" lengthAdjust="spacing" textLength="45" x="160.5" y="24.9951">Phone</text><rect fill="#222222" height="30.2969" rx="2.5" ry="2.5" style="stroke:#E7E7E7;stroke-width:0.5;" width="59" x="153.5" y="285.2266"/><text fill="#FFFFFF" font-family="sans-serif" font-size="14" lengthAdjust="spacing" textLength="45" x="160.5" y="305.2217">Phone</text><rect fill="#222222" height="30.2969" rx="2.5" ry="2.5" style="stroke:#E7E7E7;stroke-width:0.5;" width="97" x="335.5" y="5"/><text fill="#FFFFFF" font-family="sans-serif" font-size="14" lengthAdjust="spacing" textLength="83" x="342.5" y="24.9951">ControlUnit</text><rect fill="#222222" height="30.2969" rx="2.5" ry="2.5" style="stroke:#E7E7E7;stroke-width:0.5;" width="97" x="335.5" y="285.2266"/><text fill="#FFFFFF" font-family="sans-serif" font-size="14" lengthAdjust="spacing" textLength="83" x="342.5" y="305.2217">ControlUnit</text><rect fill="#222222" height="30.2969" rx="2.5" ry="2.5" style="stroke:#E7E7E7;stroke-width:0.5;" width="65" x="499.5" y="5"/><text fill="#FFFFFF" font-family="sans-serif" font-size="14" lengthAdjust="spacing" textLength="51" x="506.5" y="24.9951">Brewer</text><rect fill="#222222" height="30.2969" rx="2.5" ry="2.5" style="stroke:#E7E7E7;stroke-width:0.5;" width="65" x="499.5" y="285.2266"/><text fill="#FFFFFF" font-family="sans-serif" font-size="14" lengthAdjust="spacing" textLength="51" x="506.5" y="305.2217">Brewer</text><rect fill="#000000" height="105.3984" style="stroke:#E7E7E7;stroke-width:1.0;" width="10" x="379" y="133.6953"/><rect fill="#000000" height="71.2656" style="stroke:#E7E7E7;stroke-width:1.0;" width="10" x="527" y="167.8281"/><polygon fill="#E7E7E7" points="171,63.4297,181,67.4297,171,71.4297,175,67.4297" style="stroke:#E7E7E7;stroke-width:1.0;"/><line style="stroke:#E7E7E7;stroke-width:1.0;stroke-dasharray:2.0,2.0;" x1="44" x2="177" y1="67.4297" y2="67.4297"/><text fill="#FFFFFF" font-family="sans-serif" font-size="13" lengthAdjust="spacing" textLength="115" x="51" y="62.3638">"Set desired time"</text><polygon fill="#E7E7E7" points="372,92.5625,382,96.5625,372,100.5625,376,96.5625" style="stroke:#E7E7E7;stroke-width:1.0;"/><line style="stroke:#E7E7E7;stroke-width:1.0;stroke-dasharray:2.0,2.0;" x1="183" x2="378" y1="96.5625" y2="96.5625"/><text fill="#FFFFFF" font-family="sans-serif" font-size="13" lengthAdjust="spacing" textLength="84" x="190" y="91.4966">"Create task"</text><line style="stroke:#E7E7E7;stroke-width:1.0;stroke-dasharray:2.0,2.0;" x1="384" x2="431" y1="120.6953" y2="120.6953"/><line style="stroke:#E7E7E7;stroke-width:1.0;stroke-dasharray:2.0,2.0;" x1="431" x2="431" y1="120.6953" y2="133.6953"/><line style="stroke:#E7E7E7;stroke-width:1.0;stroke-dasharray:2.0,2.0;" x1="390" x2="431" y1="133.6953" y2="133.6953"/><polygon fill="#E7E7E7" points="400,129.6953,390,133.6953,400,137.6953,396,133.6953" style="stroke:#E7E7E7;stroke-width:1.0;"/><text fill="#FFFFFF" font-family="sans-serif" font-size="13" lengthAdjust="spacing" textLength="134" x="396" y="115.6294">"The time has come"</text><polygon fill="#E7E7E7" points="515,163.8281,525,167.8281,515,171.8281,519,167.8281" style="stroke:#E7E7E7;stroke-width:1.0;"/><line style="stroke:#E7E7E7;stroke-width:1.0;stroke-dasharray:2.0,2.0;" x1="389" x2="521" y1="167.8281" y2="167.8281"/><text fill="#FFFFFF" font-family="sans-serif" font-size="13" lengthAdjust="spacing" textLength="98" x="396" y="162.7622">"Do the coffee"</text><line style="stroke:#E7E7E7;stroke-width:1.0;stroke-dasharray:2.0,2.0;" x1="537" x2="579" y1="196.9609" y2="196.9609"/><line style="stroke:#E7E7E7;stroke-width:1.0;stroke-dasharray:2.0,2.0;" x1="579" x2="579" y1="196.9609" y2="209.9609"/><line style="stroke:#E7E7E7;stroke-width:1.0;stroke-dasharray:2.0,2.0;" x1="538" x2="579" y1="209.9609" y2="209.9609"/><polygon fill="#E7E7E7" points="548,205.9609,538,209.9609,548,213.9609,544,209.9609" style="stroke:#E7E7E7;stroke-width:1.0;"/><text fill="#FFFFFF" font-family="sans-serif" font-size="13" lengthAdjust="spacing" textLength="42" x="544" y="191.895">"Brew"</text><polygon fill="#E7E7E7" points="395,235.0938,385,239.0938,395,243.0938,391,239.0938" style="stroke:#E7E7E7;stroke-width:1.0;"/><line style="stroke:#E7E7E7;stroke-width:1.0;stroke-dasharray:2.0,2.0;" x1="389" x2="531" y1="239.0938" y2="239.0938"/><text fill="#FFFFFF" font-family="sans-serif" font-size="13" lengthAdjust="spacing" textLength="89" x="401" y="234.0278">"Coffee done"</text><polygon fill="#E7E7E7" points="55,264.2266,45,268.2266,55,272.2266,51,268.2266" style="stroke:#E7E7E7;stroke-width:1.0;"/><line style="stroke:#E7E7E7;stroke-width:1.0;stroke-dasharray:2.0,2.0;" x1="49" x2="383" y1="268.2266" y2="268.2266"/><text fill="#FFFFFF" font-family="sans-serif" font-size="13" lengthAdjust="spacing" textLength="316" x="61" y="263.1606">"The coffee has been completed, your highness."</text><!--SRC=[VP1D3i8W48Ntd6B2sde05owi1p3-703Bgn0hD31glBsbhGQhSJVXVVDb7gqAR2lRAiUqHRGQZeLuJLGKIzeOxq0BaZimwIu9qCJs0Yc6A46bTnnySt2M4re6A0QnYcSfykm7kpVeTMHKfCedhwhOtf8WGxyqgu0xGZAiFN4dgNnT8zyU2362dpjfadaqRT3BI7S5fT2OEhENVpU-FtBiEPpODpq2BjLj6p3qZ1x-6iZOat68SIwV]--></g></svg>