<?xml version="1.0" encoding="us-ascii" standalone="no"?><svg xmlns="http://www.w3.org/2000/svg" xmlns:xlink="http://www.w3.org/1999/xlink" contentStyleType="text/css" height="351px" preserveAspectRatio="none" style="width:961px;height:351px;background:#1B1B1B;" version="1.1" viewBox="0 0 961 351" width="961px" zoomAndPan="magnify"><defs/><g><rect fill="#1B1B1B" height="351" style="stroke:none;stroke-width:1.0;" width="961" x="0" y="0"/><text fill="#FFFFFF" font-family="sans-serif" font-size="14" font-weight="bold" lengthAdjust="spacing" textLength="242" x="352.5" y="22.9951">Smart Home Context Diagram</text><!--entity U--><g id="elem_U"><ellipse cx="455.5" cy="51.2969" fill="#313139" rx="8" ry="8" style="stroke:#E7E7E7;stroke-width:0.5;"/><path d="M455.5,59.2969 L455.5,86.2969 M442.5,67.2969 L468.5,67.2969 M455.5,86.2969 L442.5,101.2969 M455.5,86.2969 L468.5,101.2969 " fill="none" style="stroke:#E7E7E7;stroke-width:0.5;"/><text fill="#FFFFFF" font-family="sans-serif" font-size="14" lengthAdjust="spacing" textLength="31" x="440" y="115.792">User</text></g><!--entity sys--><g id="elem_sys"><rect fill="#313139" height="36.2969" rx="2.5" ry="2.5" style="stroke:#E7E7E7;stroke-width:0.5;" width="168" x="486.5" y="195.7969"/><text fill="#FFFFFF" font-family="sans-serif" font-size="14" lengthAdjust="spacing" textLength="148" x="496.5" y="218.792">Smart Home System</text></g><!--entity msen--><g id="elem_msen"><rect fill="#313139" height="36.2969" rx="2.5" ry="2.5" style="stroke:#E7E7E7;stroke-width:0.5;" width="128" x="506.5" y="62.7969"/><text fill="#FFFFFF" font-family="sans-serif" font-size="14" lengthAdjust="spacing" textLength="108" x="516.5" y="85.792">Motion sensors</text></g><!--entity light--><g id="elem_light"><rect fill="#313139" height="36.2969" rx="2.5" ry="2.5" style="stroke:#E7E7E7;stroke-width:0.5;" width="123" x="7" y="308.7969"/><text fill="#FFFFFF" font-family="sans-serif" font-size="14" lengthAdjust="spacing" textLength="103" x="17" y="331.792">Light switches</text></g><!--entity tsen--><g id="elem_tsen"><rect fill="#313139" height="36.2969" rx="2.5" ry="2.5" style="stroke:#E7E7E7;stroke-width:0.5;" width="164" x="669.5" y="62.7969"/><text fill="#FFFFFF" font-family="sans-serif" font-size="14" lengthAdjust="spacing" textLength="144" x="679.5" y="85.792">Temprature sensors</text></g><!--entity alarm--><g id="elem_alarm"><rect fill="#313139" height="36.2969" rx="2.5" ry="2.5" style="stroke:#E7E7E7;stroke-width:0.5;" width="123" x="165" y="308.7969"/><text fill="#FFFFFF" font-family="sans-serif" font-size="14" lengthAdjust="spacing" textLength="103" x="175" y="331.792">Security alarm</text></g><!--entity appli--><g id="elem_appli"><rect fill="#313139" height="36.2969" rx="2.5" ry="2.5" style="stroke:#E7E7E7;stroke-width:0.5;" width="145" x="323" y="308.7969"/><text fill="#FFFFFF" font-family="sans-serif" font-size="14" lengthAdjust="spacing" textLength="125" x="333" y="331.792">Smart appliances</text></g><!--entity condi--><g id="elem_condi"><rect fill="#313139" height="36.2969" rx="2.5" ry="2.5" style="stroke:#E7E7E7;stroke-width:0.5;" width="134" x="503.5" y="308.7969"/><text fill="#FFFFFF" font-family="sans-serif" font-size="14" lengthAdjust="spacing" textLength="114" x="513.5" y="331.792">Air conditioners</text></g><!--entity food--><g id="elem_food"><rect fill="#313139" height="36.2969" rx="2.5" ry="2.5" style="stroke:#E7E7E7;stroke-width:0.5;" width="186" x="672.5" y="308.7969"/><text fill="#FFFFFF" font-family="sans-serif" font-size="14" lengthAdjust="spacing" textLength="166" x="682.5" y="331.792">Food delivery company</text></g><!--entity lock--><g id="elem_lock"><rect fill="#313139" height="36.2969" rx="2.5" ry="2.5" style="stroke:#E7E7E7;stroke-width:0.5;" width="61" x="894" y="308.7969"/><text fill="#FFFFFF" font-family="sans-serif" font-size="14" lengthAdjust="spacing" textLength="41" x="904" y="331.792">Locks</text></g><!--link sys to condi--><g id="link_sys_condi"><path d="M570.5,232.1409 C570.5,251.3646 570.5,282.4265 570.5,303.4575 " fill="none" id="sys-to-condi" style="stroke:#E7E7E7;stroke-width:1.0;"/><polygon fill="#E7E7E7" points="570.5,308.5749,574.5,299.5749,570.5,303.5749,566.5,299.5749,570.5,308.5749" style="stroke:#E7E7E7;stroke-width:1.0;"/><text fill="#FFFFFF" font-family="sans-serif" font-size="13" lengthAdjust="spacing" textLength="51" x="571.5" y="274.8638">controls</text></g><!--link sys to appli--><g id="link_sys_appli"><path d="M543.54,231.8969 C512.067,251.8601 460.098,284.8231 426.852,305.9107 " fill="none" id="sys-to-appli" style="stroke:#E7E7E7;stroke-width:1.0;"/><polygon fill="#E7E7E7" points="422.491,308.677,432.2335,307.2334,426.7131,305.9985,427.948,300.4781,422.491,308.677" style="stroke:#E7E7E7;stroke-width:1.0;"/><text fill="#FFFFFF" font-family="sans-serif" font-size="13" lengthAdjust="spacing" textLength="51" x="494.5" y="274.8638">controls</text></g><!--link U to sys--><g id="link_U_sys"><path d="M471.015,111.1429 C480.78,128.1229 494.373,149.3239 509.5,165.7969 C518.521,175.6199 529.774,184.9249 540.15,192.6229 " fill="none" id="U-to-sys" style="stroke:#E7E7E7;stroke-width:1.0;"/><polygon fill="#E7E7E7" points="544.228,195.6009,539.3178,187.0633,540.1898,192.6525,534.6005,193.5245,544.228,195.6009" style="stroke:#E7E7E7;stroke-width:1.0;"/><text fill="#FFFFFF" font-family="sans-serif" font-size="13" lengthAdjust="spacing" textLength="51" x="510.5" y="161.8638">controls</text></g><!--link sys to light--><g id="link_sys_light"><path d="M486.469,227.2769 C432.975,235.7499 362.362,247.9142 300.5,261.7969 C241.891,274.9497 175.944,293.5131 129.384,307.2624 " fill="none" id="sys-to-light" style="stroke:#E7E7E7;stroke-width:1.0;"/><polygon fill="#E7E7E7" points="124.373,308.7457,134.138,310.0278,129.1675,307.3271,131.8683,302.3566,124.373,308.7457" style="stroke:#E7E7E7;stroke-width:1.0;"/><text fill="#FFFFFF" font-family="sans-serif" font-size="13" lengthAdjust="spacing" textLength="51" x="301.5" y="274.8638">controls</text></g><!--link sys to lock--><g id="link_sys_lock"><path d="M654.65,224.7589 C701.253,231.8969 759.665,243.5489 809.5,261.7969 C840.074,272.9923 872.243,291.5544 894.758,305.8131 " fill="none" id="sys-to-lock" style="stroke:#E7E7E7;stroke-width:1.0;"/><polygon fill="#E7E7E7" points="899.129,308.604,893.6969,300.3886,894.9151,305.9128,889.3909,307.1309,899.129,308.604" style="stroke:#E7E7E7;stroke-width:1.0;"/><text fill="#FFFFFF" font-family="sans-serif" font-size="13" lengthAdjust="spacing" textLength="51" x="847.5" y="274.8638">controls</text></g><!--link msen to sys--><g id="link_msen_sys"><path d="M570.5,98.9229 C570.5,122.3619 570.5,164.4729 570.5,190.3939 " fill="none" id="msen-to-sys" style="stroke:#E7E7E7;stroke-width:1.0;"/><polygon fill="#E7E7E7" points="570.5,195.6669,574.5,186.6669,570.5,190.6669,566.5,186.6669,570.5,195.6669" style="stroke:#E7E7E7;stroke-width:1.0;"/><text fill="#FFFFFF" font-family="sans-serif" font-size="13" lengthAdjust="spacing" textLength="29" x="571.5" y="161.8638">data</text></g><!--link tsen to sys--><g id="link_tsen_sys"><path d="M727.837,98.9229 C694.504,123.0479 633.838,166.9559 598.366,192.6289 " fill="none" id="tsen-to-sys" style="stroke:#E7E7E7;stroke-width:1.0;"/><polygon fill="#E7E7E7" points="594.168,195.6669,603.804,193.6301,598.2183,192.7352,599.1133,187.1496,594.168,195.6669" style="stroke:#E7E7E7;stroke-width:1.0;"/><text fill="#FFFFFF" font-family="sans-serif" font-size="13" lengthAdjust="spacing" textLength="29" x="657.5" y="161.8638">data</text></g><!--link sys to alarm--><g id="link_sys_alarm"><path d="M511.045,231.8379 C481.351,240.5129 444.93,251.3993 412.5,261.7969 C367.373,276.2654 316.516,293.8537 279.401,306.9281 " fill="none" id="sys-to-alarm" style="stroke:#E7E7E7;stroke-width:1.0;"/><polygon fill="#E7E7E7" points="274.487,308.6612,284.305,309.4404,279.2024,306.9983,281.6444,301.8957,274.487,308.6612" style="stroke:#E7E7E7;stroke-width:1.0;"/><text fill="#FFFFFF" font-family="sans-serif" font-size="13" lengthAdjust="spacing" textLength="51" x="413.5" y="274.8638">controls</text></g><!--link sys to food--><g id="link_sys_food"><path d="M593.673,231.8779 C612.524,245.4093 640.074,264.3704 665.5,278.7969 C683.038,288.7481 703.034,298.4514 720.512,306.4327 " fill="none" id="sys-to-food" style="stroke:#E7E7E7;stroke-width:1.0;"/><polygon fill="#E7E7E7" points="725.371,308.6369,718.8275,301.276,720.8177,306.5712,715.5224,308.5613,725.371,308.6369" style="stroke:#E7E7E7;stroke-width:1.0;"/><text fill="#FFFFFF" font-family="sans-serif" font-size="13" lengthAdjust="spacing" textLength="51" x="666.5" y="274.8638">controls</text></g><!--link food to sys--><g id="link_food_sys"><path d="M758.059,308.7039 C750.924,294.226 738.826,273.9404 722.5,261.7969 C704.059,248.0799 681.548,238.3149 659.561,231.3809 " fill="none" id="food-to-sys" style="stroke:#E7E7E7;stroke-width:1.0;"/><polygon fill="#E7E7E7" points="654.583,229.8559,662.0167,236.3166,659.3637,231.3204,664.3599,228.6674,654.583,229.8559" style="stroke:#E7E7E7;stroke-width:1.0;"/><text fill="#FFFFFF" font-family="sans-serif" font-size="13" lengthAdjust="spacing" textLength="60" x="740.5" y="274.8638">materials</text></g><!--SRC=[RP5DJiGm38NtEOKr-xa02oG4GYnWLNe0ApMTYFnKjcUOtdwIj69IwAg9tvVdPrUTUe8k82kyfK3mdABILU75uSWOZ46hYQ4NOa21tXWcgnZ7_EpGlEjcKGg7miWiBVIHrAK8Gb4IIoL2lhJ8knjF2lBZr9veGNmfjSmdXObHpqmRA_rZrP4zizCPq2ClUUhfVsoS9kymshLXlRRKasEmAGwknAUrNIsqr6jA0mpatOLupdAOCCuL_ShAPiXalzVPyicOl2Ou7XyNItWeN-NavQxKI1kbh_MYx_5rP_jAxhWHoXzel0PKD4RtYhzXoXPtpSkW6w4MxZu1bTYXbni0]--></g></svg>