<?xml version="1.0" encoding="us-ascii" standalone="no"?><svg xmlns="http://www.w3.org/2000/svg" xmlns:xlink="http://www.w3.org/1999/xlink" contentStyleType="text/css" height="617px" preserveAspectRatio="none" style="width:398px;height:617px;background:#1B1B1B;" version="1.1" viewBox="0 0 398 617" width="398px" zoomAndPan="magnify"><defs/><g><rect fill="#1B1B1B" height="617" style="stroke:none;stroke-width:1.0;" width="398" x="0" y="0"/><!--cluster h--><g id="cluster_h"><path d="M142.5,6 L247.5,6 A3.75,3.75 0 0 1 250,8.5 L257,28.2969 L388.5,28.2969 A2.5,2.5 0 0 1 391,30.7969 L391,603.5 A2.5,2.5 0 0 1 388.5,606 L142.5,606 A2.5,2.5 0 0 1 140,603.5 L140,8.5 A2.5,2.5 0 0 1 142.5,6 " fill="none" style="stroke:#FFFFFF;stroke-width:1.5;"/><line style="stroke:#FFFFFF;stroke-width:1.5;" x1="140" x2="257" y1="28.2969" y2="28.2969"/><text fill="#FFFFFF" font-family="sans-serif" font-size="14" font-weight="bold" lengthAdjust="spacing" textLength="104" x="144" y="20.9951">Smart House</text></g><g id="elem_uc1"><ellipse cx="265.3844" cy="58.9769" fill="#313139" rx="75.3844" ry="17.4769" style="stroke:#E7E7E7;stroke-width:0.5;"/><text fill="#FFFFFF" font-family="sans-serif" font-size="14" lengthAdjust="spacing" textLength="107" x="208.8844" y="62.7244">Reseive coffee</text></g><g id="elem_uc2"><ellipse cx="265.3142" cy="127.7628" fill="#313139" rx="66.8142" ry="15.7628" style="stroke:#E7E7E7;stroke-width:0.5;"/><text fill="#FFFFFF" font-family="sans-serif" font-size="14" lengthAdjust="spacing" textLength="84" x="220.3142" y="131.5104">Reseive tea</text></g><g id="elem_uc3"><ellipse cx="265.4455" cy="198.1891" fill="#313139" rx="81.4455" ry="18.6891" style="stroke:#E7E7E7;stroke-width:0.5;"/><text fill="#FFFFFF" font-family="sans-serif" font-size="14" lengthAdjust="spacing" textLength="122" x="203.3109" y="201.409">Set temperature</text></g><g id="elem_uc4"><ellipse cx="265.6379" cy="271.0276" fill="#313139" rx="83.1379" ry="19.0276" style="stroke:#E7E7E7;stroke-width:0.5;"/><text fill="#FFFFFF" font-family="sans-serif" font-size="14" lengthAdjust="spacing" textLength="126" x="202.0914" y="274.0594">Set required food</text></g><g id="elem_uc5"><ellipse cx="265.5634" cy="341.9127" fill="#313139" rx="70.0634" ry="16.4127" style="stroke:#E7E7E7;stroke-width:0.5;"/><text fill="#FFFFFF" font-family="sans-serif" font-size="14" lengthAdjust="spacing" textLength="93" x="216.0634" y="345.6602">Reseive food</text></g><g id="elem_uc6"><ellipse cx="265.5935" cy="417.8187" fill="#313139" rx="109.5935" ry="24.3187" style="stroke:#E7E7E7;stroke-width:0.5;"/><text fill="#FFFFFF" font-family="sans-serif" font-size="14" lengthAdjust="spacing" textLength="185" x="173.0935" y="420.6654">Having front door opened</text></g><g id="elem_uc7"><ellipse cx="265.3822" cy="500.0764" fill="#313139" rx="100.8822" ry="22.5764" style="stroke:#E7E7E7;stroke-width:0.5;"/><text fill="#FFFFFF" font-family="sans-serif" font-size="14" lengthAdjust="spacing" textLength="166" x="182.3822" y="502.9231">Having lights controled</text></g><g id="elem_uc8"><ellipse cx="265.74" cy="574.048" fill="#313139" rx="68.24" ry="16.048" style="stroke:#E7E7E7;stroke-width:0.5;"/><text fill="#FFFFFF" font-family="sans-serif" font-size="14" lengthAdjust="spacing" textLength="88" x="218.74" y="577.7956">Deliver food</text></g><!--entity r--><g id="elem_r"><ellipse cx="51" cy="241.5" fill="#313139" rx="8" ry="8" style="stroke:#E7E7E7;stroke-width:0.5;"/><path d="M51,249.5 L51,276.5 M38,257.5 L64,257.5 M51,276.5 L38,291.5 M51,276.5 L64,291.5 " fill="none" style="stroke:#E7E7E7;stroke-width:0.5;"/><text fill="#FFFFFF" font-family="sans-serif" font-size="14" lengthAdjust="spacing" textLength="64" x="19" y="305.9951">Resident</text></g><!--entity d--><g id="elem_d"><ellipse cx="51" cy="544.5" fill="#313139" rx="8" ry="8" style="stroke:#E7E7E7;stroke-width:0.5;"/><path d="M51,552.5 L51,579.5 M38,560.5 L64,560.5 M51,579.5 L38,594.5 M51,579.5 L64,594.5 " fill="none" style="stroke:#E7E7E7;stroke-width:0.5;"/><text fill="#FFFFFF" font-family="sans-serif" font-size="14" lengthAdjust="spacing" textLength="90" x="6" y="608.9951">Delivery Guy</text></g><!--link r to uc1--><g id="link_r_uc1"><path d="M59.2126,232.693 C68.8239,192.318 89.7821,129.724 132,94 C148.31,80.199 169.482,71.773 190.097,66.65 " fill="none" id="r-to-uc1" style="stroke:#E7E7E7;stroke-width:1.0;"/><polygon fill="#E7E7E7" points="195.042,65.481,185.3628,63.661,190.1764,66.6324,187.205,71.446,195.042,65.481" style="stroke:#E7E7E7;stroke-width:1.0;"/></g><!--link r to uc2--><g id="link_r_uc2"><path d="M71.1265,232.86 C84.9347,209.088 105.7463,179.747 132,162 C151.755,148.646 176.396,140.537 199.052,135.613 " fill="none" id="r-to-uc2" style="stroke:#E7E7E7;stroke-width:1.0;"/><polygon fill="#E7E7E7" points="204.155,134.549,194.5278,132.4715,199.2604,135.5702,196.1617,140.3028,204.155,134.549" style="stroke:#E7E7E7;stroke-width:1.0;"/></g><!--link r to uc3--><g id="link_r_uc3"><path d="M83.0242,255.172 C97.6414,248.1 115.465,240.022 132,234 C154.698,225.734 180.187,218.371 202.703,212.492 " fill="none" id="r-to-uc3" style="stroke:#E7E7E7;stroke-width:1.0;"/><polygon fill="#E7E7E7" points="207.757,211.184,198.0419,209.5663,202.9165,212.4366,200.0461,217.3112,207.757,211.184" style="stroke:#E7E7E7;stroke-width:1.0;"/></g><!--link r to uc4--><g id="link_r_uc4"><path d="M83.3551,271 C108.012,271 143.618,271 176.749,271 " fill="none" id="r-to-uc4" style="stroke:#E7E7E7;stroke-width:1.0;"/><polygon fill="#E7E7E7" points="182.043,271,173.043,267,177.043,271,173.043,275,182.043,271" style="stroke:#E7E7E7;stroke-width:1.0;"/></g><!--link r to uc5--><g id="link_r_uc5"><path d="M83.0483,286.409 C97.6705,293.291 115.491,301.15 132,307 C156.81,315.792 184.922,323.521 208.848,329.465 " fill="none" id="r-to-uc5" style="stroke:#E7E7E7;stroke-width:1.0;"/><polygon fill="#E7E7E7" points="213.888,330.705,206.1059,324.6685,209.0331,329.5091,204.1925,332.4364,213.888,330.705" style="stroke:#E7E7E7;stroke-width:1.0;"/></g><!--link r to uc6--><g id="link_r_uc6"><path d="M72.8742,309.039 C86.9218,331.423 107.357,358.653 132,376 C146.34,386.094 163.215,393.841 180.03,399.761 " fill="none" id="r-to-uc6" style="stroke:#E7E7E7;stroke-width:1.0;"/><polygon fill="#E7E7E7" points="184.769,401.383,177.5482,394.6853,180.0382,399.7646,174.9588,402.2546,184.769,401.383" style="stroke:#E7E7E7;stroke-width:1.0;"/></g><!--link r to uc7--><g id="link_r_uc7"><path d="M58.2325,309.23 C67.1746,351.925 87.7303,420.24 132,460 C144.718,471.422 160.6,479.585 176.905,485.418 " fill="none" id="r-to-uc7" style="stroke:#E7E7E7;stroke-width:1.0;"/><polygon fill="#E7E7E7" points="181.975,487.155,174.7566,480.4546,177.2447,485.5349,172.1645,488.023,181.975,487.155" style="stroke:#E7E7E7;stroke-width:1.0;"/></g><!--link d to uc8--><g id="link_d_uc8"><path d="M96.0301,574 C123.84,574 160.431,574 192.404,574 " fill="none" id="d-to-uc8" style="stroke:#E7E7E7;stroke-width:1.0;"/><polygon fill="#E7E7E7" points="197.494,574,188.494,570,192.494,574,188.494,578,197.494,574" style="stroke:#E7E7E7;stroke-width:1.0;"/></g><!--SRC=[RP5DRWCX34RtFeMLVHRD_wghIiswEG42Cq6TuAanaQAgToz91vHHXzL3FFXiqvDNL4O9tLdH1I6hWIE0iSg27vI2ewXe4Wh0OEodwGWNfuiHnIFdH8lxsHc_0SigUsjI4Sf52bT2ozxJdvFjoxoZP4PXDHLEL6gZoq1YD4jzPVrV4lhAfNI7djcDscO-xCdOJesZkOROeHSk_JektVD0aQgzcxNx-znIQJEgSD_a_LH-exvaotFu0Nu019VBryTWAgqQhHjj6cqRxHhjwr_Lb1k-vziZnG6uqJhy0W00]--></g></svg>