<?xml version="1.0" encoding="us-ascii" standalone="no"?><svg xmlns="http://www.w3.org/2000/svg" xmlns:xlink="http://www.w3.org/1999/xlink" contentStyleType="text/css" height="1125px" preserveAspectRatio="none" style="width:1075px;height:1125px;background:#1B1B1B;" version="1.1" viewBox="0 0 1075 1125" width="1075px" zoomAndPan="magnify"><defs/><g><rect fill="#1B1B1B" height="1125" style="stroke:none;stroke-width:1.0;" width="1075" x="0" y="0"/><ellipse cx="997" cy="16" fill="#DDDDDD" rx="10" ry="10" style="stroke:none;stroke-width:1.0;"/><rect fill="#313139" height="33.9688" rx="12.5" ry="12.5" style="stroke:#E7E7E7;stroke-width:0.5;" width="145" x="924.5" y="67"/><text fill="#FFFFFF" font-family="sans-serif" font-size="12" lengthAdjust="spacing" textLength="125" x="934.5" y="88.1387">Get data from phone</text><g id="elem_#5"><polygon fill="#313139" points="927,142,939,154,927,166,915,154,927,142" style="stroke:#E7E7E7;stroke-width:0.5;"/></g><ellipse cx="877" cy="237" fill="none" rx="10" ry="10" style="stroke:#DDDDDD;stroke-width:1.0;"/><ellipse cx="877.5" cy="237.5" fill="#DDDDDD" rx="6" ry="6" style="stroke:none;stroke-width:1.0;"/><rect fill="#313139" height="33.9688" rx="12.5" ry="12.5" style="stroke:#E7E7E7;stroke-width:0.5;" width="37" x="907.5" y="220"/><text fill="#FFFFFF" font-family="sans-serif" font-size="12" lengthAdjust="spacing" textLength="17" x="917.5" y="241.1387">Ok</text><g id="elem_#12"><polygon fill="#313139" points="763,295,775,307,763,319,751,307,763,295" style="stroke:#E7E7E7;stroke-width:0.5;"/></g><rect fill="#313139" height="33.9688" rx="12.5" ry="12.5" style="stroke:#E7E7E7;stroke-width:0.5;" width="150" x="472" y="373"/><text fill="#FFFFFF" font-family="sans-serif" font-size="12" lengthAdjust="spacing" textLength="130" x="482" y="394.1387">Choose timed activity</text><g id="elem_#17"><polygon fill="#313139" points="404,448,416,460,404,472,392,460,404,448" style="stroke:#E7E7E7;stroke-width:0.5;"/></g><rect fill="#313139" height="33.9688" rx="12.5" ry="12.5" style="stroke:#E7E7E7;stroke-width:0.5;" width="258" x="7" y="526"/><text fill="#FFFFFF" font-family="sans-serif" font-size="12" lengthAdjust="spacing" textLength="238" x="17" y="547.1387">Send brewer command to make coffee</text><rect fill="#313139" height="33.9688" rx="12.5" ry="12.5" style="stroke:#E7E7E7;stroke-width:0.5;" width="146" x="331" y="634"/><text fill="#FFFFFF" font-family="sans-serif" font-size="12" lengthAdjust="spacing" textLength="126" x="341" y="655.1387">Receive confirmation</text><rect fill="#AAAAAA" height="8" style="stroke:none;stroke-width:1.0;" width="80" x="648" y="1111"/><rect fill="#313139" height="33.9688" rx="12.5" ry="12.5" style="stroke:#E7E7E7;stroke-width:0.5;" width="238" x="285" y="526"/><text fill="#FFFFFF" font-family="sans-serif" font-size="12" lengthAdjust="spacing" textLength="218" x="295" y="547.1387">Send brewer command to make tea</text><rect fill="#313139" height="33.9688" rx="12.5" ry="12.5" style="stroke:#E7E7E7;stroke-width:0.5;" width="148" x="689" y="373"/><text fill="#FFFFFF" font-family="sans-serif" font-size="12" lengthAdjust="spacing" textLength="128" x="699" y="394.1387">Choose basic activity</text><g id="elem_#31"><polygon fill="#313139" points="763,448,775,460,763,472,751,460,763,448" style="stroke:#E7E7E7;stroke-width:0.5;"/></g><rect fill="#313139" height="33.9688" rx="12.5" ry="12.5" style="stroke:#E7E7E7;stroke-width:0.5;" width="201" x="444.5" y="580"/><text fill="#FFFFFF" font-family="sans-serif" font-size="12" lengthAdjust="spacing" textLength="181" x="454.5" y="601.1387">Get motion data from sensors</text><rect fill="#313139" height="33.9688" rx="12.5" ry="12.5" style="stroke:#E7E7E7;stroke-width:0.5;" width="162" x="449" y="688"/><text fill="#FFFFFF" font-family="sans-serif" font-size="12" lengthAdjust="spacing" textLength="142" x="459" y="709.1387">Update turned on lights</text><rect fill="#313139" height="33.9688" rx="12.5" ry="12.5" style="stroke:#E7E7E7;stroke-width:0.5;" width="192" x="585" y="526"/><text fill="#FFFFFF" font-family="sans-serif" font-size="12" lengthAdjust="spacing" textLength="172" x="595" y="547.1387">Check required temperature</text><rect fill="#313139" height="33.9688" rx="12.5" ry="12.5" style="stroke:#E7E7E7;stroke-width:0.5;" width="167" x="582.5" y="634"/><text fill="#FFFFFF" font-family="sans-serif" font-size="12" lengthAdjust="spacing" textLength="147" x="592.5" y="655.1387">Get current temperature</text><rect fill="#313139" height="33.9688" rx="12.5" ry="12.5" style="stroke:#E7E7E7;stroke-width:0.5;" width="291" x="498.5" y="796"/><text fill="#FFFFFF" font-family="sans-serif" font-size="12" lengthAdjust="spacing" textLength="271" x="508.5" y="817.1387">Send command to AC to update temperature</text><rect fill="#313139" height="33.9688" rx="12.5" ry="12.5" style="stroke:#E7E7E7;stroke-width:0.5;" width="188" x="713" y="580"/><text fill="#FFFFFF" font-family="sans-serif" font-size="12" lengthAdjust="spacing" textLength="168" x="723" y="601.1387">Get data about current food</text><rect fill="#313139" height="33.9688" rx="12.5" ry="12.5" style="stroke:#E7E7E7;stroke-width:0.5;" width="145" x="733.5" y="688"/><text fill="#FFFFFF" font-family="sans-serif" font-size="12" lengthAdjust="spacing" textLength="125" x="743.5" y="709.1387">Check required food</text><g id="elem_#50"><polygon fill="#313139" points="764,933,776,945,764,957,752,945,764,933" style="stroke:#E7E7E7;stroke-width:0.5;"/></g><rect fill="#313139" height="33.9688" rx="12.5" ry="12.5" style="stroke:#E7E7E7;stroke-width:0.5;" width="89" x="592.5" y="1036"/><text fill="#FFFFFF" font-family="sans-serif" font-size="12" lengthAdjust="spacing" textLength="69" x="602.5" y="1057.1387">Place order</text><rect fill="#313139" height="33.9688" rx="12.5" ry="12.5" style="stroke:#E7E7E7;stroke-width:0.5;" width="125" x="701.5" y="1036"/><text fill="#FFFFFF" font-family="sans-serif" font-size="12" lengthAdjust="spacing" textLength="105" x="711.5" y="1057.1387">Keep that in mind</text><rect fill="#313139" height="33.9688" rx="12.5" ry="12.5" style="stroke:#E7E7E7;stroke-width:0.5;" width="155" x="839.5" y="526"/><text fill="#FFFFFF" font-family="sans-serif" font-size="12" lengthAdjust="spacing" textLength="135" x="849.5" y="547.1387">Check motion sensors</text><rect fill="#313139" height="33.9688" rx="12.5" ry="12.5" style="stroke:#E7E7E7;stroke-width:0.5;" width="162" x="837" y="634"/><text fill="#FFFFFF" font-family="sans-serif" font-size="12" lengthAdjust="spacing" textLength="142" x="847" y="655.1387">Check resident location</text><rect fill="#313139" height="33.9688" rx="12.5" ry="12.5" style="stroke:#E7E7E7;stroke-width:0.5;" width="159" x="838.5" y="742"/><text fill="#FFFFFF" font-family="sans-serif" font-size="12" lengthAdjust="spacing" textLength="139" x="848.5" y="763.1387">Check scheduled visits</text><g id="elem_#65"><polygon fill="#313139" points="918,850,930,862,918,874,906,862,918,850" style="stroke:#E7E7E7;stroke-width:0.5;"/></g><rect fill="#313139" height="33.9688" rx="12.5" ry="12.5" style="stroke:#E7E7E7;stroke-width:0.5;" width="82" x="859" y="928"/><text fill="#FFFFFF" font-family="sans-serif" font-size="12" lengthAdjust="spacing" textLength="62" x="869" y="949.1387">Call police</text><rect fill="#313139" height="33.9688" rx="12.5" ry="12.5" style="stroke:#E7E7E7;stroke-width:0.5;" width="107" x="846.5" y="1036"/><text fill="#FFFFFF" font-family="sans-serif" font-size="12" lengthAdjust="spacing" textLength="87" x="856.5" y="1057.1387">notify resident</text><rect fill="#313139" height="33.9688" rx="12.5" ry="12.5" style="stroke:#E7E7E7;stroke-width:0.5;" width="67" x="942.5" y="982"/><text fill="#FFFFFF" font-family="sans-serif" font-size="12" lengthAdjust="spacing" textLength="47" x="952.5" y="1003.1387">Ok then</text><!--link start to s--><g id="link_start_s"><path d="M997,26.18 C997,35.27 997,49.53 997,61.49 " fill="none" id="start-to-s" style="stroke:#E7E7E7;stroke-width:1.0;"/><polygon fill="#E7E7E7" points="997,66.79,1001,57.79,997,61.79,993,57.79,997,66.79" style="stroke:#E7E7E7;stroke-width:1.0;"/></g><!--link s to #5--><g id="link_s_#5"><path d="M980.411,101.12 C966.728,114.41 947.797,132.797 936.535,143.738 " fill="none" id="s-to-#5" style="stroke:#E7E7E7;stroke-width:1.0;"/><polygon fill="#E7E7E7" points="932.756,147.408,941.9982,144.0047,936.3419,143.9235,936.423,138.2673,932.756,147.408" style="stroke:#E7E7E7;stroke-width:1.0;"/><text fill="#FFFFFF" font-family="sans-serif" font-size="11" lengthAdjust="spacing" textLength="72" x="947.1096" y="141.4283">Armagedon?</text></g><!--link #5 to end--><g id="link_#5_end"><path d="M920.494,160.073 C913.596,165.745 902.781,175.52 896,186 C888.783,197.154 883.699,211.456 880.617,221.905 " fill="none" id="#5-to-end" style="stroke:#E7E7E7;stroke-width:1.0;"/><polygon fill="#E7E7E7" points="879.188,226.98,885.4784,219.4017,880.5437,222.1673,877.778,217.2326,879.188,226.98" style="stroke:#E7E7E7;stroke-width:1.0;"/><text fill="#FFFFFF" font-family="sans-serif" font-size="11" lengthAdjust="spacing" textLength="23" x="897" y="197.2104">true</text></g><!--link #5 to Ok--><g id="link_#5_Ok"><path d="M926.865,165.924 C926.711,178.417 926.455,199.164 926.261,214.85 " fill="none" id="#5-to-Ok" style="stroke:#E7E7E7;stroke-width:1.0;"/><polygon fill="#E7E7E7" points="926.198,219.956,930.3083,211.0058,926.2594,214.9564,922.3089,210.9075,926.198,219.956" style="stroke:#E7E7E7;stroke-width:1.0;"/><text fill="#FFFFFF" font-family="sans-serif" font-size="11" lengthAdjust="spacing" textLength="28" x="927" y="197.2104">false</text></g><!--link Ok to #12--><g id="link_Ok_#12"><path d="M907.47,248.703 C904.031,250.551 900.438,252.393 897,254 C853.914,274.135 800.712,293.111 776.337,301.494 " fill="none" id="Ok-to-#12" style="stroke:#E7E7E7;stroke-width:1.0;"/><polygon fill="#E7E7E7" points="771.318,303.21,781.128,304.0843,776.0493,301.5929,778.5406,296.5142,771.318,303.21" style="stroke:#E7E7E7;stroke-width:1.0;"/><text fill="#FFFFFF" font-family="sans-serif" font-size="11" lengthAdjust="spacing" textLength="116" x="783.1309" y="299.7483">Anything to do now?</text></g><!--link #12 to Choose timed activity--><g id="link_#12_Choose timed activity"><path d="M754.796,311.076 C728.914,320.782 647.571,351.286 594.667,371.125 " fill="none" id="#12-to-Choose timed activity" style="stroke:#E7E7E7;stroke-width:1.0;"/><polygon fill="#E7E7E7" points="589.957,372.891,599.7885,373.4759,594.6386,371.1352,596.9792,365.9853,589.957,372.891" style="stroke:#E7E7E7;stroke-width:1.0;"/><text fill="#FFFFFF" font-family="sans-serif" font-size="11" lengthAdjust="spacing" textLength="23" x="675" y="350.2104">true</text></g><!--link Choose timed activity to #17--><g id="link_Choose timed activity_#17"><path d="M513.111,407.115 C481.914,421.95 437.364,443.135 416.141,453.227 " fill="none" id="Choose timed activity-to-#17" style="stroke:#E7E7E7;stroke-width:1.0;"/><polygon fill="#E7E7E7" points="411.506,455.431,421.3516,455.1787,416.0215,453.2839,417.9163,447.9539,411.506,455.431" style="stroke:#E7E7E7;stroke-width:1.0;"/><text fill="#FFFFFF" font-family="sans-serif" font-size="11" lengthAdjust="spacing" textLength="43" x="424.1961" y="449.1935">Choose</text></g><!--link #17 to Send brewer command to make coffee--><g id="link_#17_Send brewer command to make coffee"><path d="M395.387,463.603 C365,472.787 261.049,504.205 194.33,524.37 " fill="none" id="#17-to-Send brewer command to make coffee" style="stroke:#E7E7E7;stroke-width:1.0;"/><polygon fill="#E7E7E7" points="189.193,525.923,198.9655,527.1468,193.979,524.4758,196.65,519.4892,189.193,525.923" style="stroke:#E7E7E7;stroke-width:1.0;"/><text fill="#FFFFFF" font-family="sans-serif" font-size="11" lengthAdjust="spacing" textLength="49" x="296" y="503.2104">"Coffee"</text></g><!--link Send brewer command to make coffee to Receive confirmation--><g id="link_Send brewer command to make coffee_Receive confirmation"><path d="M176.703,560.099 C225.643,579.456 307.543,611.849 358.519,632.011 " fill="none" id="Send brewer command to make coffee-to-Receive confirmation" style="stroke:#E7E7E7;stroke-width:1.0;"/><polygon fill="#E7E7E7" points="363.353,633.923,356.4561,626.8921,358.7038,632.0833,353.5126,634.3309,363.353,633.923" style="stroke:#E7E7E7;stroke-width:1.0;"/></g><!--link Receive confirmation to ALL--><g id="link_Receive confirmation_ALL"><path d="M408.449,668.019 C413.78,688.652 422,725.707 422,758 C422,758 422,758 422,1054 C422,1098.6709 566.558,1110.0869 642.54,1113.002 " fill="none" id="Receive confirmation-to-ALL" style="stroke:#E7E7E7;stroke-width:1.0;"/><polygon fill="#E7E7E7" points="647.889,1113.1975,639.0413,1108.871,642.8923,1113.0146,638.7487,1116.8657,647.889,1113.1975" style="stroke:#E7E7E7;stroke-width:1.0;"/></g><!--link #17 to Send brewer command to make tea--><g id="link_#17_Send brewer command to make tea"><path d="M404,472.263 C404,484.76 404,505.211 404,520.743 " fill="none" id="#17-to-Send brewer command to make tea" style="stroke:#E7E7E7;stroke-width:1.0;"/><polygon fill="#E7E7E7" points="404,525.803,408,516.803,404,520.803,400,516.803,404,525.803" style="stroke:#E7E7E7;stroke-width:1.0;"/><text fill="#FFFFFF" font-family="sans-serif" font-size="11" lengthAdjust="spacing" textLength="32" x="405" y="503.2104">"Tea"</text></g><!--link Send brewer command to make tea to Receive confirmation--><g id="link_Send brewer command to make tea_Receive confirmation"><path d="M404,560.099 C404,578.388 404,608.315 404,628.567 " fill="none" id="Send brewer command to make tea-to-Receive confirmation" style="stroke:#E7E7E7;stroke-width:1.0;"/><polygon fill="#E7E7E7" points="404,633.749,408,624.749,404,628.749,400,624.749,404,633.749" style="stroke:#E7E7E7;stroke-width:1.0;"/></g><!--link #12 to Choose basic activity--><g id="link_#12_Choose basic activity"><path d="M763,319.263 C763,331.76 763,352.211 763,367.743 " fill="none" id="#12-to-Choose basic activity" style="stroke:#E7E7E7;stroke-width:1.0;"/><polygon fill="#E7E7E7" points="763,372.803,767,363.803,763,367.803,759,363.803,763,372.803" style="stroke:#E7E7E7;stroke-width:1.0;"/><text fill="#FFFFFF" font-family="sans-serif" font-size="11" lengthAdjust="spacing" textLength="28" x="764" y="350.2104">false</text></g><!--link Choose basic activity to #31--><g id="link_Choose basic activity_#31"><path d="M763,407.115 C763,417.916 763,432.082 763,442.883 " fill="none" id="Choose basic activity-to-#31" style="stroke:#E7E7E7;stroke-width:1.0;"/><polygon fill="#E7E7E7" points="763,447.885,767,438.885,763,442.885,759,438.885,763,447.885" style="stroke:#E7E7E7;stroke-width:1.0;"/><text fill="#FFFFFF" font-family="sans-serif" font-size="11" lengthAdjust="spacing" textLength="43" x="709.5188" y="437.4605">Choose</text></g><!--link #31 to Get motion data from sensors--><g id="link_#31_Get motion data from sensors"><path d="M752.528,461.683 C721.346,464.26 627.994,475.986 575,526 C561.178,539.045 553.419,559.512 549.273,574.952 " fill="none" id="#31-to-Get motion data from sensors" style="stroke:#E7E7E7;stroke-width:1.0;"/><polygon fill="#E7E7E7" points="548.002,579.977,554.0863,572.2323,549.2278,575.1296,546.3305,570.271,548.002,579.977" style="stroke:#E7E7E7;stroke-width:1.0;"/><text fill="#FFFFFF" font-family="sans-serif" font-size="11" lengthAdjust="spacing" textLength="43" x="627" y="503.2104">"Lights"</text></g><!--link Get motion data from sensors to Update turned on lights--><g id="link_Get motion data from sensors_Update turned on lights"><path d="M542.722,614.099 C540.134,632.388 535.899,662.315 533.033,682.567 " fill="none" id="Get motion data from sensors-to-Update turned on lights" style="stroke:#E7E7E7;stroke-width:1.0;"/><polygon fill="#E7E7E7" points="532.3,687.749,537.5231,679.3992,533.0015,682.7985,529.6023,678.2768,532.3,687.749" style="stroke:#E7E7E7;stroke-width:1.0;"/></g><!--link Update turned on lights to ALL--><g id="link_Update turned on lights_ALL"><path d="M517.389,722.223 C503.167,742.182 482,777.657 482,812 C482,812 482,812 482,1054 C482,1087.9892 586.683,1104.0095 646.8,1110.4072 " fill="none" id="Update turned on lights-to-ALL" style="stroke:#E7E7E7;stroke-width:1.0;"/><polygon fill="#E7E7E7" points="652.118,1110.9604,643.58,1106.051,647.1448,1110.4433,642.7526,1114.0081,652.118,1110.9604" style="stroke:#E7E7E7;stroke-width:1.0;"/></g><!--link #31 to Check required temperature--><g id="link_#31_Check required temperature"><path d="M757.364,466.567 C745.898,477.893 719.375,504.093 700.824,522.418 " fill="none" id="#31-to-Check required temperature" style="stroke:#E7E7E7;stroke-width:1.0;"/><polygon fill="#E7E7E7" points="697.227,525.971,706.4413,522.4931,700.7846,522.4577,700.82,516.8009,697.227,525.971" style="stroke:#E7E7E7;stroke-width:1.0;"/><text fill="#FFFFFF" font-family="sans-serif" font-size="11" lengthAdjust="spacing" textLength="26" x="730" y="503.2104">"AC"</text></g><!--link Check required temperature to Get current temperature--><g id="link_Check required temperature_Get current temperature"><path d="M678.722,560.099 C676.134,578.388 671.899,608.315 669.033,628.567 " fill="none" id="Check required temperature-to-Get current temperature" style="stroke:#E7E7E7;stroke-width:1.0;"/><polygon fill="#E7E7E7" points="668.3,633.749,673.5231,625.3992,669.0015,628.7985,665.6023,624.2768,668.3,633.749" style="stroke:#E7E7E7;stroke-width:1.0;"/></g><!--link Get current temperature to Send command to AC to update temperature--><g id="link_Get current temperature_Send command to AC to update temperature"><path d="M663.769,668.222 C659.783,697.211 651.438,757.907 646.971,790.392 " fill="none" id="Get current temperature-to-Send command to AC to update temperature" style="stroke:#E7E7E7;stroke-width:1.0;"/><polygon fill="#E7E7E7" points="646.236,795.735,651.4254,787.3642,646.9175,790.7817,643.5,786.2738,646.236,795.735" style="stroke:#E7E7E7;stroke-width:1.0;"/></g><!--link Send command to AC to update temperature to ALL--><g id="link_Send command to AC to update temperature_ALL"><path d="M613.094,830.014 C589.496,844.699 561,868.875 561,900 C561,900 561,900 561,1054 C561,1091.1877 606.068,1105.3615 642.509,1110.7438 " fill="none" id="Send command to AC to update temperature-to-ALL" style="stroke:#E7E7E7;stroke-width:1.0;"/><polygon fill="#E7E7E7" points="647.816,1111.4758,639.4466,1106.2841,642.8628,1110.7929,638.354,1114.2091,647.816,1111.4758" style="stroke:#E7E7E7;stroke-width:1.0;"/></g><!--link #31 to Get data about current food--><g id="link_#31_Get data about current food"><path d="M766.151,468.937 C770.936,481.116 780.196,505.191 787,526 C792.317,542.263 797.604,560.901 801.405,574.854 " fill="none" id="#31-to-Get data about current food" style="stroke:#E7E7E7;stroke-width:1.0;"/><polygon fill="#E7E7E7" points="802.736,579.769,804.2465,570.0367,801.4301,574.9426,796.5242,572.1261,802.736,579.769" style="stroke:#E7E7E7;stroke-width:1.0;"/><text fill="#FFFFFF" font-family="sans-serif" font-size="11" lengthAdjust="spacing" textLength="37" x="780" y="503.2104">"Food"</text></g><!--link Get data about current food to Check required food--><g id="link_Get data about current food_Check required food"><path d="M806.848,614.099 C806.676,632.388 806.393,662.315 806.202,682.567 " fill="none" id="Get data about current food-to-Check required food" style="stroke:#E7E7E7;stroke-width:1.0;"/><polygon fill="#E7E7E7" points="806.153,687.749,810.2377,678.7871,806.2002,682.7492,802.2381,678.7117,806.153,687.749" style="stroke:#E7E7E7;stroke-width:1.0;"/></g><!--link Check required food to #50--><g id="link_Check required food_#50"><path d="M804.631,722.137 C802.484,745.881 797.852,791.574 791,830 C784.482,866.549 773.533,908.934 767.785,930.252 " fill="none" id="Check required food-to-#50" style="stroke:#E7E7E7;stroke-width:1.0;"/><polygon fill="#E7E7E7" points="766.441,935.202,772.6591,927.5643,767.7509,930.3766,764.9385,925.4684,766.441,935.202" style="stroke:#E7E7E7;stroke-width:1.0;"/><text fill="#FFFFFF" font-family="sans-serif" font-size="11" lengthAdjust="spacing" textLength="95" x="649.4747" y="925.9071">Not enough food</text></g><!--link #50 to Place order--><g id="link_#50_Place order"><path d="M757.875,951.113 C740.519,965.598 690.337,1007.482 660.367,1032.4969 " fill="none" id="#50-to-Place order" style="stroke:#E7E7E7;stroke-width:1.0;"/><polygon fill="#E7E7E7" points="656.457,1035.7602,665.9295,1033.0635,660.2954,1032.556,660.8028,1026.922,656.457,1035.7602" style="stroke:#E7E7E7;stroke-width:1.0;"/><text fill="#FFFFFF" font-family="sans-serif" font-size="11" lengthAdjust="spacing" textLength="36" x="720" y="1003.2104">"True"</text></g><!--link Place order to ALL--><g id="link_Place order_ALL"><path d="M650.667,1070.0789 C660.81,1082.0113 674.161,1097.7191 681.841,1106.7541 " fill="none" id="Place order-to-ALL" style="stroke:#E7E7E7;stroke-width:1.0;"/><polygon fill="#E7E7E7" points="685.117,1110.6077,682.3362,1101.1595,681.8789,1106.7979,676.2405,1106.3405,685.117,1110.6077" style="stroke:#E7E7E7;stroke-width:1.0;"/></g><!--link #50 to Keep that in mind--><g id="link_#50_Keep that in mind"><path d="M764,957.344 C764,974.847 764,1008.725 764,1030.844 " fill="none" id="#50-to-Keep that in mind" style="stroke:#E7E7E7;stroke-width:1.0;"/><polygon fill="#E7E7E7" points="764,1035.9225,768,1026.9225,764,1030.9225,760,1026.9225,764,1035.9225" style="stroke:#E7E7E7;stroke-width:1.0;"/><text fill="#FFFFFF" font-family="sans-serif" font-size="11" lengthAdjust="spacing" textLength="40" x="765" y="1003.2104">"False"</text></g><!--link Keep that in mind to ALL--><g id="link_Keep that in mind_ALL"><path d="M743.633,1070.0789 C728.09,1082.3497 707.49,1098.6131 696.225,1107.5065 " fill="none" id="Keep that in mind-to-ALL" style="stroke:#E7E7E7;stroke-width:1.0;"/><polygon fill="#E7E7E7" points="692.011,1110.8336,701.5534,1108.3959,695.9353,1107.7352,696.596,1102.1171,692.011,1110.8336" style="stroke:#E7E7E7;stroke-width:1.0;"/></g><!--link #31 to Check motion sensors--><g id="link_#31_Check motion sensors"><path d="M771.982,463.107 C788.496,467.199 824.506,477.143 852,492 C867.529,500.392 883.263,512.383 895.36,522.519 " fill="none" id="#31-to-Check motion sensors" style="stroke:#E7E7E7;stroke-width:1.0;"/><polygon fill="#E7E7E7" points="899.318,525.877,895.0441,517.0038,895.5057,522.6418,889.8677,523.1034,899.318,525.877" style="stroke:#E7E7E7;stroke-width:1.0;"/><text fill="#FFFFFF" font-family="sans-serif" font-size="11" lengthAdjust="spacing" textLength="57" x="873" y="503.2104">"Security"</text></g><!--link Check motion sensors to Check resident location--><g id="link_Check motion sensors_Check resident location"><path d="M917.152,560.099 C917.324,578.388 917.607,608.315 917.798,628.567 " fill="none" id="Check motion sensors-to-Check resident location" style="stroke:#E7E7E7;stroke-width:1.0;"/><polygon fill="#E7E7E7" points="917.847,633.749,921.7619,624.7117,917.7998,628.7492,913.7623,624.7871,917.847,633.749" style="stroke:#E7E7E7;stroke-width:1.0;"/></g><!--link Check resident location to Check scheduled visits--><g id="link_Check resident location_Check scheduled visits"><path d="M918,668.099 C918,686.388 918,716.315 918,736.567 " fill="none" id="Check resident location-to-Check scheduled visits" style="stroke:#E7E7E7;stroke-width:1.0;"/><polygon fill="#E7E7E7" points="918,741.749,922,732.749,918,736.749,914,732.749,918,741.749" style="stroke:#E7E7E7;stroke-width:1.0;"/></g><!--link Check scheduled visits to #65--><g id="link_Check scheduled visits_#65"><path d="M918,776.227 C918,794.925 918,825.492 918,844.361 " fill="none" id="Check scheduled visits-to-#65" style="stroke:#E7E7E7;stroke-width:1.0;"/><polygon fill="#E7E7E7" points="918,849.816,922,840.816,918,844.816,914,840.816,918,849.816" style="stroke:#E7E7E7;stroke-width:1.0;"/><text fill="#FFFFFF" font-family="sans-serif" font-size="11" lengthAdjust="spacing" textLength="75" x="824.7188" y="839.3579">smth's wrong</text></g><!--link #65 to Call police--><g id="link_#65_Call police"><path d="M915.316,871.358 C913.387,877.562 910.817,886.252 909,894 C906.832,903.245 904.896,913.556 903.38,922.403 " fill="none" id="#65-to-Call police" style="stroke:#E7E7E7;stroke-width:1.0;"/><polygon fill="#E7E7E7" points="902.492,927.699,907.9257,919.4847,903.3191,922.7679,900.0359,918.1613,902.492,927.699" style="stroke:#E7E7E7;stroke-width:1.0;"/><text fill="#FFFFFF" font-family="sans-serif" font-size="11" lengthAdjust="spacing" textLength="36" x="910" y="905.2104">"True"</text></g><!--link Call police to notify resident--><g id="link_Call police_notify resident"><path d="M900,962.099 C900,980.388 900,1010.315 900,1030.567 " fill="none" id="Call police-to-notify resident" style="stroke:#E7E7E7;stroke-width:1.0;"/><polygon fill="#E7E7E7" points="900,1035.7494,904,1026.7494,900,1030.7494,896,1026.7494,900,1035.7494" style="stroke:#E7E7E7;stroke-width:1.0;"/></g><!--link notify resident to ALL--><g id="link_notify resident_ALL"><path d="M846.229,1069.2181 C799.112,1082.5531 733.641,1101.0828 703.869,1109.5087 " fill="none" id="notify resident-to-ALL" style="stroke:#E7E7E7;stroke-width:1.0;"/><polygon fill="#E7E7E7" points="698.738,1110.9609,708.4871,1112.3592,703.5491,1109.5995,706.3088,1104.6614,698.738,1110.9609" style="stroke:#E7E7E7;stroke-width:1.0;"/></g><!--link #65 to Ok then--><g id="link_#65_Ok then"><path d="M924.491,867.994 C931.332,873.599 941.94,883.316 948,894 C962.947,920.349 970.19,955.001 973.493,976.893 " fill="none" id="#65-to-Ok then" style="stroke:#E7E7E7;stroke-width:1.0;"/><polygon fill="#E7E7E7" points="974.213,981.902,976.8893,972.4237,973.5003,976.9531,968.971,973.5641,974.213,981.902" style="stroke:#E7E7E7;stroke-width:1.0;"/><text fill="#FFFFFF" font-family="sans-serif" font-size="11" lengthAdjust="spacing" textLength="40" x="955" y="905.2104">"False"</text></g><!--link Ok then to ALL--><g id="link_Ok then_ALL"><path d="M978.123,1016.298 C979.211,1032.2552 978.031,1056.1319 964,1070 C932.216,1101.4145 803.278,1110.4015 733.452,1112.9715 " fill="none" id="Ok then-to-ALL" style="stroke:#E7E7E7;stroke-width:1.0;"/><polygon fill="#E7E7E7" points="728.118,1113.1596,737.2541,1116.8382,733.1149,1112.9824,736.9706,1108.8432,728.118,1113.1596" style="stroke:#E7E7E7;stroke-width:1.0;"/></g><!--link ALL to s--><g id="link_ALL_s"><path d="M728.42,1113.866 C778.345,1112.8857 865.552,1108.5036 938,1091 C980.839,1080.6499 1030,1098.0718 1030,1054 C1030,153 1030,153 1030,153 C1030,135.787 1021.34,118.36 1012.89,105.46 " fill="none" id="ALL-to-s" style="stroke:#E7E7E7;stroke-width:1.0;"/><polygon fill="#E7E7E7" points="1010.04,101.26,1011.7656,110.9565,1012.8398,105.4026,1018.3937,106.4768,1010.04,101.26" style="stroke:#E7E7E7;stroke-width:1.0;"/></g><!--SRC=[XLBDRjim3BxxAGXTrXRe8sH3O60xD5YBhJiDFIWIRHEnH5UI4-JjHyb9uoLfUn5iaVpu_UZcxXRkxx-2-e49h4uQci0EXeuzAj0HOaKDg6LmkaNB_fk2rA6lPEPl2YE-mCtTROLzn7BLQFbw0VMuKHLwIyqqxVUf8zz2Oh0CddUNCAhkc2D28eSMj4cqfRHNPNugpKPKpKs3g6Jijwo1TS0T1Z3id9PVMUFq1kM_T5L5u2yqIDjywHiIEOdOJwN5Oh5ShUGywL3Fg3z3JzBo4VIa_yAQWywrZcG-rRcYjainCydvECx8ivWY-iWX5Xhgpo05eJK6BmvANpyDlwjnMQl21yq60hwE56GkeHimQ44v6fStcp44zEbAjJWqisPPvtCyS3bllqRZExCzAYpIz9h7qyecbwTTPrIdIZRk9oT0psFRJPSp1v_bTMNqfruR10uMmmTKSaQv-m5n412TW3muylPYvlzmnGRXcuDyS_GGrZoYau98DclhsSpUuQ4QJOTsx4NWbYBb0BF4w5Bt9S8ki6-lwQjrtyF0FPbZCbu8DFktPTTKmvdinqr1VaTiENCb_WC0]--></g></svg>