<?xml version="1.0" encoding="us-ascii" standalone="no"?><svg xmlns="http://www.w3.org/2000/svg" xmlns:xlink="http://www.w3.org/1999/xlink" contentStyleType="text/css" height="631px" preserveAspectRatio="none" style="width:1538px;height:631px;background:#1B1B1B;" version="1.1" viewBox="0 0 1538 631" width="1538px" zoomAndPan="magnify"><defs/><g><rect fill="#1B1B1B" height="631" style="stroke:none;stroke-width:1.0;" width="1538" x="0" y="0"/><!--class ControlUnit--><g id="elem_ControlUnit"><rect codeLine="1" fill="#313139" height="194.6719" id="ControlUnit" rx="2.5" ry="2.5" style="stroke:#E7E7E7;stroke-width:0.5;" width="259" x="703" y="148"/><ellipse cx="786.75" cy="164" fill="#2E5233" rx="11" ry="11" style="stroke:#E7E7E7;stroke-width:1.0;"/><path d="M789.0938,159.6719 C788.1563,159.2344 787.5625,159.0938 786.6875,159.0938 C784.0625,159.0938 782.0625,161.1719 782.0625,163.8906 L782.0625,165.0156 C782.0625,167.5938 784.1719,169.4844 787.0625,169.4844 C788.2813,169.4844 789.4375,169.1875 790.1875,168.6406 C790.7656,168.2344 791.0938,167.7813 791.0938,167.3906 C791.0938,166.9375 790.7031,166.5469 790.2344,166.5469 C790.0156,166.5469 789.8125,166.625 789.625,166.8125 C789.1719,167.2969 789.1719,167.2969 788.9844,167.3906 C788.5625,167.6563 787.875,167.7813 787.1094,167.7813 C785.0625,167.7813 783.7656,166.6875 783.7656,164.9844 L783.7656,163.8906 C783.7656,162.1094 785.0156,160.7969 786.75,160.7969 C787.3281,160.7969 787.9375,160.9531 788.4063,161.2031 C788.8906,161.4844 789.0625,161.7031 789.1563,162.1094 C789.2188,162.5156 789.25,162.6406 789.3906,162.7656 C789.5313,162.9063 789.7656,163.0156 789.9844,163.0156 C790.25,163.0156 790.5156,162.875 790.6875,162.6563 C790.7969,162.5 790.8281,162.3125 790.8281,161.8906 L790.8281,160.4688 C790.8281,160.0313 790.8125,159.9063 790.7188,159.75 C790.5625,159.4844 790.2813,159.3438 789.9844,159.3438 C789.6875,159.3438 789.4844,159.4375 789.2656,159.75 L789.0938,159.6719 Z " fill="#FFFFFF"/><text fill="#FFFFFF" font-family="sans-serif" font-size="14" lengthAdjust="spacing" textLength="83" x="807.25" y="168.8467">ControlUnit</text><line style="stroke:#E7E7E7;stroke-width:0.5;" x1="704" x2="961" y1="180" y2="180"/><ellipse cx="714" cy="193.6484" fill="none" rx="3" ry="3" style="stroke:#038048;stroke-width:1.0;"/><text fill="#FFFFFF" font-family="sans-serif" font-size="14" lengthAdjust="spacing" textLength="197" x="723" y="196.9951">smartBrewer: SmartBrewer</text><ellipse cx="714" cy="209.9453" fill="none" rx="3" ry="3" style="stroke:#038048;stroke-width:1.0;"/><text fill="#FFFFFF" font-family="sans-serif" font-size="14" lengthAdjust="spacing" textLength="189" x="723" y="213.292">acController: AcController</text><ellipse cx="714" cy="226.2422" fill="none" rx="3" ry="3" style="stroke:#038048;stroke-width:1.0;"/><text fill="#FFFFFF" font-family="sans-serif" font-size="14" lengthAdjust="spacing" textLength="231" x="723" y="229.5889">lightingSystem: LightingSystem</text><ellipse cx="714" cy="242.5391" fill="none" rx="3" ry="3" style="stroke:#038048;stroke-width:1.0;"/><text fill="#FFFFFF" font-family="sans-serif" font-size="14" lengthAdjust="spacing" textLength="213" x="723" y="245.8857">sensorSystem: SensorSystem</text><ellipse cx="714" cy="258.8359" fill="none" rx="3" ry="3" style="stroke:#038048;stroke-width:1.0;"/><text fill="#FFFFFF" font-family="sans-serif" font-size="14" lengthAdjust="spacing" textLength="233" x="723" y="262.1826">securitySystem: SecuritySystem</text><ellipse cx="714" cy="275.1328" fill="none" rx="3" ry="3" style="stroke:#038048;stroke-width:1.0;"/><text fill="#FFFFFF" font-family="sans-serif" font-size="14" lengthAdjust="spacing" textLength="185" x="723" y="278.4795">smartFridge: SmartFridge</text><ellipse cx="714" cy="291.4297" fill="none" rx="3" ry="3" style="stroke:#038048;stroke-width:1.0;"/><text fill="#FFFFFF" font-family="sans-serif" font-size="14" lengthAdjust="spacing" textLength="160" x="723" y="294.7764">phoneApp: PhoneApp</text><line style="stroke:#E7E7E7;stroke-width:1.0;" x1="704" x2="961" y1="302.0781" y2="302.0781"/><ellipse cx="714" cy="315.7266" fill="#84BE84" rx="3" ry="3" style="stroke:#038048;stroke-width:1.0;"/><text fill="#FFFFFF" font-family="sans-serif" font-size="14" lengthAdjust="spacing" textLength="221" x="723" y="319.0732">setTemperature(temperature)</text><ellipse cx="714" cy="332.0234" fill="#84BE84" rx="3" ry="3" style="stroke:#038048;stroke-width:1.0;"/><text fill="#FFFFFF" font-family="sans-serif" font-size="14" lengthAdjust="spacing" textLength="160" x="723" y="335.3701">setProducts(products)</text></g><!--class SmartBrewer--><g id="elem_SmartBrewer"><rect codeLine="14" fill="#313139" height="80.5938" id="SmartBrewer" rx="2.5" ry="2.5" style="stroke:#E7E7E7;stroke-width:0.5;" width="179" x="7" y="411"/><ellipse cx="45.4" cy="427" fill="#2E5233" rx="11" ry="11" style="stroke:#E7E7E7;stroke-width:1.0;"/><path d="M47.7438,422.6719 C46.8063,422.2344 46.2125,422.0938 45.3375,422.0938 C42.7125,422.0938 40.7125,424.1719 40.7125,426.8906 L40.7125,428.0156 C40.7125,430.5938 42.8219,432.4844 45.7125,432.4844 C46.9313,432.4844 48.0875,432.1875 48.8375,431.6406 C49.4156,431.2344 49.7438,430.7813 49.7438,430.3906 C49.7438,429.9375 49.3531,429.5469 48.8844,429.5469 C48.6656,429.5469 48.4625,429.625 48.275,429.8125 C47.8219,430.2969 47.8219,430.2969 47.6344,430.3906 C47.2125,430.6563 46.525,430.7813 45.7594,430.7813 C43.7125,430.7813 42.4156,429.6875 42.4156,427.9844 L42.4156,426.8906 C42.4156,425.1094 43.6656,423.7969 45.4,423.7969 C45.9781,423.7969 46.5875,423.9531 47.0563,424.2031 C47.5406,424.4844 47.7125,424.7031 47.8063,425.1094 C47.8688,425.5156 47.9,425.6406 48.0406,425.7656 C48.1813,425.9063 48.4156,426.0156 48.6344,426.0156 C48.9,426.0156 49.1656,425.875 49.3375,425.6563 C49.4469,425.5 49.4781,425.3125 49.4781,424.8906 L49.4781,423.4688 C49.4781,423.0313 49.4625,422.9063 49.3688,422.75 C49.2125,422.4844 48.9313,422.3438 48.6344,422.3438 C48.3375,422.3438 48.1344,422.4375 47.9156,422.75 L47.7438,422.6719 Z " fill="#FFFFFF"/><text fill="#FFFFFF" font-family="sans-serif" font-size="14" lengthAdjust="spacing" textLength="95" x="64.6" y="431.8467">SmartBrewer</text><line style="stroke:#E7E7E7;stroke-width:0.5;" x1="8" x2="185" y1="443" y2="443"/><line style="stroke:#E7E7E7;stroke-width:0.5;" x1="8" x2="185" y1="451" y2="451"/><ellipse cx="18" cy="464.6484" fill="#84BE84" rx="3" ry="3" style="stroke:#038048;stroke-width:1.0;"/><text fill="#FFFFFF" font-family="sans-serif" font-size="14" lengthAdjust="spacing" textLength="153" x="27" y="467.9951">brewCoffee(): Coffee</text><ellipse cx="18" cy="480.9453" fill="#84BE84" rx="3" ry="3" style="stroke:#038048;stroke-width:1.0;"/><text fill="#FFFFFF" font-family="sans-serif" font-size="14" lengthAdjust="spacing" textLength="107" x="27" y="484.292">brewTea(): Tea</text></g><!--class AcController--><g id="elem_AcController"><rect codeLine="19" fill="#313139" height="80.5938" id="AcController" rx="2.5" ry="2.5" style="stroke:#E7E7E7;stroke-width:0.5;" width="258" x="221.5" y="411"/><ellipse cx="300.75" cy="427" fill="#2E5233" rx="11" ry="11" style="stroke:#E7E7E7;stroke-width:1.0;"/><path d="M303.0938,422.6719 C302.1563,422.2344 301.5625,422.0938 300.6875,422.0938 C298.0625,422.0938 296.0625,424.1719 296.0625,426.8906 L296.0625,428.0156 C296.0625,430.5938 298.1719,432.4844 301.0625,432.4844 C302.2813,432.4844 303.4375,432.1875 304.1875,431.6406 C304.7656,431.2344 305.0938,430.7813 305.0938,430.3906 C305.0938,429.9375 304.7031,429.5469 304.2344,429.5469 C304.0156,429.5469 303.8125,429.625 303.625,429.8125 C303.1719,430.2969 303.1719,430.2969 302.9844,430.3906 C302.5625,430.6563 301.875,430.7813 301.1094,430.7813 C299.0625,430.7813 297.7656,429.6875 297.7656,427.9844 L297.7656,426.8906 C297.7656,425.1094 299.0156,423.7969 300.75,423.7969 C301.3281,423.7969 301.9375,423.9531 302.4063,424.2031 C302.8906,424.4844 303.0625,424.7031 303.1563,425.1094 C303.2188,425.5156 303.25,425.6406 303.3906,425.7656 C303.5313,425.9063 303.7656,426.0156 303.9844,426.0156 C304.25,426.0156 304.5156,425.875 304.6875,425.6563 C304.7969,425.5 304.8281,425.3125 304.8281,424.8906 L304.8281,423.4688 C304.8281,423.0313 304.8125,422.9063 304.7188,422.75 C304.5625,422.4844 304.2813,422.3438 303.9844,422.3438 C303.6875,422.3438 303.4844,422.4375 303.2656,422.75 L303.0938,422.6719 Z " fill="#FFFFFF"/><text fill="#FFFFFF" font-family="sans-serif" font-size="14" lengthAdjust="spacing" textLength="91" x="321.25" y="431.8467">AcController</text><line style="stroke:#E7E7E7;stroke-width:0.5;" x1="222.5" x2="478.5" y1="443" y2="443"/><line style="stroke:#E7E7E7;stroke-width:0.5;" x1="222.5" x2="478.5" y1="451" y2="451"/><ellipse cx="232.5" cy="464.6484" fill="#84BE84" rx="3" ry="3" style="stroke:#038048;stroke-width:1.0;"/><text fill="#FFFFFF" font-family="sans-serif" font-size="14" lengthAdjust="spacing" textLength="229" x="241.5" y="467.9951">turnOn(id, temperature): Status</text><ellipse cx="232.5" cy="480.9453" fill="#84BE84" rx="3" ry="3" style="stroke:#038048;stroke-width:1.0;"/><text fill="#FFFFFF" font-family="sans-serif" font-size="14" lengthAdjust="spacing" textLength="232" x="241.5" y="484.292">turnOff(id, temperature): Status</text></g><!--class SensorSystem--><g id="elem_SensorSystem"><rect codeLine="24" fill="#313139" height="80.5938" id="SensorSystem" rx="2.5" ry="2.5" style="stroke:#E7E7E7;stroke-width:0.5;" width="335" x="515" y="411"/><ellipse cx="626.75" cy="427" fill="#2E5233" rx="11" ry="11" style="stroke:#E7E7E7;stroke-width:1.0;"/><path d="M629.0938,422.6719 C628.1563,422.2344 627.5625,422.0938 626.6875,422.0938 C624.0625,422.0938 622.0625,424.1719 622.0625,426.8906 L622.0625,428.0156 C622.0625,430.5938 624.1719,432.4844 627.0625,432.4844 C628.2813,432.4844 629.4375,432.1875 630.1875,431.6406 C630.7656,431.2344 631.0938,430.7813 631.0938,430.3906 C631.0938,429.9375 630.7031,429.5469 630.2344,429.5469 C630.0156,429.5469 629.8125,429.625 629.625,429.8125 C629.1719,430.2969 629.1719,430.2969 628.9844,430.3906 C628.5625,430.6563 627.875,430.7813 627.1094,430.7813 C625.0625,430.7813 623.7656,429.6875 623.7656,427.9844 L623.7656,426.8906 C623.7656,425.1094 625.0156,423.7969 626.75,423.7969 C627.3281,423.7969 627.9375,423.9531 628.4063,424.2031 C628.8906,424.4844 629.0625,424.7031 629.1563,425.1094 C629.2188,425.5156 629.25,425.6406 629.3906,425.7656 C629.5313,425.9063 629.7656,426.0156 629.9844,426.0156 C630.25,426.0156 630.5156,425.875 630.6875,425.6563 C630.7969,425.5 630.8281,425.3125 630.8281,424.8906 L630.8281,423.4688 C630.8281,423.0313 630.8125,422.9063 630.7188,422.75 C630.5625,422.4844 630.2813,422.3438 629.9844,422.3438 C629.6875,422.3438 629.4844,422.4375 629.2656,422.75 L629.0938,422.6719 Z " fill="#FFFFFF"/><text fill="#FFFFFF" font-family="sans-serif" font-size="14" lengthAdjust="spacing" textLength="103" x="647.25" y="431.8467">SensorSystem</text><line style="stroke:#E7E7E7;stroke-width:0.5;" x1="516" x2="849" y1="443" y2="443"/><ellipse cx="526" cy="456.6484" fill="none" rx="3" ry="3" style="stroke:#038048;stroke-width:1.0;"/><text fill="#FFFFFF" font-family="sans-serif" font-size="14" lengthAdjust="spacing" textLength="309" x="535" y="459.9951">temperatureSensors: TemperatureSensors</text><ellipse cx="526" cy="472.9453" fill="none" rx="3" ry="3" style="stroke:#038048;stroke-width:1.0;"/><text fill="#FFFFFF" font-family="sans-serif" font-size="14" lengthAdjust="spacing" textLength="223" x="535" y="476.292">motionSensors: MotionSensors</text><line style="stroke:#E7E7E7;stroke-width:0.5;" x1="516" x2="849" y1="483.5938" y2="483.5938"/></g><!--class TemperatureSensors--><g id="elem_TemperatureSensors"><rect codeLine="29" fill="#313139" height="64.2969" id="TemperatureSensors" rx="2.5" ry="2.5" style="stroke:#E7E7E7;stroke-width:0.5;" width="201" x="476" y="560"/><ellipse cx="499.1" cy="576" fill="#2E5233" rx="11" ry="11" style="stroke:#E7E7E7;stroke-width:1.0;"/><path d="M501.4438,571.6719 C500.5063,571.2344 499.9125,571.0938 499.0375,571.0938 C496.4125,571.0938 494.4125,573.1719 494.4125,575.8906 L494.4125,577.0156 C494.4125,579.5938 496.5219,581.4844 499.4125,581.4844 C500.6313,581.4844 501.7875,581.1875 502.5375,580.6406 C503.1156,580.2344 503.4438,579.7813 503.4438,579.3906 C503.4438,578.9375 503.0531,578.5469 502.5844,578.5469 C502.3656,578.5469 502.1625,578.625 501.975,578.8125 C501.5219,579.2969 501.5219,579.2969 501.3344,579.3906 C500.9125,579.6563 500.225,579.7813 499.4594,579.7813 C497.4125,579.7813 496.1156,578.6875 496.1156,576.9844 L496.1156,575.8906 C496.1156,574.1094 497.3656,572.7969 499.1,572.7969 C499.6781,572.7969 500.2875,572.9531 500.7563,573.2031 C501.2406,573.4844 501.4125,573.7031 501.5063,574.1094 C501.5688,574.5156 501.6,574.6406 501.7406,574.7656 C501.8813,574.9063 502.1156,575.0156 502.3344,575.0156 C502.6,575.0156 502.8656,574.875 503.0375,574.6563 C503.1469,574.5 503.1781,574.3125 503.1781,573.8906 L503.1781,572.4688 C503.1781,572.0313 503.1625,571.9063 503.0688,571.75 C502.9125,571.4844 502.6313,571.3438 502.3344,571.3438 C502.0375,571.3438 501.8344,571.4375 501.6156,571.75 L501.4438,571.6719 Z " fill="#FFFFFF"/><text fill="#FFFFFF" font-family="sans-serif" font-size="14" lengthAdjust="spacing" textLength="151" x="514.9" y="580.8467">TemperatureSensors</text><line style="stroke:#E7E7E7;stroke-width:0.5;" x1="477" x2="676" y1="592" y2="592"/><line style="stroke:#E7E7E7;stroke-width:0.5;" x1="477" x2="676" y1="600" y2="600"/><ellipse cx="487" cy="613.6484" fill="#84BE84" rx="3" ry="3" style="stroke:#038048;stroke-width:1.0;"/><text fill="#FFFFFF" font-family="sans-serif" font-size="14" lengthAdjust="spacing" textLength="175" x="496" y="616.9951">getTemperature(id): f32</text></g><!--class MotionSensors--><g id="elem_MotionSensors"><rect codeLine="33" fill="#313139" height="64.2969" id="MotionSensors" rx="2.5" ry="2.5" style="stroke:#E7E7E7;stroke-width:0.5;" width="152" x="712.5" y="560"/><ellipse cx="733.8" cy="576" fill="#2E5233" rx="11" ry="11" style="stroke:#E7E7E7;stroke-width:1.0;"/><path d="M736.1438,571.6719 C735.2063,571.2344 734.6125,571.0938 733.7375,571.0938 C731.1125,571.0938 729.1125,573.1719 729.1125,575.8906 L729.1125,577.0156 C729.1125,579.5938 731.2219,581.4844 734.1125,581.4844 C735.3313,581.4844 736.4875,581.1875 737.2375,580.6406 C737.8156,580.2344 738.1438,579.7813 738.1438,579.3906 C738.1438,578.9375 737.7531,578.5469 737.2844,578.5469 C737.0656,578.5469 736.8625,578.625 736.675,578.8125 C736.2219,579.2969 736.2219,579.2969 736.0344,579.3906 C735.6125,579.6563 734.925,579.7813 734.1594,579.7813 C732.1125,579.7813 730.8156,578.6875 730.8156,576.9844 L730.8156,575.8906 C730.8156,574.1094 732.0656,572.7969 733.8,572.7969 C734.3781,572.7969 734.9875,572.9531 735.4563,573.2031 C735.9406,573.4844 736.1125,573.7031 736.2063,574.1094 C736.2688,574.5156 736.3,574.6406 736.4406,574.7656 C736.5813,574.9063 736.8156,575.0156 737.0344,575.0156 C737.3,575.0156 737.5656,574.875 737.7375,574.6563 C737.8469,574.5 737.8781,574.3125 737.8781,573.8906 L737.8781,572.4688 C737.8781,572.0313 737.8625,571.9063 737.7688,571.75 C737.6125,571.4844 737.3313,571.3438 737.0344,571.3438 C736.7375,571.3438 736.5344,571.4375 736.3156,571.75 L736.1438,571.6719 Z " fill="#FFFFFF"/><text fill="#FFFFFF" font-family="sans-serif" font-size="14" lengthAdjust="spacing" textLength="106" x="749.2" y="580.8467">MotionSensors</text><line style="stroke:#E7E7E7;stroke-width:0.5;" x1="713.5" x2="863.5" y1="592" y2="592"/><line style="stroke:#E7E7E7;stroke-width:0.5;" x1="713.5" x2="863.5" y1="600" y2="600"/><ellipse cx="723.5" cy="613.6484" fill="#84BE84" rx="3" ry="3" style="stroke:#038048;stroke-width:1.0;"/><text fill="#FFFFFF" font-family="sans-serif" font-size="14" lengthAdjust="spacing" textLength="126" x="732.5" y="616.9951">isMoving(id): bool</text></g><!--class LightingSystem--><g id="elem_LightingSystem"><rect codeLine="37" fill="#313139" height="80.5938" id="LightingSystem" rx="2.5" ry="2.5" style="stroke:#E7E7E7;stroke-width:0.5;" width="194" x="885.5" y="411"/><ellipse cx="922.55" cy="427" fill="#2E5233" rx="11" ry="11" style="stroke:#E7E7E7;stroke-width:1.0;"/><path d="M924.8938,422.6719 C923.9563,422.2344 923.3625,422.0938 922.4875,422.0938 C919.8625,422.0938 917.8625,424.1719 917.8625,426.8906 L917.8625,428.0156 C917.8625,430.5938 919.9719,432.4844 922.8625,432.4844 C924.0813,432.4844 925.2375,432.1875 925.9875,431.6406 C926.5656,431.2344 926.8938,430.7813 926.8938,430.3906 C926.8938,429.9375 926.5031,429.5469 926.0344,429.5469 C925.8156,429.5469 925.6125,429.625 925.425,429.8125 C924.9719,430.2969 924.9719,430.2969 924.7844,430.3906 C924.3625,430.6563 923.675,430.7813 922.9094,430.7813 C920.8625,430.7813 919.5656,429.6875 919.5656,427.9844 L919.5656,426.8906 C919.5656,425.1094 920.8156,423.7969 922.55,423.7969 C923.1281,423.7969 923.7375,423.9531 924.2063,424.2031 C924.6906,424.4844 924.8625,424.7031 924.9563,425.1094 C925.0188,425.5156 925.05,425.6406 925.1906,425.7656 C925.3313,425.9063 925.5656,426.0156 925.7844,426.0156 C926.05,426.0156 926.3156,425.875 926.4875,425.6563 C926.5969,425.5 926.6281,425.3125 926.6281,424.8906 L926.6281,423.4688 C926.6281,423.0313 926.6125,422.9063 926.5188,422.75 C926.3625,422.4844 926.0813,422.3438 925.7844,422.3438 C925.4875,422.3438 925.2844,422.4375 925.0656,422.75 L924.8938,422.6719 Z " fill="#FFFFFF"/><text fill="#FFFFFF" font-family="sans-serif" font-size="14" lengthAdjust="spacing" textLength="113" x="941.45" y="431.8467">LightingSystem</text><line style="stroke:#E7E7E7;stroke-width:0.5;" x1="886.5" x2="1078.5" y1="443" y2="443"/><line style="stroke:#E7E7E7;stroke-width:0.5;" x1="886.5" x2="1078.5" y1="451" y2="451"/><ellipse cx="896.5" cy="464.6484" fill="#84BE84" rx="3" ry="3" style="stroke:#038048;stroke-width:1.0;"/><text fill="#FFFFFF" font-family="sans-serif" font-size="14" lengthAdjust="spacing" textLength="165" x="905.5" y="467.9951">turnOnLight(id): Status</text><ellipse cx="896.5" cy="480.9453" fill="#84BE84" rx="3" ry="3" style="stroke:#038048;stroke-width:1.0;"/><text fill="#FFFFFF" font-family="sans-serif" font-size="14" lengthAdjust="spacing" textLength="168" x="905.5" y="484.292">turnOffLight(id): Status</text></g><!--class SecuritySystem--><g id="elem_SecuritySystem"><rect codeLine="42" fill="#313139" height="96.8906" id="SecuritySystem" rx="2.5" ry="2.5" style="stroke:#E7E7E7;stroke-width:0.5;" width="186" x="1114.5" y="403"/><ellipse cx="1147.95" cy="419" fill="#2E5233" rx="11" ry="11" style="stroke:#E7E7E7;stroke-width:1.0;"/><path d="M1150.2938,414.6719 C1149.3563,414.2344 1148.7625,414.0938 1147.8875,414.0938 C1145.2625,414.0938 1143.2625,416.1719 1143.2625,418.8906 L1143.2625,420.0156 C1143.2625,422.5938 1145.3719,424.4844 1148.2625,424.4844 C1149.4813,424.4844 1150.6375,424.1875 1151.3875,423.6406 C1151.9656,423.2344 1152.2938,422.7813 1152.2938,422.3906 C1152.2938,421.9375 1151.9031,421.5469 1151.4344,421.5469 C1151.2156,421.5469 1151.0125,421.625 1150.825,421.8125 C1150.3719,422.2969 1150.3719,422.2969 1150.1844,422.3906 C1149.7625,422.6563 1149.075,422.7813 1148.3094,422.7813 C1146.2625,422.7813 1144.9656,421.6875 1144.9656,419.9844 L1144.9656,418.8906 C1144.9656,417.1094 1146.2156,415.7969 1147.95,415.7969 C1148.5281,415.7969 1149.1375,415.9531 1149.6063,416.2031 C1150.0906,416.4844 1150.2625,416.7031 1150.3563,417.1094 C1150.4188,417.5156 1150.45,417.6406 1150.5906,417.7656 C1150.7313,417.9063 1150.9656,418.0156 1151.1844,418.0156 C1151.45,418.0156 1151.7156,417.875 1151.8875,417.6563 C1151.9969,417.5 1152.0281,417.3125 1152.0281,416.8906 L1152.0281,415.4688 C1152.0281,415.0313 1152.0125,414.9063 1151.9188,414.75 C1151.7625,414.4844 1151.4813,414.3438 1151.1844,414.3438 C1150.8875,414.3438 1150.6844,414.4375 1150.4656,414.75 L1150.2938,414.6719 Z " fill="#FFFFFF"/><text fill="#FFFFFF" font-family="sans-serif" font-size="14" lengthAdjust="spacing" textLength="113" x="1166.05" y="423.8467">SecuritySystem</text><line style="stroke:#E7E7E7;stroke-width:0.5;" x1="1115.5" x2="1299.5" y1="435" y2="435"/><line style="stroke:#E7E7E7;stroke-width:0.5;" x1="1115.5" x2="1299.5" y1="443" y2="443"/><ellipse cx="1125.5" cy="456.6484" fill="#84BE84" rx="3" ry="3" style="stroke:#038048;stroke-width:1.0;"/><text fill="#FFFFFF" font-family="sans-serif" font-size="14" lengthAdjust="spacing" textLength="157" x="1134.5" y="459.9951">turnOnAlarm(): Status</text><ellipse cx="1125.5" cy="472.9453" fill="#84BE84" rx="3" ry="3" style="stroke:#038048;stroke-width:1.0;"/><text fill="#FFFFFF" font-family="sans-serif" font-size="14" lengthAdjust="spacing" textLength="160" x="1134.5" y="476.292">turnOffAlarm(): Status</text><ellipse cx="1125.5" cy="489.2422" fill="#84BE84" rx="3" ry="3" style="stroke:#038048;stroke-width:1.0;"/><text fill="#FFFFFF" font-family="sans-serif" font-size="14" lengthAdjust="spacing" textLength="132" x="1134.5" y="492.5889">callPolice(): Status</text></g><!--class SmartFridge--><g id="elem_SmartFridge"><rect codeLine="48" fill="#313139" height="64.2969" id="SmartFridge" rx="2.5" ry="2.5" style="stroke:#E7E7E7;stroke-width:0.5;" width="196" x="1335.5" y="419.5"/><ellipse cx="1384.75" cy="435.5" fill="#2E5233" rx="11" ry="11" style="stroke:#E7E7E7;stroke-width:1.0;"/><path d="M1387.0938,431.1719 C1386.1563,430.7344 1385.5625,430.5938 1384.6875,430.5938 C1382.0625,430.5938 1380.0625,432.6719 1380.0625,435.3906 L1380.0625,436.5156 C1380.0625,439.0938 1382.1719,440.9844 1385.0625,440.9844 C1386.2813,440.9844 1387.4375,440.6875 1388.1875,440.1406 C1388.7656,439.7344 1389.0938,439.2813 1389.0938,438.8906 C1389.0938,438.4375 1388.7031,438.0469 1388.2344,438.0469 C1388.0156,438.0469 1387.8125,438.125 1387.625,438.3125 C1387.1719,438.7969 1387.1719,438.7969 1386.9844,438.8906 C1386.5625,439.1563 1385.875,439.2813 1385.1094,439.2813 C1383.0625,439.2813 1381.7656,438.1875 1381.7656,436.4844 L1381.7656,435.3906 C1381.7656,433.6094 1383.0156,432.2969 1384.75,432.2969 C1385.3281,432.2969 1385.9375,432.4531 1386.4063,432.7031 C1386.8906,432.9844 1387.0625,433.2031 1387.1563,433.6094 C1387.2188,434.0156 1387.25,434.1406 1387.3906,434.2656 C1387.5313,434.4063 1387.7656,434.5156 1387.9844,434.5156 C1388.25,434.5156 1388.5156,434.375 1388.6875,434.1563 C1388.7969,434 1388.8281,433.8125 1388.8281,433.3906 L1388.8281,431.9688 C1388.8281,431.5313 1388.8125,431.4063 1388.7188,431.25 C1388.5625,430.9844 1388.2813,430.8438 1387.9844,430.8438 C1387.6875,430.8438 1387.4844,430.9375 1387.2656,431.25 L1387.0938,431.1719 Z " fill="#FFFFFF"/><text fill="#FFFFFF" font-family="sans-serif" font-size="14" lengthAdjust="spacing" textLength="89" x="1405.25" y="440.3467">SmartFridge</text><line style="stroke:#E7E7E7;stroke-width:0.5;" x1="1336.5" x2="1530.5" y1="451.5" y2="451.5"/><line style="stroke:#E7E7E7;stroke-width:0.5;" x1="1336.5" x2="1530.5" y1="459.5" y2="459.5"/><ellipse cx="1346.5" cy="473.1484" fill="#84BE84" rx="3" ry="3" style="stroke:#038048;stroke-width:1.0;"/><text fill="#FFFFFF" font-family="sans-serif" font-size="14" lengthAdjust="spacing" textLength="170" x="1355.5" y="476.4951">getProducts(): Products</text></g><!--class PhoneApp--><g id="elem_PhoneApp"><rect codeLine="52" fill="#313139" height="80.5938" id="PhoneApp" rx="2.5" ry="2.5" style="stroke:#E7E7E7;stroke-width:0.5;" width="218" x="723.5" y="7"/><ellipse cx="790.75" cy="23" fill="#2E5233" rx="11" ry="11" style="stroke:#E7E7E7;stroke-width:1.0;"/><path d="M793.0938,18.6719 C792.1563,18.2344 791.5625,18.0938 790.6875,18.0938 C788.0625,18.0938 786.0625,20.1719 786.0625,22.8906 L786.0625,24.0156 C786.0625,26.5938 788.1719,28.4844 791.0625,28.4844 C792.2813,28.4844 793.4375,28.1875 794.1875,27.6406 C794.7656,27.2344 795.0938,26.7813 795.0938,26.3906 C795.0938,25.9375 794.7031,25.5469 794.2344,25.5469 C794.0156,25.5469 793.8125,25.625 793.625,25.8125 C793.1719,26.2969 793.1719,26.2969 792.9844,26.3906 C792.5625,26.6563 791.875,26.7813 791.1094,26.7813 C789.0625,26.7813 787.7656,25.6875 787.7656,23.9844 L787.7656,22.8906 C787.7656,21.1094 789.0156,19.7969 790.75,19.7969 C791.3281,19.7969 791.9375,19.9531 792.4063,20.2031 C792.8906,20.4844 793.0625,20.7031 793.1563,21.1094 C793.2188,21.5156 793.25,21.6406 793.3906,21.7656 C793.5313,21.9063 793.7656,22.0156 793.9844,22.0156 C794.25,22.0156 794.5156,21.875 794.6875,21.6563 C794.7969,21.5 794.8281,21.3125 794.8281,20.8906 L794.8281,19.4688 C794.8281,19.0313 794.8125,18.9063 794.7188,18.75 C794.5625,18.4844 794.2813,18.3438 793.9844,18.3438 C793.6875,18.3438 793.4844,18.4375 793.2656,18.75 L793.0938,18.6719 Z " fill="#FFFFFF"/><text fill="#FFFFFF" font-family="sans-serif" font-size="14" lengthAdjust="spacing" textLength="75" x="811.25" y="27.8467">PhoneApp</text><line style="stroke:#E7E7E7;stroke-width:0.5;" x1="724.5" x2="940.5" y1="39" y2="39"/><line style="stroke:#E7E7E7;stroke-width:0.5;" x1="724.5" x2="940.5" y1="47" y2="47"/><ellipse cx="734.5" cy="60.6484" fill="#84BE84" rx="3" ry="3" style="stroke:#038048;stroke-width:1.0;"/><text fill="#FFFFFF" font-family="sans-serif" font-size="14" lengthAdjust="spacing" textLength="168" x="743.5" y="63.9951">getLocation(): Location</text><ellipse cx="734.5" cy="76.9453" fill="#84BE84" rx="3" ry="3" style="stroke:#038048;stroke-width:1.0;"/><text fill="#FFFFFF" font-family="sans-serif" font-size="14" lengthAdjust="spacing" textLength="192" x="743.5" y="80.292">notify(notification): Status</text></g><!--reverse link ControlUnit to SmartBrewer--><g id="link_ControlUnit_SmartBrewer"><path codeLine="57" d="M689.863,274.575 C561.024,301.673 367.103,346.811 203.5,403 C196.484,405.41 189.293,408.098 182.12,410.936 " fill="none" id="ControlUnit-backto-SmartBrewer" style="stroke:#E7E7E7;stroke-width:1.0;"/><polygon fill="#E7E7E7" points="702.904,271.847,696.2119,269.1608,691.1584,274.305,697.8506,276.9912,702.904,271.847" style="stroke:#E7E7E7;stroke-width:1.0;"/></g><!--reverse link ControlUnit to AcController--><g id="link_ControlUnit_AcController"><path codeLine="58" d="M690.581,306.565 C610.962,340.263 513.874,381.354 443.846,410.992 " fill="none" id="ControlUnit-backto-AcController" style="stroke:#E7E7E7;stroke-width:1.0;"/><polygon fill="#E7E7E7" points="702.699,301.437,695.6145,300.0918,691.648,306.114,698.7325,307.4592,702.699,301.437" style="stroke:#E7E7E7;stroke-width:1.0;"/></g><!--reverse link ControlUnit to SensorSystem--><g id="link_ControlUnit_SensorSystem"><path codeLine="59" d="M753.624,353.772 C738.663,374.118 723.908,394.185 711.75,410.72 " fill="none" id="ControlUnit-backto-SensorSystem" style="stroke:#E7E7E7;stroke-width:1.0;"/><polygon fill="#E7E7E7" points="761.453,343.123,754.6759,345.587,754.3438,352.7905,761.1209,350.3265,761.453,343.123" style="stroke:#E7E7E7;stroke-width:1.0;"/></g><!--reverse link ControlUnit to LightingSystem--><g id="link_ControlUnit_LightingSystem"><path codeLine="60" d="M911.376,353.772 C926.337,374.118 941.092,394.185 953.25,410.72 " fill="none" id="ControlUnit-backto-LightingSystem" style="stroke:#E7E7E7;stroke-width:1.0;"/><polygon fill="#E7E7E7" points="903.547,343.123,903.8791,350.3265,910.6562,352.7905,910.3241,345.587,903.547,343.123" style="stroke:#E7E7E7;stroke-width:1.0;"/></g><!--reverse link SensorSystem to TemperatureSensors--><g id="link_SensorSystem_TemperatureSensors"><path codeLine="61" d="M644.21,502.53 C629.608,521.609 613.388,542.802 600.485,559.6614 " fill="none" id="SensorSystem-backto-TemperatureSensors" style="stroke:#E7E7E7;stroke-width:1.0;"/><polygon fill="#E7E7E7" points="652.125,492.189,645.3022,494.5233,644.8327,501.7191,651.6556,499.3848,652.125,492.189" style="stroke:#E7E7E7;stroke-width:1.0;"/></g><!--reverse link SensorSystem to MotionSensors--><g id="link_SensorSystem_MotionSensors"><path codeLine="62" d="M720.79,502.53 C735.392,521.609 751.612,542.802 764.515,559.6614 " fill="none" id="SensorSystem-backto-MotionSensors" style="stroke:#E7E7E7;stroke-width:1.0;"/><polygon fill="#E7E7E7" points="712.875,492.189,713.3444,499.3848,720.1673,501.7191,719.6978,494.5233,712.875,492.189" style="stroke:#E7E7E7;stroke-width:1.0;"/></g><!--reverse link ControlUnit to SecuritySystem--><g id="link_ControlUnit_SecuritySystem"><path codeLine="63" d="M973.8,323.367 C1022.93,350.094 1076.57,379.275 1120.06,402.932 " fill="none" id="ControlUnit-backto-SecuritySystem" style="stroke:#E7E7E7;stroke-width:1.0;"/><polygon fill="#E7E7E7" points="962.079,316.991,965.438,323.372,972.62,322.7257,969.2611,316.3447,962.079,316.991" style="stroke:#E7E7E7;stroke-width:1.0;"/></g><!--reverse link ControlUnit to SmartFridge--><g id="link_ControlUnit_SmartFridge"><path codeLine="64" d="M974.659,289.228 C1071.85,319.207 1203.26,361.248 1317.5,403 C1331.4,408.08 1346.1,413.812 1360.19,419.492 " fill="none" id="ControlUnit-backto-SmartFridge" style="stroke:#E7E7E7;stroke-width:1.0;"/><polygon fill="#E7E7E7" points="962.08,285.356,966.6377,290.9441,973.549,288.8862,968.9912,283.2981,962.08,285.356" style="stroke:#E7E7E7;stroke-width:1.0;"/></g><!--link PhoneApp to ControlUnit--><g id="link_PhoneApp_ControlUnit"><path codeLine="65" d="M832.5,101.379 C832.5,111.821 832.5,123.137 832.5,134.675 " fill="none" id="PhoneApp-ControlUnit" style="stroke:#E7E7E7;stroke-width:1.0;"/><polygon fill="#E7E7E7" points="832.5,88.164,828.5,94.164,832.5,100.164,836.5,94.164,832.5,88.164" style="stroke:#E7E7E7;stroke-width:1.0;"/><polygon fill="#E7E7E7" points="832.5,147.761,836.5,141.761,832.5,135.761,828.5,141.761,832.5,147.761" style="stroke:#E7E7E7;stroke-width:1.0;"/></g><!--SRC=[TLJ1RiCW3BtdApZIRhbijzowIZkrMgLq7q09IP48H40sLTF-VII4O98i5soUd-qysL11Z4579QrMubDoYtuovBudqn9jtpJxPhf0PNGyIkX44GDy09x71M_kbikcV1ZBsWAT4d-gmAHHEaIKm0iuxJMtZnW1VT3bk-PLmwOklUFHxguaEtHTWIwJDTxdUIXWhwpjc2QsrmpRQE_cW8jMLK-jmTraxBBVBAEZQa2LeDhDUKTLrupXNO6y5P4h8yErEs8Ig5t8ubgG7nBpwXd1fjmVMcSP45JN_qV5Fe6qSud8yB0P-bhU-TXMMQxa77Q6RgooPeTQJQephroFzUjBf2OP0ukRi_fo8-FZRqg9I4Z7APLjn3nfGwur2cI2yvKcFGYYMxoTSXEZH8YB4fmol5KgJYeGQPurnmXsv8GH1eIJecHGRY04suFIALe_y7Xm3oHjm8NVvtcou4iisUuL4Qxj4bniVJA70xunSAkOTDhMvPCtOVEtfXTXriy1U_ZY_G40]--></g></svg>