<?xml version="1.0" encoding="us-ascii" standalone="no"?><svg xmlns="http://www.w3.org/2000/svg" xmlns:xlink="http://www.w3.org/1999/xlink" contentStyleType="text/css" height="434px" preserveAspectRatio="none" style="width:640px;height:434px;background:#1B1B1B;" version="1.1" viewBox="0 0 640 434" width="640px" zoomAndPan="magnify"><defs/><g><rect fill="#1B1B1B" height="434" style="stroke:none;stroke-width:1.0;" width="640" x="0" y="0"/><!--class  --><g id="elem_ "><rect codeLine="10" fill="#313139" height="88.8594" id=" " rx="2.5" ry="2.5" style="stroke:#E7E7E7;stroke-width:0.5;" width="112" x="7" y="7"/><ellipse cx="22" cy="27.1328" fill="#2E5233" rx="11" ry="11" style="stroke:#E7E7E7;stroke-width:1.0;"/><path d="M24.3438,22.8047 C23.4063,22.3672 22.8125,22.2266 21.9375,22.2266 C19.3125,22.2266 17.3125,24.3047 17.3125,27.0234 L17.3125,28.1484 C17.3125,30.7266 19.4219,32.6172 22.3125,32.6172 C23.5313,32.6172 24.6875,32.3203 25.4375,31.7734 C26.0156,31.3672 26.3438,30.9141 26.3438,30.5234 C26.3438,30.0703 25.9531,29.6797 25.4844,29.6797 C25.2656,29.6797 25.0625,29.7578 24.875,29.9453 C24.4219,30.4297 24.4219,30.4297 24.2344,30.5234 C23.8125,30.7891 23.125,30.9141 22.3594,30.9141 C20.3125,30.9141 19.0156,29.8203 19.0156,28.1172 L19.0156,27.0234 C19.0156,25.2422 20.2656,23.9297 22,23.9297 C22.5781,23.9297 23.1875,24.0859 23.6563,24.3359 C24.1406,24.6172 24.3125,24.8359 24.4063,25.2422 C24.4688,25.6484 24.5,25.7734 24.6406,25.8984 C24.7813,26.0391 25.0156,26.1484 25.2344,26.1484 C25.5,26.1484 25.7656,26.0078 25.9375,25.7891 C26.0469,25.6328 26.0781,25.4453 26.0781,25.0234 L26.0781,23.6016 C26.0781,23.1641 26.0625,23.0391 25.9688,22.8828 C25.8125,22.6172 25.5313,22.4766 25.2344,22.4766 C24.9375,22.4766 24.7344,22.5703 24.5156,22.8828 L24.3438,22.8047 Z " fill="#FFFFFF"/><text fill="#000000" font-family="sans-serif" font-size="12" font-style="italic" lengthAdjust="spacing" textLength="84" x="34" y="23.1387">&#171;(0.85,0.75)&#187;</text><text fill="#FFFFFF" font-family="sans-serif" font-size="14" lengthAdjust="spacing" textLength="4" x="74" y="38.9639">&#160;</text><line style="stroke:#E7E7E7;stroke-width:0.5;" x1="8" x2="118" y1="47.2656" y2="47.2656"/><text fill="#FFFFFF" font-family="sans-serif" font-size="14" lengthAdjust="spacing" textLength="96" x="13" y="64.2607">+weight : 1.0</text><text fill="#FFFFFF" font-family="sans-serif" font-size="14" lengthAdjust="spacing" textLength="94" x="13" y="80.5576">+symbol : " "</text><line style="stroke:#E7E7E7;stroke-width:0.5;" x1="8" x2="118" y1="87.8594" y2="87.8594"/></g><!--class a--><g id="elem_a"><rect codeLine="15" fill="#313139" height="88.8594" id="a" rx="2.5" ry="2.5" style="stroke:#E7E7E7;stroke-width:0.5;" width="110" x="297" y="173"/><ellipse cx="318.3" cy="193.1328" fill="#2E5233" rx="11" ry="11" style="stroke:#E7E7E7;stroke-width:1.0;"/><path d="M320.6438,188.8047 C319.7063,188.3672 319.1125,188.2266 318.2375,188.2266 C315.6125,188.2266 313.6125,190.3047 313.6125,193.0234 L313.6125,194.1484 C313.6125,196.7266 315.7219,198.6172 318.6125,198.6172 C319.8313,198.6172 320.9875,198.3203 321.7375,197.7734 C322.3156,197.3672 322.6438,196.9141 322.6438,196.5234 C322.6438,196.0703 322.2531,195.6797 321.7844,195.6797 C321.5656,195.6797 321.3625,195.7578 321.175,195.9453 C320.7219,196.4297 320.7219,196.4297 320.5344,196.5234 C320.1125,196.7891 319.425,196.9141 318.6594,196.9141 C316.6125,196.9141 315.3156,195.8203 315.3156,194.1172 L315.3156,193.0234 C315.3156,191.2422 316.5656,189.9297 318.3,189.9297 C318.8781,189.9297 319.4875,190.0859 319.9563,190.3359 C320.4406,190.6172 320.6125,190.8359 320.7063,191.2422 C320.7688,191.6484 320.8,191.7734 320.9406,191.8984 C321.0813,192.0391 321.3156,192.1484 321.5344,192.1484 C321.8,192.1484 322.0656,192.0078 322.2375,191.7891 C322.3469,191.6328 322.3781,191.4453 322.3781,191.0234 L322.3781,189.6016 C322.3781,189.1641 322.3625,189.0391 322.2688,188.8828 C322.1125,188.6172 321.8313,188.4766 321.5344,188.4766 C321.2375,188.4766 321.0344,188.5703 320.8156,188.8828 L320.6438,188.8047 Z " fill="#FFFFFF"/><text fill="#000000" font-family="sans-serif" font-size="12" font-style="italic" lengthAdjust="spacing" textLength="68" x="331.7" y="189.1387">&#171;(0.2,0.5)&#187;</text><text fill="#FFFFFF" font-family="sans-serif" font-size="14" lengthAdjust="spacing" textLength="8" x="361.7" y="204.9639">a</text><line style="stroke:#E7E7E7;stroke-width:0.5;" x1="298" x2="406" y1="213.2656" y2="213.2656"/><text fill="#FFFFFF" font-family="sans-serif" font-size="14" lengthAdjust="spacing" textLength="96" x="303" y="230.2607">+weight : 0.3</text><text fill="#FFFFFF" font-family="sans-serif" font-size="14" lengthAdjust="spacing" textLength="98" x="303" y="246.5576">+symbol : "a"</text><line style="stroke:#E7E7E7;stroke-width:0.5;" x1="298" x2="406" y1="253.8594" y2="253.8594"/></g><!--class b--><g id="elem_b"><rect codeLine="20" fill="#313139" height="88.8594" id="b" rx="2.5" ry="2.5" style="stroke:#E7E7E7;stroke-width:0.5;" width="112" x="150" y="173"/><ellipse cx="172.2" cy="193.1328" fill="#2E5233" rx="11" ry="11" style="stroke:#E7E7E7;stroke-width:1.0;"/><path d="M174.5438,188.8047 C173.6063,188.3672 173.0125,188.2266 172.1375,188.2266 C169.5125,188.2266 167.5125,190.3047 167.5125,193.0234 L167.5125,194.1484 C167.5125,196.7266 169.6219,198.6172 172.5125,198.6172 C173.7313,198.6172 174.8875,198.3203 175.6375,197.7734 C176.2156,197.3672 176.5438,196.9141 176.5438,196.5234 C176.5438,196.0703 176.1531,195.6797 175.6844,195.6797 C175.4656,195.6797 175.2625,195.7578 175.075,195.9453 C174.6219,196.4297 174.6219,196.4297 174.4344,196.5234 C174.0125,196.7891 173.325,196.9141 172.5594,196.9141 C170.5125,196.9141 169.2156,195.8203 169.2156,194.1172 L169.2156,193.0234 C169.2156,191.2422 170.4656,189.9297 172.2,189.9297 C172.7781,189.9297 173.3875,190.0859 173.8563,190.3359 C174.3406,190.6172 174.5125,190.8359 174.6063,191.2422 C174.6688,191.6484 174.7,191.7734 174.8406,191.8984 C174.9813,192.0391 175.2156,192.1484 175.4344,192.1484 C175.7,192.1484 175.9656,192.0078 176.1375,191.7891 C176.2469,191.6328 176.2781,191.4453 176.2781,191.0234 L176.2781,189.6016 C176.2781,189.1641 176.2625,189.0391 176.1688,188.8828 C176.0125,188.6172 175.7313,188.4766 175.4344,188.4766 C175.1375,188.4766 174.9344,188.5703 174.7156,188.8828 L174.5438,188.8047 Z " fill="#FFFFFF"/><text fill="#000000" font-family="sans-serif" font-size="12" font-style="italic" lengthAdjust="spacing" textLength="68" x="185.8" y="189.1387">&#171;(0.4,0.5)&#187;</text><text fill="#FFFFFF" font-family="sans-serif" font-size="14" lengthAdjust="spacing" textLength="10" x="214.8" y="204.9639">b</text><line style="stroke:#E7E7E7;stroke-width:0.5;" x1="151" x2="261" y1="213.2656" y2="213.2656"/><text fill="#FFFFFF" font-family="sans-serif" font-size="14" lengthAdjust="spacing" textLength="95" x="156" y="230.2607">+weight : 0.2</text><text fill="#FFFFFF" font-family="sans-serif" font-size="14" lengthAdjust="spacing" textLength="100" x="156" y="246.5576">+symbol : "b"</text><line style="stroke:#E7E7E7;stroke-width:0.5;" x1="151" x2="261" y1="253.8594" y2="253.8594"/></g><!--class c--><g id="elem_c"><rect codeLine="25" fill="#313139" height="88.8594" id="c" rx="2.5" ry="2.5" style="stroke:#E7E7E7;stroke-width:0.5;" width="110" x="372" y="339"/><ellipse cx="393.3" cy="359.1328" fill="#2E5233" rx="11" ry="11" style="stroke:#E7E7E7;stroke-width:1.0;"/><path d="M395.6438,354.8047 C394.7063,354.3672 394.1125,354.2266 393.2375,354.2266 C390.6125,354.2266 388.6125,356.3047 388.6125,359.0234 L388.6125,360.1484 C388.6125,362.7266 390.7219,364.6172 393.6125,364.6172 C394.8313,364.6172 395.9875,364.3203 396.7375,363.7734 C397.3156,363.3672 397.6438,362.9141 397.6438,362.5234 C397.6438,362.0703 397.2531,361.6797 396.7844,361.6797 C396.5656,361.6797 396.3625,361.7578 396.175,361.9453 C395.7219,362.4297 395.7219,362.4297 395.5344,362.5234 C395.1125,362.7891 394.425,362.9141 393.6594,362.9141 C391.6125,362.9141 390.3156,361.8203 390.3156,360.1172 L390.3156,359.0234 C390.3156,357.2422 391.5656,355.9297 393.3,355.9297 C393.8781,355.9297 394.4875,356.0859 394.9563,356.3359 C395.4406,356.6172 395.6125,356.8359 395.7063,357.2422 C395.7688,357.6484 395.8,357.7734 395.9406,357.8984 C396.0813,358.0391 396.3156,358.1484 396.5344,358.1484 C396.8,358.1484 397.0656,358.0078 397.2375,357.7891 C397.3469,357.6328 397.3781,357.4453 397.3781,357.0234 L397.3781,355.6016 C397.3781,355.1641 397.3625,355.0391 397.2688,354.8828 C397.1125,354.6172 396.8313,354.4766 396.5344,354.4766 C396.2375,354.4766 396.0344,354.5703 395.8156,354.8828 L395.6438,354.8047 Z " fill="#FFFFFF"/><text fill="#000000" font-family="sans-serif" font-size="12" font-style="italic" lengthAdjust="spacing" textLength="68" x="406.7" y="355.1387">&#171;(0.6,0.5)&#187;</text><text fill="#FFFFFF" font-family="sans-serif" font-size="14" lengthAdjust="spacing" textLength="8" x="436.7" y="370.9639">c</text><line style="stroke:#E7E7E7;stroke-width:0.5;" x1="373" x2="481" y1="379.2656" y2="379.2656"/><text fill="#FFFFFF" font-family="sans-serif" font-size="14" lengthAdjust="spacing" textLength="96" x="378" y="396.2607">+weight : 0.1</text><text fill="#FFFFFF" font-family="sans-serif" font-size="14" lengthAdjust="spacing" textLength="98" x="378" y="412.5576">+symbol : "c"</text><line style="stroke:#E7E7E7;stroke-width:0.5;" x1="373" x2="481" y1="419.8594" y2="419.8594"/></g><!--class d--><g id="elem_d"><rect codeLine="30" fill="#313139" height="88.8594" id="d" rx="2.5" ry="2.5" style="stroke:#E7E7E7;stroke-width:0.5;" width="116" x="517" y="339"/><ellipse cx="541" cy="359.1328" fill="#2E5233" rx="11" ry="11" style="stroke:#E7E7E7;stroke-width:1.0;"/><path d="M543.3438,354.8047 C542.4063,354.3672 541.8125,354.2266 540.9375,354.2266 C538.3125,354.2266 536.3125,356.3047 536.3125,359.0234 L536.3125,360.1484 C536.3125,362.7266 538.4219,364.6172 541.3125,364.6172 C542.5313,364.6172 543.6875,364.3203 544.4375,363.7734 C545.0156,363.3672 545.3438,362.9141 545.3438,362.5234 C545.3438,362.0703 544.9531,361.6797 544.4844,361.6797 C544.2656,361.6797 544.0625,361.7578 543.875,361.9453 C543.4219,362.4297 543.4219,362.4297 543.2344,362.5234 C542.8125,362.7891 542.125,362.9141 541.3594,362.9141 C539.3125,362.9141 538.0156,361.8203 538.0156,360.1172 L538.0156,359.0234 C538.0156,357.2422 539.2656,355.9297 541,355.9297 C541.5781,355.9297 542.1875,356.0859 542.6563,356.3359 C543.1406,356.6172 543.3125,356.8359 543.4063,357.2422 C543.4688,357.6484 543.5,357.7734 543.6406,357.8984 C543.7813,358.0391 544.0156,358.1484 544.2344,358.1484 C544.5,358.1484 544.7656,358.0078 544.9375,357.7891 C545.0469,357.6328 545.0781,357.4453 545.0781,357.0234 L545.0781,355.6016 C545.0781,355.1641 545.0625,355.0391 544.9688,354.8828 C544.8125,354.6172 544.5313,354.4766 544.2344,354.4766 C543.9375,354.4766 543.7344,354.5703 543.5156,354.8828 L543.3438,354.8047 Z " fill="#FFFFFF"/><text fill="#000000" font-family="sans-serif" font-size="12" font-style="italic" lengthAdjust="spacing" textLength="68" x="555" y="355.1387">&#171;(0.8,0.5)&#187;</text><text fill="#FFFFFF" font-family="sans-serif" font-size="14" lengthAdjust="spacing" textLength="9" x="584.5" y="370.9639">d</text><line style="stroke:#E7E7E7;stroke-width:0.5;" x1="518" x2="632" y1="379.2656" y2="379.2656"/><text fill="#FFFFFF" font-family="sans-serif" font-size="14" lengthAdjust="spacing" textLength="104" x="523" y="396.2607">+weight : 0.25</text><text fill="#FFFFFF" font-family="sans-serif" font-size="14" lengthAdjust="spacing" textLength="99" x="523" y="412.5576">+symbol : "d"</text><line style="stroke:#E7E7E7;stroke-width:0.5;" x1="518" x2="632" y1="419.8594" y2="419.8594"/></g><!--class e--><g id="elem_e"><rect codeLine="35" fill="#313139" height="88.8594" id="e" rx="2.5" ry="2.5" style="stroke:#E7E7E7;stroke-width:0.5;" width="117" x="449.5" y="7"/><ellipse cx="473.95" cy="27.1328" fill="#2E5233" rx="11" ry="11" style="stroke:#E7E7E7;stroke-width:1.0;"/><path d="M476.2938,22.8047 C475.3563,22.3672 474.7625,22.2266 473.8875,22.2266 C471.2625,22.2266 469.2625,24.3047 469.2625,27.0234 L469.2625,28.1484 C469.2625,30.7266 471.3719,32.6172 474.2625,32.6172 C475.4813,32.6172 476.6375,32.3203 477.3875,31.7734 C477.9656,31.3672 478.2938,30.9141 478.2938,30.5234 C478.2938,30.0703 477.9031,29.6797 477.4344,29.6797 C477.2156,29.6797 477.0125,29.7578 476.825,29.9453 C476.3719,30.4297 476.3719,30.4297 476.1844,30.5234 C475.7625,30.7891 475.075,30.9141 474.3094,30.9141 C472.2625,30.9141 470.9656,29.8203 470.9656,28.1172 L470.9656,27.0234 C470.9656,25.2422 472.2156,23.9297 473.95,23.9297 C474.5281,23.9297 475.1375,24.0859 475.6063,24.3359 C476.0906,24.6172 476.2625,24.8359 476.3563,25.2422 C476.4188,25.6484 476.45,25.7734 476.5906,25.8984 C476.7313,26.0391 476.9656,26.1484 477.1844,26.1484 C477.45,26.1484 477.7156,26.0078 477.8875,25.7891 C477.9969,25.6328 478.0281,25.4453 478.0281,25.0234 L478.0281,23.6016 C478.0281,23.1641 478.0125,23.0391 477.9188,22.8828 C477.7625,22.6172 477.4813,22.4766 477.1844,22.4766 C476.8875,22.4766 476.6844,22.5703 476.4656,22.8828 L476.2938,22.8047 Z " fill="#FFFFFF"/><text fill="#000000" font-family="sans-serif" font-size="12" font-style="italic" lengthAdjust="spacing" textLength="68" x="488.05" y="23.1387">&#171;(1.0,0.5)&#187;</text><text fill="#FFFFFF" font-family="sans-serif" font-size="14" lengthAdjust="spacing" textLength="9" x="517.55" y="38.9639">e</text><line style="stroke:#E7E7E7;stroke-width:0.5;" x1="450.5" x2="565.5" y1="47.2656" y2="47.2656"/><text fill="#FFFFFF" font-family="sans-serif" font-size="14" lengthAdjust="spacing" textLength="105" x="455.5" y="64.2607">+weight : 0.15</text><text fill="#FFFFFF" font-family="sans-serif" font-size="14" lengthAdjust="spacing" textLength="99" x="455.5" y="80.5576">+symbol : "e"</text><line style="stroke:#E7E7E7;stroke-width:0.5;" x1="450.5" x2="565.5" y1="87.8594" y2="87.8594"/></g><!--class abcd--><g id="elem_abcd"><rect codeLine="40" fill="#313139" height="88.8594" id="abcd" rx="2.5" ry="2.5" style="stroke:#E7E7E7;stroke-width:0.5;" width="116" x="298" y="7"/><ellipse cx="314.8" cy="27.1328" fill="#2E5233" rx="11" ry="11" style="stroke:#E7E7E7;stroke-width:1.0;"/><path d="M317.1438,22.8047 C316.2063,22.3672 315.6125,22.2266 314.7375,22.2266 C312.1125,22.2266 310.1125,24.3047 310.1125,27.0234 L310.1125,28.1484 C310.1125,30.7266 312.2219,32.6172 315.1125,32.6172 C316.3313,32.6172 317.4875,32.3203 318.2375,31.7734 C318.8156,31.3672 319.1438,30.9141 319.1438,30.5234 C319.1438,30.0703 318.7531,29.6797 318.2844,29.6797 C318.0656,29.6797 317.8625,29.7578 317.675,29.9453 C317.2219,30.4297 317.2219,30.4297 317.0344,30.5234 C316.6125,30.7891 315.925,30.9141 315.1594,30.9141 C313.1125,30.9141 311.8156,29.8203 311.8156,28.1172 L311.8156,27.0234 C311.8156,25.2422 313.0656,23.9297 314.8,23.9297 C315.3781,23.9297 315.9875,24.0859 316.4563,24.3359 C316.9406,24.6172 317.1125,24.8359 317.2063,25.2422 C317.2688,25.6484 317.3,25.7734 317.4406,25.8984 C317.5813,26.0391 317.8156,26.1484 318.0344,26.1484 C318.3,26.1484 318.5656,26.0078 318.7375,25.7891 C318.8469,25.6328 318.8781,25.4453 318.8781,25.0234 L318.8781,23.6016 C318.8781,23.1641 318.8625,23.0391 318.7688,22.8828 C318.6125,22.6172 318.3313,22.4766 318.0344,22.4766 C317.7375,22.4766 317.5344,22.5703 317.3156,22.8828 L317.1438,22.8047 Z " fill="#FFFFFF"/><text fill="#000000" font-family="sans-serif" font-size="12" font-style="italic" lengthAdjust="spacing" textLength="84" x="327.2" y="23.1387">&#171;(0.45,0.25)&#187;</text><text fill="#FFFFFF" font-family="sans-serif" font-size="14" lengthAdjust="spacing" textLength="35" x="351.7" y="38.9639">abcd</text><line style="stroke:#E7E7E7;stroke-width:0.5;" x1="299" x2="413" y1="47.2656" y2="47.2656"/><text fill="#FFFFFF" font-family="sans-serif" font-size="14" lengthAdjust="spacing" textLength="104" x="304" y="64.2607">+weight : 0.85</text><text fill="#FFFFFF" font-family="sans-serif" font-size="14" lengthAdjust="spacing" textLength="94" x="304" y="80.5576">+symbol : " "</text><line style="stroke:#E7E7E7;stroke-width:0.5;" x1="299" x2="413" y1="87.8594" y2="87.8594"/></g><!--class ab--><g id="elem_ab"><rect codeLine="45" fill="#313139" height="88.8594" id="ab" rx="2.5" ry="2.5" style="stroke:#E7E7E7;stroke-width:0.5;" width="108" x="154" y="7"/><ellipse cx="174.4" cy="27.1328" fill="#2E5233" rx="11" ry="11" style="stroke:#E7E7E7;stroke-width:1.0;"/><path d="M176.7438,22.8047 C175.8063,22.3672 175.2125,22.2266 174.3375,22.2266 C171.7125,22.2266 169.7125,24.3047 169.7125,27.0234 L169.7125,28.1484 C169.7125,30.7266 171.8219,32.6172 174.7125,32.6172 C175.9313,32.6172 177.0875,32.3203 177.8375,31.7734 C178.4156,31.3672 178.7438,30.9141 178.7438,30.5234 C178.7438,30.0703 178.3531,29.6797 177.8844,29.6797 C177.6656,29.6797 177.4625,29.7578 177.275,29.9453 C176.8219,30.4297 176.8219,30.4297 176.6344,30.5234 C176.2125,30.7891 175.525,30.9141 174.7594,30.9141 C172.7125,30.9141 171.4156,29.8203 171.4156,28.1172 L171.4156,27.0234 C171.4156,25.2422 172.6656,23.9297 174.4,23.9297 C174.9781,23.9297 175.5875,24.0859 176.0563,24.3359 C176.5406,24.6172 176.7125,24.8359 176.8063,25.2422 C176.8688,25.6484 176.9,25.7734 177.0406,25.8984 C177.1813,26.0391 177.4156,26.1484 177.6344,26.1484 C177.9,26.1484 178.1656,26.0078 178.3375,25.7891 C178.4469,25.6328 178.4781,25.4453 178.4781,25.0234 L178.4781,23.6016 C178.4781,23.1641 178.4625,23.0391 178.3688,22.8828 C178.2125,22.6172 177.9313,22.4766 177.6344,22.4766 C177.3375,22.4766 177.1344,22.5703 176.9156,22.8828 L176.7438,22.8047 Z " fill="#FFFFFF"/><text fill="#000000" font-family="sans-serif" font-size="12" font-style="italic" lengthAdjust="spacing" textLength="68" x="187.6" y="23.1387">&#171;(0.3,0.0)&#187;</text><text fill="#FFFFFF" font-family="sans-serif" font-size="14" lengthAdjust="spacing" textLength="18" x="212.6" y="38.9639">ab</text><line style="stroke:#E7E7E7;stroke-width:0.5;" x1="155" x2="261" y1="47.2656" y2="47.2656"/><text fill="#FFFFFF" font-family="sans-serif" font-size="14" lengthAdjust="spacing" textLength="96" x="160" y="64.2607">+weight : 0.5</text><text fill="#FFFFFF" font-family="sans-serif" font-size="14" lengthAdjust="spacing" textLength="94" x="160" y="80.5576">+symbol : " "</text><line style="stroke:#E7E7E7;stroke-width:0.5;" x1="155" x2="261" y1="87.8594" y2="87.8594"/></g><!--class cd--><g id="elem_cd"><rect codeLine="50" fill="#313139" height="88.8594" id="cd" rx="2.5" ry="2.5" style="stroke:#E7E7E7;stroke-width:0.5;" width="117" x="442.5" y="173"/><ellipse cx="466.95" cy="193.1328" fill="#2E5233" rx="11" ry="11" style="stroke:#E7E7E7;stroke-width:1.0;"/><path d="M469.2938,188.8047 C468.3563,188.3672 467.7625,188.2266 466.8875,188.2266 C464.2625,188.2266 462.2625,190.3047 462.2625,193.0234 L462.2625,194.1484 C462.2625,196.7266 464.3719,198.6172 467.2625,198.6172 C468.4813,198.6172 469.6375,198.3203 470.3875,197.7734 C470.9656,197.3672 471.2938,196.9141 471.2938,196.5234 C471.2938,196.0703 470.9031,195.6797 470.4344,195.6797 C470.2156,195.6797 470.0125,195.7578 469.825,195.9453 C469.3719,196.4297 469.3719,196.4297 469.1844,196.5234 C468.7625,196.7891 468.075,196.9141 467.3094,196.9141 C465.2625,196.9141 463.9656,195.8203 463.9656,194.1172 L463.9656,193.0234 C463.9656,191.2422 465.2156,189.9297 466.95,189.9297 C467.5281,189.9297 468.1375,190.0859 468.6063,190.3359 C469.0906,190.6172 469.2625,190.8359 469.3563,191.2422 C469.4188,191.6484 469.45,191.7734 469.5906,191.8984 C469.7313,192.0391 469.9656,192.1484 470.1844,192.1484 C470.45,192.1484 470.7156,192.0078 470.8875,191.7891 C470.9969,191.6328 471.0281,191.4453 471.0281,191.0234 L471.0281,189.6016 C471.0281,189.1641 471.0125,189.0391 470.9188,188.8828 C470.7625,188.6172 470.4813,188.4766 470.1844,188.4766 C469.8875,188.4766 469.6844,188.5703 469.4656,188.8828 L469.2938,188.8047 Z " fill="#FFFFFF"/><text fill="#000000" font-family="sans-serif" font-size="12" font-style="italic" lengthAdjust="spacing" textLength="68" x="481.05" y="189.1387">&#171;(0.7,0.0)&#187;</text><text fill="#FFFFFF" font-family="sans-serif" font-size="14" lengthAdjust="spacing" textLength="17" x="506.55" y="204.9639">cd</text><line style="stroke:#E7E7E7;stroke-width:0.5;" x1="443.5" x2="558.5" y1="213.2656" y2="213.2656"/><text fill="#FFFFFF" font-family="sans-serif" font-size="14" lengthAdjust="spacing" textLength="105" x="448.5" y="230.2607">+weight : 0.35</text><text fill="#FFFFFF" font-family="sans-serif" font-size="14" lengthAdjust="spacing" textLength="94" x="448.5" y="246.5576">+symbol : " "</text><line style="stroke:#E7E7E7;stroke-width:0.5;" x1="443.5" x2="558.5" y1="253.8594" y2="253.8594"/></g><!--link abcd to a--><g id="link_abcd_a"><path codeLine="55" d="M354.939,96.018 C354.401,118.074 353.746,144.933 353.191,167.689 " fill="none" id="abcd-to-a" style="stroke:#E7E7E7;stroke-width:1.0;"/><polygon fill="#E7E7E7" points="353.066,172.778,357.2834,163.8778,353.1874,167.7795,349.2857,163.6835,353.066,172.778" style="stroke:#E7E7E7;stroke-width:1.0;"/><text fill="#FFFFFF" font-family="sans-serif" font-size="13" lengthAdjust="spacing" textLength="8" x="355" y="139.0669">0</text></g><!--link abcd to b--><g id="link_abcd_b"><path codeLine="56" d="M316.197,96.018 C295.685,118.445 270.631,145.837 249.598,168.833 " fill="none" id="abcd-to-b" style="stroke:#E7E7E7;stroke-width:1.0;"/><polygon fill="#E7E7E7" points="245.989,172.778,255.0151,168.8373,249.3639,169.0888,249.1124,163.4375,245.989,172.778" style="stroke:#E7E7E7;stroke-width:1.0;"/><text fill="#FFFFFF" font-family="sans-serif" font-size="13" lengthAdjust="spacing" textLength="8" x="286" y="139.0669">0</text></g><!--link abcd to cd--><g id="link_abcd_cd"><path codeLine="57" d="M394.477,96.018 C414.305,118.445 438.524,145.837 458.855,168.833 " fill="none" id="abcd-to-cd" style="stroke:#E7E7E7;stroke-width:1.0;"/><polygon fill="#E7E7E7" points="462.344,172.778,459.3777,163.3864,459.0315,169.0327,453.3853,168.6864,462.344,172.778" style="stroke:#E7E7E7;stroke-width:1.0;"/><text fill="#FFFFFF" font-family="sans-serif" font-size="13" lengthAdjust="spacing" textLength="8" x="433" y="139.0669">1</text></g><!--link cd to c--><g id="link_cd_c"><path codeLine="58" d="M481.364,262.018 C471.37,284.167 459.191,311.159 448.895,333.9759 " fill="none" id="cd-to-c" style="stroke:#E7E7E7;stroke-width:1.0;"/><polygon fill="#E7E7E7" points="446.728,338.7782,454.0752,332.2193,448.7842,334.2205,446.783,328.9295,446.728,338.7782" style="stroke:#E7E7E7;stroke-width:1.0;"/><text fill="#FFFFFF" font-family="sans-serif" font-size="13" lengthAdjust="spacing" textLength="8" x="467" y="305.0669">0</text></g><!--link cd to d--><g id="link_cd_d"><path codeLine="59" d="M520.636,262.018 C530.63,284.167 542.809,311.159 553.105,333.9759 " fill="none" id="cd-to-d" style="stroke:#E7E7E7;stroke-width:1.0;"/><polygon fill="#E7E7E7" points="555.272,338.7782,555.217,328.9295,553.2158,334.2205,547.9248,332.2193,555.272,338.7782" style="stroke:#E7E7E7;stroke-width:1.0;"/><text fill="#FFFFFF" font-family="sans-serif" font-size="13" lengthAdjust="spacing" textLength="8" x="541" y="305.0669">1</text></g><!--link ab to a--><g id="link_ab_a"><path codeLine="60" d="M226.487,96.317 C234.278,111.975 244.279,129.155 256,143 C266.571,155.486 279.603,167.182 292.618,177.411 " fill="none" id="ab-to-a" style="stroke:#E7E7E7;stroke-width:1.0;"/><polygon fill="#E7E7E7" points="296.654,180.538,291.9897,171.8636,292.7016,177.4755,287.0898,178.1874,296.654,180.538" style="stroke:#E7E7E7;stroke-width:1.0;"/><text fill="#FFFFFF" font-family="sans-serif" font-size="13" lengthAdjust="spacing" textLength="8" x="257" y="139.0669">0</text></g><!--link ab to b--><g id="link_ab_b"><path codeLine="61" d="M206.62,96.025 C206.362,105.881 206.132,116.299 206,126 C205.817,139.453 205.756,154.032 205.757,167.479 " fill="none" id="ab-to-b" style="stroke:#E7E7E7;stroke-width:1.0;"/><polygon fill="#E7E7E7" points="205.76,172.769,209.76,163.769,205.76,167.769,201.76,163.769,205.76,172.769" style="stroke:#E7E7E7;stroke-width:1.0;"/><text fill="#FFFFFF" font-family="sans-serif" font-size="13" lengthAdjust="spacing" textLength="8" x="207" y="139.0669">1</text></g><!--SRC=[VPBRIiGm48RlynIpzaRHBMrtwowo58ed1F56mUiadUq6Uv0segluxewnhTdITW8fax_VdyaaimItga1uA1EyBBEoUjufZU3Sc62pldnRyJquLoOwzHxvrgZWn1GMTvsas2YU2NO0FU67ZZEL5ZaM6YHDM35MlwZYbLSy1vdnkewrhfHuqtWdo-9HVIAGYr7WYCPc0yUUkmxFF7SLda0KmHS3E8LtLEbEmmNuhcSMwdqkoemMY6BVhGLl30BY1t7FNVHmRk6YmPVZUD33XONB1ZyVn_qUBYqyQKy_iNlOunEBHyDJWoQsx_DeDq_8jeJbxmK48oRhSEe6sXukoC4RDfZYkn9Mu_nYsC3KFvz7z0heh_zK7ARqeMV4sio8JVAdq15ibyx3_m40]--></g></svg>