<?xml version="1.0" encoding="us-ascii" standalone="no"?><svg xmlns="http://www.w3.org/2000/svg" xmlns:xlink="http://www.w3.org/1999/xlink" contentStyleType="text/css" height="256px" preserveAspectRatio="none" style="width:489px;height:256px;background:#1B1B1B;" version="1.1" viewBox="0 0 489 256" width="489px" zoomAndPan="magnify"><defs/><g><rect fill="#1B1B1B" height="256" style="stroke:none;stroke-width:1.0;" width="489" x="0" y="0"/><ellipse cx="228.0254" cy="16" fill="#DDDDDD" rx="10" ry="10" style="stroke:none;stroke-width:1.0;"/><rect fill="#313139" height="33.9688" rx="12.5" ry="12.5" style="stroke:#E7E7E7;stroke-width:0.5;" width="165" x="145.5254" y="67"/><text fill="#FFFFFF" font-family="sans-serif" font-size="12" lengthAdjust="spacing" textLength="145" x="155.5254" y="88.1387">&#1056;&#1086;&#1073;&#1086;&#1090;&#1072; &#1076;&#1083;&#1103; &#1088;&#1077;&#1079;&#1080;&#1076;&#1077;&#1085;&#1090;&#1072;</text><rect fill="#313139" height="33.9688" rx="12.5" ry="12.5" style="stroke:#E7E7E7;stroke-width:0.5;" width="165" x="145.5254" y="155"/><text fill="#FFFFFF" font-family="sans-serif" font-size="12" lengthAdjust="spacing" textLength="145" x="155.5254" y="176.1387">&#1056;&#1086;&#1073;&#1086;&#1090;&#1072; &#1073;&#1077;&#1079; &#1088;&#1077;&#1079;&#1080;&#1076;&#1077;&#1085;&#1090;&#1072;</text><ellipse cx="402.0254" cy="240" fill="none" rx="10" ry="10" style="stroke:#DDDDDD;stroke-width:1.0;"/><ellipse cx="402.5254" cy="240.5" fill="#DDDDDD" rx="6" ry="6" style="stroke:none;stroke-width:1.0;"/><!--link start to r1--><g id="link_start_r1"><path d="M228.0254,26.177 C228.0254,35.269 228.0254,49.527 228.0254,61.485 " fill="none" id="start-to-r1" style="stroke:#E7E7E7;stroke-width:1.0;"/><polygon fill="#E7E7E7" points="228.0254,66.791,232.0254,57.791,228.0254,61.791,224.0254,57.791,228.0254,66.791" style="stroke:#E7E7E7;stroke-width:1.0;"/></g><!--link r1 to r2--><g id="link_r1_r2"><path d="M145.2984,87.844 C91.1934,91.646 27.4281,100.488 10.0254,121 C6,125.745 6,130.255 10.0254,135 C26.8843,154.8711 87.2534,163.7901 140.1994,167.7851 " fill="none" id="r1-to-r2" style="stroke:#E7E7E7;stroke-width:1.0;"/><polygon fill="#E7E7E7" points="145.2984,168.1565,136.6124,163.5139,140.3115,167.7936,136.0318,171.4928,145.2984,168.1565" style="stroke:#E7E7E7;stroke-width:1.0;"/><text fill="#FFFFFF" font-family="sans-serif" font-size="11" lengthAdjust="spacing" textLength="191" x="11.0254" y="132.2104">&#1056;&#1077;&#1079;&#1080;&#1076;&#1077;&#1085;&#1090; &#1087;&#1086;&#1082;&#1080;&#1085;&#1091;&#1074; &#1087;&#1086;&#1084;&#1077;&#1096;&#1082;&#1072;&#1085;&#1085;&#1103;</text></g><!--link r2 to r1--><g id="link_r2_r1"><path d="M228.0254,154.8966 C228.0254,141.224 228.0254,121.49 228.0254,106.474 " fill="none" id="r2-to-r1" style="stroke:#E7E7E7;stroke-width:1.0;"/><polygon fill="#E7E7E7" points="228.0254,101.176,224.0254,110.176,228.0254,106.176,232.0254,110.176,228.0254,101.176" style="stroke:#E7E7E7;stroke-width:1.0;"/><text fill="#FFFFFF" font-family="sans-serif" font-size="11" lengthAdjust="spacing" textLength="223" x="229.0254" y="132.2104">&#1056;&#1077;&#1079;&#1080;&#1076;&#1077;&#1085;&#1090; &#1087;&#1086;&#1074;&#1077;&#1088;&#1085;&#1091;&#1074;&#1089;&#1103; &#1074; &#1087;&#1086;&#1084;&#1077;&#1096;&#1082;&#1072;&#1085;&#1085;&#1103;</text></g><!--link r1 to end--><g id="link_r1_end"><path d="M310.7724,87.238 C367.4674,90.72 435.6184,99.428 454.0254,121 C482.8904,154.8272 435.6544,207.2027 413.0363,228.9763 " fill="none" id="r1-to-end" style="stroke:#E7E7E7;stroke-width:1.0;"/><polygon fill="#E7E7E7" points="409.1234,232.6744,418.4119,229.3997,412.7573,229.2401,412.9169,223.5855,409.1234,232.6744" style="stroke:#E7E7E7;stroke-width:1.0;"/></g><!--link r2 to end--><g id="link_r2_end"><path d="M270.5904,189.1454 C308.9134,203.6818 362.9614,224.1824 388.1254,233.7275 " fill="none" id="r2-to-end" style="stroke:#E7E7E7;stroke-width:1.0;"/><polygon fill="#E7E7E7" points="393.0404,235.592,386.0434,228.6607,388.3652,233.8191,383.2068,236.1409,393.0404,235.592" style="stroke:#E7E7E7;stroke-width:1.0;"/></g><!--SRC=[qz3ILD3LjLDGkh3WmhuB6o_ikzXqOOF2XIqNTb_iLxZOS67hXUqNTW2vMo_i1SaeAIGMAnGPSd61z4G3zQ38ArpO3pHa5r1WxyNc2viWt3qNjbxi00fkkB0NADmVYsxLHf0PEAqouk8gCbB0OziceF4D4FikDWBTZDDQaAkB3C56QMXfmam5CW40]--></g></svg>