<?xml version="1.0" encoding="us-ascii" standalone="no"?><svg xmlns="http://www.w3.org/2000/svg" xmlns:xlink="http://www.w3.org/1999/xlink" contentStyleType="text/css" height="274px" preserveAspectRatio="none" style="width:2791px;height:274px;background:#1B1B1B;" version="1.1" viewBox="0 0 2791 274" width="2791px" zoomAndPan="magnify"><defs/><g><rect fill="#1B1B1B" height="274" style="stroke:none;stroke-width:1.0;" width="2791" x="0" y="0"/><!--entity m--><g id="elem_m"><rect fill="#313139" height="36.2969" rx="2.5" ry="2.5" style="stroke:#E7E7E7;stroke-width:0.5;" width="182" x="1085" y="7"/><text fill="#FFFFFF" font-family="sans-serif" font-size="14" lengthAdjust="spacing" textLength="162" x="1095" y="29.9951">1 Smart House System</text></g><!--entity 1--><g id="elem_1"><rect fill="#313139" height="52.5938" rx="2.5" ry="2.5" style="stroke:#E7E7E7;stroke-width:0.5;" width="81" x="148.5" y="103"/><text fill="#FFFFFF" font-family="sans-serif" font-size="14" lengthAdjust="spacing" textLength="23" x="158.5" y="125.9951">1.1</text><text fill="#FFFFFF" font-family="sans-serif" font-size="14" lengthAdjust="spacing" textLength="57" x="162.5" y="142.292">Building</text></g><!--entity 11--><g id="elem_11"><rect fill="#313139" height="52.5938" rx="2.5" ry="2.5" style="stroke:#E7E7E7;stroke-width:0.5;" width="166" x="7" y="216"/><text fill="#FFFFFF" font-family="sans-serif" font-size="14" lengthAdjust="spacing" textLength="37" x="17" y="238.9951">1.1.1</text><text fill="#FFFFFF" font-family="sans-serif" font-size="14" lengthAdjust="spacing" textLength="142" x="21" y="255.292">Building schematics</text></g><!--entity 2--><g id="elem_2"><rect fill="#313139" height="52.5938" rx="2.5" ry="2.5" style="stroke:#E7E7E7;stroke-width:0.5;" width="70" x="443" y="103"/><text fill="#FFFFFF" font-family="sans-serif" font-size="14" lengthAdjust="spacing" textLength="22" x="453" y="125.9951">1.2</text><text fill="#FFFFFF" font-family="sans-serif" font-size="14" lengthAdjust="spacing" textLength="46" x="457" y="142.292">Wiring</text></g><!--entity 21--><g id="elem_21"><rect fill="#313139" height="52.5938" rx="2.5" ry="2.5" style="stroke:#E7E7E7;stroke-width:0.5;" width="89" x="208.5" y="216"/><text fill="#FFFFFF" font-family="sans-serif" font-size="14" lengthAdjust="spacing" textLength="36" x="218.5" y="238.9951">1.2.1</text><text fill="#FFFFFF" font-family="sans-serif" font-size="14" lengthAdjust="spacing" textLength="65" x="222.5" y="255.292">Materials</text></g><!--entity 22--><g id="elem_22"><rect fill="#313139" height="52.5938" rx="2.5" ry="2.5" style="stroke:#E7E7E7;stroke-width:0.5;" width="128" x="333" y="216"/><text fill="#FFFFFF" font-family="sans-serif" font-size="14" lengthAdjust="spacing" textLength="35" x="343" y="238.9951">1.2.2</text><text fill="#FFFFFF" font-family="sans-serif" font-size="14" lengthAdjust="spacing" textLength="104" x="347" y="255.292">Power sockets</text></g><!--entity 23--><g id="elem_23"><rect fill="#313139" height="52.5938" rx="2.5" ry="2.5" style="stroke:#E7E7E7;stroke-width:0.5;" width="124" x="496" y="216"/><text fill="#FFFFFF" font-family="sans-serif" font-size="14" lengthAdjust="spacing" textLength="36" x="506" y="238.9951">1.2.3</text><text fill="#FFFFFF" font-family="sans-serif" font-size="14" lengthAdjust="spacing" textLength="100" x="510" y="255.292">Wires in place</text></g><!--entity 3--><g id="elem_3"><rect fill="#313139" height="52.5938" rx="2.5" ry="2.5" style="stroke:#E7E7E7;stroke-width:0.5;" width="80" x="956" y="103"/><text fill="#FFFFFF" font-family="sans-serif" font-size="14" lengthAdjust="spacing" textLength="23" x="966" y="125.9951">1.3</text><text fill="#FFFFFF" font-family="sans-serif" font-size="14" lengthAdjust="spacing" textLength="56" x="970" y="142.292">Sensors</text></g><!--entity 31--><g id="elem_31"><rect fill="#313139" height="52.5938" rx="2.5" ry="2.5" style="stroke:#E7E7E7;stroke-width:0.5;" width="135" x="655.5" y="216"/><text fill="#FFFFFF" font-family="sans-serif" font-size="14" lengthAdjust="spacing" textLength="37" x="665.5" y="238.9951">1.3.1</text><text fill="#FFFFFF" font-family="sans-serif" font-size="14" lengthAdjust="spacing" textLength="111" x="669.5" y="255.292">Sensors chosen</text></g><!--entity 32--><g id="elem_32"><rect fill="#313139" height="52.5938" rx="2.5" ry="2.5" style="stroke:#E7E7E7;stroke-width:0.5;" width="161" x="825.5" y="216"/><text fill="#FFFFFF" font-family="sans-serif" font-size="14" lengthAdjust="spacing" textLength="36" x="835.5" y="238.9951">1.3.2</text><text fill="#FFFFFF" font-family="sans-serif" font-size="14" lengthAdjust="spacing" textLength="137" x="839.5" y="255.292">Connected sensors</text></g><!--entity 33--><g id="elem_33"><rect fill="#313139" height="52.5938" rx="2.5" ry="2.5" style="stroke:#E7E7E7;stroke-width:0.5;" width="142" x="1022" y="216"/><text fill="#FFFFFF" font-family="sans-serif" font-size="14" lengthAdjust="spacing" textLength="37" x="1032" y="238.9951">1.3.3</text><text fill="#FFFFFF" font-family="sans-serif" font-size="14" lengthAdjust="spacing" textLength="118" x="1036" y="255.292">Inserted sensors</text></g><!--entity 4--><g id="elem_4"><rect fill="#313139" height="52.5938" rx="2.5" ry="2.5" style="stroke:#E7E7E7;stroke-width:0.5;" width="126" x="1272" y="103"/><text fill="#FFFFFF" font-family="sans-serif" font-size="14" lengthAdjust="spacing" textLength="22" x="1282" y="125.9951">1.4</text><text fill="#FFFFFF" font-family="sans-serif" font-size="14" lengthAdjust="spacing" textLength="102" x="1286" y="142.292">Smart devices</text></g><!--entity 41--><g id="elem_41"><rect fill="#313139" height="52.5938" rx="2.5" ry="2.5" style="stroke:#E7E7E7;stroke-width:0.5;" width="135" x="1199.5" y="216"/><text fill="#FFFFFF" font-family="sans-serif" font-size="14" lengthAdjust="spacing" textLength="36" x="1209.5" y="238.9951">1.4.1</text><text fill="#FFFFFF" font-family="sans-serif" font-size="14" lengthAdjust="spacing" textLength="111" x="1213.5" y="255.292">Devices chosen</text></g><!--entity 42--><g id="elem_42"><rect fill="#313139" height="52.5938" rx="2.5" ry="2.5" style="stroke:#E7E7E7;stroke-width:0.5;" width="67" x="1369.5" y="216"/><text fill="#FFFFFF" font-family="sans-serif" font-size="14" lengthAdjust="spacing" textLength="35" x="1379.5" y="238.9951">1.4.2</text><text fill="#FFFFFF" font-family="sans-serif" font-size="14" lengthAdjust="spacing" textLength="43" x="1383.5" y="255.292">Setup</text></g><!--entity 43--><g id="elem_43"><rect fill="#313139" height="52.5938" rx="2.5" ry="2.5" style="stroke:#E7E7E7;stroke-width:0.5;" width="174" x="1472" y="216"/><text fill="#FFFFFF" font-family="sans-serif" font-size="14" lengthAdjust="spacing" textLength="36" x="1482" y="238.9951">1.4.3</text><text fill="#FFFFFF" font-family="sans-serif" font-size="14" lengthAdjust="spacing" textLength="150" x="1486" y="255.292">Connection to wiring</text></g><!--entity 5--><g id="elem_5"><rect fill="#313139" height="52.5938" rx="2.5" ry="2.5" style="stroke:#E7E7E7;stroke-width:0.5;" width="110" x="1789" y="103"/><text fill="#FFFFFF" font-family="sans-serif" font-size="14" lengthAdjust="spacing" textLength="23" x="1799" y="125.9951">1.5</text><text fill="#FFFFFF" font-family="sans-serif" font-size="14" lengthAdjust="spacing" textLength="86" x="1803" y="142.292">Control unit</text></g><!--entity 51--><g id="elem_51"><rect fill="#313139" height="52.5938" rx="2.5" ry="2.5" style="stroke:#E7E7E7;stroke-width:0.5;" width="146" x="1681" y="216"/><text fill="#FFFFFF" font-family="sans-serif" font-size="14" lengthAdjust="spacing" textLength="37" x="1691" y="238.9951">1.5.1</text><text fill="#FFFFFF" font-family="sans-serif" font-size="14" lengthAdjust="spacing" textLength="122" x="1695" y="255.292">Software written</text></g><!--entity 52--><g id="elem_52"><rect fill="#313139" height="52.5938" rx="2.5" ry="2.5" style="stroke:#E7E7E7;stroke-width:0.5;" width="146" x="1862" y="216"/><text fill="#FFFFFF" font-family="sans-serif" font-size="14" lengthAdjust="spacing" textLength="36" x="1872" y="238.9951">1.5.2</text><text fill="#FFFFFF" font-family="sans-serif" font-size="14" lengthAdjust="spacing" textLength="122" x="1876" y="255.292">Hardware chosen</text></g><!--entity 53--><g id="elem_53"><rect fill="#313139" height="52.5938" rx="2.5" ry="2.5" style="stroke:#E7E7E7;stroke-width:0.5;" width="172" x="2043" y="216"/><text fill="#FFFFFF" font-family="sans-serif" font-size="14" lengthAdjust="spacing" textLength="37" x="2053" y="238.9951">1.5.3</text><text fill="#FFFFFF" font-family="sans-serif" font-size="14" lengthAdjust="spacing" textLength="148" x="2057" y="255.292">Hardware connected</text></g><!--entity 6--><g id="elem_6"><rect fill="#313139" height="52.5938" rx="2.5" ry="2.5" style="stroke:#E7E7E7;stroke-width:0.5;" width="154" x="2406" y="103"/><text fill="#FFFFFF" font-family="sans-serif" font-size="14" lengthAdjust="spacing" textLength="23" x="2416" y="125.9951">1.6</text><text fill="#FFFFFF" font-family="sans-serif" font-size="14" lengthAdjust="spacing" textLength="130" x="2420" y="142.292">Phone application</text></g><!--entity 61--><g id="elem_61"><rect fill="#313139" height="52.5938" rx="2.5" ry="2.5" style="stroke:#E7E7E7;stroke-width:0.5;" width="146" x="2250" y="216"/><text fill="#FFFFFF" font-family="sans-serif" font-size="14" lengthAdjust="spacing" textLength="37" x="2260" y="238.9951">1.6.1</text><text fill="#FFFFFF" font-family="sans-serif" font-size="14" lengthAdjust="spacing" textLength="122" x="2264" y="255.292">Software written</text></g><!--entity 62--><g id="elem_62"><rect fill="#313139" height="52.5938" rx="2.5" ry="2.5" style="stroke:#E7E7E7;stroke-width:0.5;" width="104" x="2431" y="216"/><text fill="#FFFFFF" font-family="sans-serif" font-size="14" lengthAdjust="spacing" textLength="36" x="2441" y="238.9951">1.6.2</text><text fill="#FFFFFF" font-family="sans-serif" font-size="14" lengthAdjust="spacing" textLength="80" x="2445" y="255.292">Installation</text></g><!--entity 63--><g id="elem_63"><rect fill="#313139" height="52.5938" rx="2.5" ry="2.5" style="stroke:#E7E7E7;stroke-width:0.5;" width="113" x="2570.5" y="216"/><text fill="#FFFFFF" font-family="sans-serif" font-size="14" lengthAdjust="spacing" textLength="37" x="2580.5" y="238.9951">1.6.3</text><text fill="#FFFFFF" font-family="sans-serif" font-size="14" lengthAdjust="spacing" textLength="89" x="2584.5" y="255.292">Registration</text></g><!--entity 64--><g id="elem_64"><rect fill="#313139" height="52.5938" rx="2.5" ry="2.5" style="stroke:#E7E7E7;stroke-width:0.5;" width="67" x="2718.5" y="216"/><text fill="#FFFFFF" font-family="sans-serif" font-size="14" lengthAdjust="spacing" textLength="36" x="2728.5" y="238.9951">1.6.4</text><text fill="#FFFFFF" font-family="sans-serif" font-size="14" lengthAdjust="spacing" textLength="43" x="2732.5" y="255.292">Setup</text></g><!--link m to 1--><g id="link_m_1"><path d="M1084.95,35.174 C943.647,49.447 663.042,77.937 425,103 C356.352,110.228 276.503,118.914 229.5,124.056 " fill="none" id="m-1" style="stroke:#E7E7E7;stroke-width:1.0;"/></g><!--link 1 to 11--><g id="link_1_11"><path d="M166.039,156.245 C150.045,174.1769 128.803,197.9933 112.837,215.895 " fill="none" id="1-11" style="stroke:#E7E7E7;stroke-width:1.0;"/></g><!--link m to 2--><g id="link_m_2"><path d="M1084.75,39.4 C928.806,62.3 617.738,107.98 513.197,123.331 " fill="none" id="m-2" style="stroke:#E7E7E7;stroke-width:1.0;"/></g><!--link 2 to 21--><g id="link_2_21"><path d="M442.844,147.844 C403.664,167.173 340.226,198.4686 297.587,219.5036 " fill="none" id="2-21" style="stroke:#E7E7E7;stroke-width:1.0;"/></g><!--link 2 to 22--><g id="link_2_22"><path d="M459.213,156.245 C446.128,174.1769 428.748,197.9933 415.685,215.895 " fill="none" id="2-22" style="stroke:#E7E7E7;stroke-width:1.0;"/></g><!--link 2 to 23--><g id="link_2_23"><path d="M496.555,156.245 C509.479,174.1769 526.644,197.9933 539.546,215.895 " fill="none" id="2-23" style="stroke:#E7E7E7;stroke-width:1.0;"/></g><!--link m to 3--><g id="link_m_3"><path d="M1145.87,43.156 C1115.75,60.31 1069.24,86.791 1036.03,105.704 " fill="none" id="m-3" style="stroke:#E7E7E7;stroke-width:1.0;"/></g><!--link 3 to 31--><g id="link_3_31"><path d="M955.718,146.878 C910.925,165.091 838.008,194.7385 785.728,215.9952 " fill="none" id="3-31" style="stroke:#E7E7E7;stroke-width:1.0;"/></g><!--link 3 to 32--><g id="link_3_32"><path d="M975.126,156.245 C960.586,174.1769 941.276,197.9933 926.761,215.895 " fill="none" id="3-32" style="stroke:#E7E7E7;stroke-width:1.0;"/></g><!--link 3 to 33--><g id="link_3_33"><path d="M1018.5,156.245 C1034.17,174.1769 1054.98,197.9933 1070.62,215.895 " fill="none" id="3-33" style="stroke:#E7E7E7;stroke-width:1.0;"/></g><!--link m to 4--><g id="link_m_4"><path d="M1202.61,43.156 C1227.9,59.456 1266.24,84.175 1295.17,102.822 " fill="none" id="m-4" style="stroke:#E7E7E7;stroke-width:1.0;"/></g><!--link 4 to 41--><g id="link_4_41"><path d="M1319.23,156.245 C1308.24,174.1769 1293.65,197.9933 1282.69,215.895 " fill="none" id="4-41" style="stroke:#E7E7E7;stroke-width:1.0;"/></g><!--link 4 to 42--><g id="link_4_42"><path d="M1350.77,156.245 C1361.76,174.1769 1376.35,197.9933 1387.31,215.895 " fill="none" id="4-42" style="stroke:#E7E7E7;stroke-width:1.0;"/></g><!--link 4 to 43--><g id="link_4_43"><path d="M1386.67,156.105 C1422.85,174.0321 1471,197.8907 1507.2,215.8318 " fill="none" id="4-43" style="stroke:#E7E7E7;stroke-width:1.0;"/></g><!--link m to 5--><g id="link_m_5"><path d="M1267.13,39.984 C1407.8,61.568 1673.58,102.35 1788.62,120.002 " fill="none" id="m-5" style="stroke:#E7E7E7;stroke-width:1.0;"/></g><!--link 5 to 51--><g id="link_5_51"><path d="M1823.13,156.245 C1808.59,174.1769 1789.28,197.9933 1774.76,215.895 " fill="none" id="5-51" style="stroke:#E7E7E7;stroke-width:1.0;"/></g><!--link 5 to 52--><g id="link_5_52"><path d="M1865.11,156.245 C1879.81,174.1769 1899.33,197.9933 1914.01,215.895 " fill="none" id="5-52" style="stroke:#E7E7E7;stroke-width:1.0;"/></g><!--link 5 to 53--><g id="link_5_53"><path d="M1899.29,152.034 C1946.23,170.3168 2013.69,196.5908 2063.37,215.938 " fill="none" id="5-53" style="stroke:#E7E7E7;stroke-width:1.0;"/></g><!--link m to 6--><g id="link_m_6"><path d="M1267.13,33.147 C1511.51,52.312 2178.29,104.603 2405.76,122.443 " fill="none" id="m-6" style="stroke:#E7E7E7;stroke-width:1.0;"/></g><!--link 6 to 61--><g id="link_6_61"><path d="M2445.89,156.245 C2420.04,174.1769 2385.71,197.9933 2359.91,215.895 " fill="none" id="6-61" style="stroke:#E7E7E7;stroke-width:1.0;"/></g><!--link 6 to 62--><g id="link_6_62"><path d="M2483,156.245 C2483,174.1769 2483,197.9933 2483,215.895 " fill="none" id="6-62" style="stroke:#E7E7E7;stroke-width:1.0;"/></g><!--link 6 to 63--><g id="link_6_63"><path d="M2516.4,156.245 C2539.66,174.1769 2570.56,197.9933 2593.78,215.895 " fill="none" id="6-63" style="stroke:#E7E7E7;stroke-width:1.0;"/></g><!--link 6 to 64--><g id="link_6_64"><path d="M2552.87,156.075 C2595.97,172.2987 2652.16,194.2643 2701,216 C2706.7,218.5356 2712.68,221.3676 2718.46,224.1965 " fill="none" id="6-64" style="stroke:#E7E7E7;stroke-width:1.0;"/></g><!--SRC=[VTAnJiCm40RWtKznwbuasqaU01ZAW8JemC9Y9KThaTYLxHBnzj2xAzX2OigGxx_y5ziTC1JOQDWlBXNOnND6s7_cWii6N8P5AIVaHiDhWDkpdoSV3lHMgmMss-z7XLe6UJpYueeVCoUqqXIfC-QIUF7fEjRmM5CJ7lle2YRlPXvcj384cs4yxYckc237yHsBQ2EwdMlbuvZ11pZDRaJcLhYjEE4zXXmJ3xLSjJ5SLHICnvWnCDRAajODfxvtCGGS2qwGw_564gP9K8s7a37z2LW9r8qwwaC7FE677v5jnzsxMdBtUrPrzqwhZhHkkE5Lo_d4oeWoZRBLXZu6A17Mt-Fkh8Jgphr4Ieepd8ClH7kktDTGVdTyAwjB26lofKZfNgkUl6u2L7hdqaI1QidUY3UDjws_dXH7h4JgyWFTm6CC2EvqclteBckJ7tY3eTR_R31eDP3NJS381IXkdglPHh1fCDL_neFF9LNO2cwAortvET2X4zLz0G00]--></g></svg>