<?xml version="1.0" encoding="us-ascii" standalone="no"?><svg xmlns="http://www.w3.org/2000/svg" xmlns:xlink="http://www.w3.org/1999/xlink" contentStyleType="text/css" height="274px" preserveAspectRatio="none" style="width:1783px;height:274px;background:#1B1B1B;" version="1.1" viewBox="0 0 1783 274" width="1783px" zoomAndPan="magnify"><defs/><g><rect fill="#1B1B1B" height="274" style="stroke:none;stroke-width:1.0;" width="1783" x="0" y="0"/><!--entity m--><g id="elem_m"><rect fill="#313139" height="36.2969" rx="2.5" ry="2.5" style="stroke:#E7E7E7;stroke-width:0.5;" width="182" x="1008.5" y="7"/><text fill="#FFFFFF" font-family="sans-serif" font-size="14" lengthAdjust="spacing" textLength="162" x="1018.5" y="29.9951">1 Smart House System</text></g><!--entity 1--><g id="elem_1"><rect fill="#313139" height="52.5938" rx="2.5" ry="2.5" style="stroke:#E7E7E7;stroke-width:0.5;" width="117" x="257" y="103"/><text fill="#FFFFFF" font-family="sans-serif" font-size="14" lengthAdjust="spacing" textLength="23" x="267" y="125.9951">1.1</text><text fill="#FFFFFF" font-family="sans-serif" font-size="14" lengthAdjust="spacing" textLength="93" x="271" y="142.292">Initialazation</text></g><!--entity 11--><g id="elem_11"><rect fill="#313139" height="52.5938" rx="2.5" ry="2.5" style="stroke:#E7E7E7;stroke-width:0.5;" width="187" x="7" y="216"/><text fill="#FFFFFF" font-family="sans-serif" font-size="14" lengthAdjust="spacing" textLength="37" x="17" y="238.9951">1.1.1</text><text fill="#FFFFFF" font-family="sans-serif" font-size="14" lengthAdjust="spacing" textLength="163" x="21" y="255.292">Concept development</text></g><!--entity 12--><g id="elem_12"><rect fill="#313139" height="52.5938" rx="2.5" ry="2.5" style="stroke:#E7E7E7;stroke-width:0.5;" width="173" x="229" y="216"/><text fill="#FFFFFF" font-family="sans-serif" font-size="14" lengthAdjust="spacing" textLength="36" x="239" y="238.9951">1.1.2</text><text fill="#FFFFFF" font-family="sans-serif" font-size="14" lengthAdjust="spacing" textLength="149" x="243" y="255.292">Obtaining blueprints</text></g><!--entity 2--><g id="elem_2"><rect fill="#313139" height="52.5938" rx="2.5" ry="2.5" style="stroke:#E7E7E7;stroke-width:0.5;" width="123" x="811" y="103"/><text fill="#FFFFFF" font-family="sans-serif" font-size="14" lengthAdjust="spacing" textLength="22" x="821" y="125.9951">1.2</text><text fill="#FFFFFF" font-family="sans-serif" font-size="14" lengthAdjust="spacing" textLength="99" x="825" y="142.292">Development</text></g><!--entity 21--><g id="elem_21"><rect fill="#313139" height="52.5938" rx="2.5" ry="2.5" style="stroke:#E7E7E7;stroke-width:0.5;" width="186" x="437.5" y="216"/><text fill="#FFFFFF" font-family="sans-serif" font-size="14" lengthAdjust="spacing" textLength="36" x="447.5" y="238.9951">1.2.1</text><text fill="#FFFFFF" font-family="sans-serif" font-size="14" lengthAdjust="spacing" textLength="162" x="451.5" y="255.292">Blueprint modification</text></g><!--entity 22--><g id="elem_22"><rect fill="#313139" height="52.5938" rx="2.5" ry="2.5" style="stroke:#E7E7E7;stroke-width:0.5;" width="207" x="659" y="216"/><text fill="#FFFFFF" font-family="sans-serif" font-size="14" lengthAdjust="spacing" textLength="35" x="669" y="238.9951">1.2.2</text><text fill="#FFFFFF" font-family="sans-serif" font-size="14" lengthAdjust="spacing" textLength="183" x="673" y="255.292">Control unit soft creation</text></g><!--entity 23--><g id="elem_23"><rect fill="#313139" height="52.5938" rx="2.5" ry="2.5" style="stroke:#E7E7E7;stroke-width:0.5;" width="165" x="901" y="216"/><text fill="#FFFFFF" font-family="sans-serif" font-size="14" lengthAdjust="spacing" textLength="36" x="911" y="238.9951">1.2.3</text><text fill="#FFFFFF" font-family="sans-serif" font-size="14" lengthAdjust="spacing" textLength="141" x="915" y="255.292">Phone app creation</text></g><!--entity 3--><g id="elem_3"><rect fill="#313139" height="52.5938" rx="2.5" ry="2.5" style="stroke:#E7E7E7;stroke-width:0.5;" width="141" x="1147" y="103"/><text fill="#FFFFFF" font-family="sans-serif" font-size="14" lengthAdjust="spacing" textLength="23" x="1157" y="125.9951">1.3</text><text fill="#FFFFFF" font-family="sans-serif" font-size="14" lengthAdjust="spacing" textLength="117" x="1161" y="142.292">Implementation</text></g><!--entity 31--><g id="elem_31"><rect fill="#313139" height="52.5938" rx="2.5" ry="2.5" style="stroke:#E7E7E7;stroke-width:0.5;" width="232" x="1101.5" y="216"/><text fill="#FFFFFF" font-family="sans-serif" font-size="14" lengthAdjust="spacing" textLength="37" x="1111.5" y="238.9951">1.3.1</text><text fill="#FFFFFF" font-family="sans-serif" font-size="14" lengthAdjust="spacing" textLength="208" x="1115.5" y="255.292">Material and device purchase</text></g><!--entity 32--><g id="elem_32"><rect fill="#313139" height="52.5938" rx="2.5" ry="2.5" style="stroke:#E7E7E7;stroke-width:0.5;" width="118" x="1368.5" y="216"/><text fill="#FFFFFF" font-family="sans-serif" font-size="14" lengthAdjust="spacing" textLength="36" x="1378.5" y="238.9951">1.3.2</text><text fill="#FFFFFF" font-family="sans-serif" font-size="14" lengthAdjust="spacing" textLength="94" x="1382.5" y="255.292">Device setup</text></g><!--entity 33--><g id="elem_33"><rect fill="#313139" height="52.5938" rx="2.5" ry="2.5" style="stroke:#E7E7E7;stroke-width:0.5;" width="256" x="1521.5" y="216"/><text fill="#FFFFFF" font-family="sans-serif" font-size="14" lengthAdjust="spacing" textLength="37" x="1531.5" y="238.9951">1.3.3</text><text fill="#FFFFFF" font-family="sans-serif" font-size="14" lengthAdjust="spacing" textLength="232" x="1535.5" y="255.292">Device connection and insertion</text></g><!--entity 4--><g id="elem_4"><rect fill="#313139" height="36.2969" rx="2.5" ry="2.5" style="stroke:#E7E7E7;stroke-width:0.5;" width="88" x="1323.5" y="111.5"/><text fill="#FFFFFF" font-family="sans-serif" font-size="14" lengthAdjust="spacing" textLength="68" x="1333.5" y="134.4951">1.4 Usage</text></g><!--link m to 1--><g id="link_m_1"><path d="M1008.42,37.908 C845.805,59.168 509.889,103.086 374.233,120.821 " fill="none" id="m-1" style="stroke:#E7E7E7;stroke-width:1.0;"/></g><!--link 1 to 11--><g id="link_1_11"><path d="M265.905,156.105 C231.181,174.0321 184.968,197.8907 150.218,215.8318 " fill="none" id="1-11" style="stroke:#E7E7E7;stroke-width:1.0;"/></g><!--link 1 to 12--><g id="link_1_12"><path d="M315.5,156.245 C315.5,174.1769 315.5,197.9933 315.5,215.895 " fill="none" id="1-12" style="stroke:#E7E7E7;stroke-width:1.0;"/></g><!--link m to 2--><g id="link_m_2"><path d="M1061.76,43.041 C1025.58,59.379 970.492,84.253 929.063,102.959 " fill="none" id="m-2" style="stroke:#E7E7E7;stroke-width:1.0;"/></g><!--link 2 to 21--><g id="link_2_21"><path d="M810.962,150.473 C754.519,168.792 670.625,196.0209 609.3,215.9245 " fill="none" id="2-21" style="stroke:#E7E7E7;stroke-width:1.0;"/></g><!--link 2 to 22--><g id="link_2_22"><path d="M846.987,156.245 C829.217,174.1769 805.615,197.9933 787.874,215.895 " fill="none" id="2-22" style="stroke:#E7E7E7;stroke-width:1.0;"/></g><!--link 2 to 23--><g id="link_2_23"><path d="M898.245,156.245 C916.177,174.1769 939.993,197.9933 957.895,215.895 " fill="none" id="2-23" style="stroke:#E7E7E7;stroke-width:1.0;"/></g><!--link m to 3--><g id="link_m_3"><path d="M1119.25,43.156 C1138.01,59.456 1166.47,84.175 1187.94,102.822 " fill="none" id="m-3" style="stroke:#E7E7E7;stroke-width:1.0;"/></g><!--link 3 to 31--><g id="link_3_31"><path d="M1217.5,156.245 C1217.5,174.1769 1217.5,197.9933 1217.5,215.895 " fill="none" id="3-31" style="stroke:#E7E7E7;stroke-width:1.0;"/></g><!--link 3 to 32--><g id="link_3_32"><path d="M1265.94,156.105 C1299.86,174.0321 1345,197.8907 1378.94,215.8318 " fill="none" id="3-32" style="stroke:#E7E7E7;stroke-width:1.0;"/></g><!--link 3 to 33--><g id="link_3_33"><path d="M1288.36,151.044 C1294.49,152.747 1300.6,154.42 1306.5,156 C1385.49,177.1549 1475.18,199.4516 1543.03,215.97 " fill="none" id="3-33" style="stroke:#E7E7E7;stroke-width:1.0;"/></g><!--link m to 4--><g id="link_m_4"><path d="M1146.3,43.001 C1188.16,58.325 1251.12,81.661 1305.5,103 C1312.33,105.679 1319.55,108.583 1326.56,111.44 " fill="none" id="m-4" style="stroke:#E7E7E7;stroke-width:1.0;"/></g><!--SRC=[NP7DQWCX54RtFiKb-nJKUOAsYsPHMWZTTMEScqGOhw9EeNtwZZyXcfM8v-ZtNTK5AS6Emz6gaE3DhH7X-1iJsXse29OnrP0d3jy41pB9g4NzgMGS5OOp2_lzjdHeXLySQVG9Plp1nNcxdLQ3CrwKqH7P-JWbPSZG1KxBYZuOIh5AeacYauho-d2zg846hWPwlbq9ritcRFIzXU1C58iFccWzKd0Bh5jvYEwSG0ViLD7KyKMPrS-h8mJb_OCYco8xfGW7wnVCLUwmh7q6jFPvLmd3zXsWQCvJDXh1hq5VLSIgSYQBomVvDhRCHqohhx1ei1XWsS7Q4Q7EoSgJXYA6UqxP_3xf15znsnHWgaMcVm00]--></g></svg>