<?xml version="1.0" encoding="us-ascii" standalone="no"?><svg xmlns="http://www.w3.org/2000/svg" xmlns:xlink="http://www.w3.org/1999/xlink" contentStyleType="text/css" height="563px" preserveAspectRatio="none" style="width:2361px;height:563px;background:#1B1B1B;" version="1.1" viewBox="0 0 2361 563" width="2361px" zoomAndPan="magnify"><defs/><g><rect fill="#1B1B1B" height="563" style="stroke:none;stroke-width:1.0;" width="2361" x="0" y="0"/><!--cluster Smart Home System--><g id="cluster_Smart Home System"><path d="M8.5,6 L174.5,6 A3.75,3.75 0 0 1 177,8.5 L184,28.2969 L2351.5,28.2969 A2.5,2.5 0 0 1 2354,30.7969 L2354,553.5 A2.5,2.5 0 0 1 2351.5,556 L8.5,556 A2.5,2.5 0 0 1 6,553.5 L6,8.5 A2.5,2.5 0 0 1 8.5,6 " fill="none" style="stroke:#FFFFFF;stroke-width:1.5;"/><line style="stroke:#FFFFFF;stroke-width:1.5;" x1="6" x2="184" y1="28.2969" y2="28.2969"/><text fill="#FFFFFF" font-family="sans-serif" font-size="14" font-weight="bold" lengthAdjust="spacing" textLength="165" x="10" y="20.9951">Smart Home System</text></g><!--cluster cu--><g id="cluster_cu"><path d="M610.5,49 L710.5,49 A3.75,3.75 0 0 1 713,51.5 L720,71.2969 L1060.5,71.2969 A2.5,2.5 0 0 1 1063,73.7969 L1063,226.5 A2.5,2.5 0 0 1 1060.5,229 L610.5,229 A2.5,2.5 0 0 1 608,226.5 L608,51.5 A2.5,2.5 0 0 1 610.5,49 " fill="none" style="stroke:#FFFFFF;stroke-width:1.5;"/><line style="stroke:#FFFFFF;stroke-width:1.5;" x1="608" x2="720" y1="71.2969" y2="71.2969"/><text fill="#FFFFFF" font-family="sans-serif" font-size="14" font-weight="bold" lengthAdjust="spacing" textLength="99" x="612" y="63.9951">Control Unit</text></g><!--cluster l--><g id="cluster_l"><path d="M40.5,286 L92.5,286 A3.75,3.75 0 0 1 95,288.5 L102,308.2969 L244.5,308.2969 A2.5,2.5 0 0 1 247,310.7969 L247,396.5 A2.5,2.5 0 0 1 244.5,399 L40.5,399 A2.5,2.5 0 0 1 38,396.5 L38,288.5 A2.5,2.5 0 0 1 40.5,286 " fill="none" style="stroke:#FFFFFF;stroke-width:1.5;"/><line style="stroke:#FFFFFF;stroke-width:1.5;" x1="38" x2="102" y1="308.2969" y2="308.2969"/><text fill="#FFFFFF" font-family="sans-serif" font-size="14" font-weight="bold" lengthAdjust="spacing" textLength="51" x="42" y="300.9951">Lights</text></g><!--cluster ac--><g id="cluster_ac"><path d="M289.5,286 L311.5,286 A3.75,3.75 0 0 1 314,288.5 L321,308.2969 L469.5,308.2969 A2.5,2.5 0 0 1 472,310.7969 L472,396.5 A2.5,2.5 0 0 1 469.5,399 L289.5,399 A2.5,2.5 0 0 1 287,396.5 L287,288.5 A2.5,2.5 0 0 1 289.5,286 " fill="none" style="stroke:#FFFFFF;stroke-width:1.5;"/><line style="stroke:#FFFFFF;stroke-width:1.5;" x1="287" x2="321" y1="308.2969" y2="308.2969"/><text fill="#FFFFFF" font-family="sans-serif" font-size="14" font-weight="bold" lengthAdjust="spacing" textLength="21" x="291" y="300.9951">AC</text></g><!--cluster ap--><g id="cluster_ap"><path d="M514.5,286 L603.5,286 A3.75,3.75 0 0 1 606,288.5 L613,308.2969 L946.5,308.2969 A2.5,2.5 0 0 1 949,310.7969 L949,396.5 A2.5,2.5 0 0 1 946.5,399 L514.5,399 A2.5,2.5 0 0 1 512,396.5 L512,288.5 A2.5,2.5 0 0 1 514.5,286 " fill="none" style="stroke:#FFFFFF;stroke-width:1.5;"/><line style="stroke:#FFFFFF;stroke-width:1.5;" x1="512" x2="613" y1="308.2969" y2="308.2969"/><text fill="#FFFFFF" font-family="sans-serif" font-size="14" font-weight="bold" lengthAdjust="spacing" textLength="88" x="516" y="300.9951">Appliances</text></g><!--cluster f--><g id="cluster_f"><path d="M991.5,286 L1062.5,286 A3.75,3.75 0 0 1 1065,288.5 L1072,308.2969 L1171.5,308.2969 A2.5,2.5 0 0 1 1174,310.7969 L1174,396.5 A2.5,2.5 0 0 1 1171.5,399 L991.5,399 A2.5,2.5 0 0 1 989,396.5 L989,288.5 A2.5,2.5 0 0 1 991.5,286 " fill="none" style="stroke:#FFFFFF;stroke-width:1.5;"/><line style="stroke:#FFFFFF;stroke-width:1.5;" x1="989" x2="1072" y1="308.2969" y2="308.2969"/><text fill="#FFFFFF" font-family="sans-serif" font-size="14" font-weight="bold" lengthAdjust="spacing" textLength="70" x="993" y="300.9951">Food API</text></g><!--cluster s--><g id="cluster_s"><path d="M1216.5,286 L1284.5,286 A3.75,3.75 0 0 1 1287,288.5 L1294,308.2969 L1560.5,308.2969 A2.5,2.5 0 0 1 1563,310.7969 L1563,521.5 A2.5,2.5 0 0 1 1560.5,524 L1216.5,524 A2.5,2.5 0 0 1 1214,521.5 L1214,288.5 A2.5,2.5 0 0 1 1216.5,286 " fill="none" style="stroke:#FFFFFF;stroke-width:1.5;"/><line style="stroke:#FFFFFF;stroke-width:1.5;" x1="1214" x2="1294" y1="308.2969" y2="308.2969"/><text fill="#FFFFFF" font-family="sans-serif" font-size="14" font-weight="bold" lengthAdjust="spacing" textLength="67" x="1218" y="300.9951">Security</text></g><!--cluster se--><g id="cluster_se"><path d="M1605.5,286 L1670.5,286 A3.75,3.75 0 0 1 1673,288.5 L1680,308.2969 L1955.5,308.2969 A2.5,2.5 0 0 1 1958,310.7969 L1958,396.5 A2.5,2.5 0 0 1 1955.5,399 L1605.5,399 A2.5,2.5 0 0 1 1603,396.5 L1603,288.5 A2.5,2.5 0 0 1 1605.5,286 " fill="none" style="stroke:#FFFFFF;stroke-width:1.5;"/><line style="stroke:#FFFFFF;stroke-width:1.5;" x1="1603" x2="1680" y1="308.2969" y2="308.2969"/><text fill="#FFFFFF" font-family="sans-serif" font-size="14" font-weight="bold" lengthAdjust="spacing" textLength="64" x="1607" y="300.9951">Sensors</text></g><!--cluster ph--><g id="cluster_ph"><path d="M2000.5,286 L2050.5,286 A3.75,3.75 0 0 1 2053,288.5 L2060,308.2969 L2319.5,308.2969 A2.5,2.5 0 0 1 2322,310.7969 L2322,396.5 A2.5,2.5 0 0 1 2319.5,399 L2000.5,399 A2.5,2.5 0 0 1 1998,396.5 L1998,288.5 A2.5,2.5 0 0 1 2000.5,286 " fill="none" style="stroke:#FFFFFF;stroke-width:1.5;"/><line style="stroke:#FFFFFF;stroke-width:1.5;" x1="1998" x2="2060" y1="308.2969" y2="308.2969"/><text fill="#FFFFFF" font-family="sans-serif" font-size="14" font-weight="bold" lengthAdjust="spacing" textLength="49" x="2002" y="300.9951">Phone</text></g><!--class i--><g id="elem_i"><rect codeLine="5" fill="#313139" height="129.4844" id="i" rx="2.5" ry="2.5" style="stroke:#E7E7E7;stroke-width:0.5;" width="99" x="947.5" y="84"/><ellipse cx="968.35" cy="100" fill="#352866" rx="11" ry="11" style="stroke:#E7E7E7;stroke-width:1.0;"/><path d="M969.3031,96.7813 L971.0219,96.7813 C971.4125,96.7813 971.6,96.75 971.725,96.6719 C971.9906,96.5156 972.1313,96.2344 972.1313,95.9375 C972.1313,95.6719 972.0219,95.4063 971.7875,95.2344 C971.6156,95.125 971.475,95.0938 971.0219,95.0938 L965.8813,95.0938 C965.4438,95.0938 965.3188,95.1094 965.1625,95.2031 C964.9125,95.3594 964.7563,95.6563 964.7563,95.9375 C964.7563,96.2188 964.8969,96.4688 965.1156,96.6406 C965.2719,96.75 965.4594,96.7813 965.8813,96.7813 L967.6,96.7813 L967.6,103.2969 L965.8813,103.2969 C965.4438,103.2969 965.3188,103.3125 965.1625,103.4219 C964.9125,103.5781 964.7563,103.8594 964.7563,104.1563 C964.7563,104.4063 964.8969,104.6719 965.1156,104.8281 C965.2719,104.9531 965.475,105 965.8813,105 L971.0219,105 C971.7719,105 972.1313,104.7188 972.1313,104.1563 C972.1313,103.875 972.0219,103.625 971.7875,103.4531 C971.6156,103.3281 971.475,103.2969 971.0219,103.2969 L969.3031,103.2969 L969.3031,96.7813 Z " fill="#FFFFFF"/><text fill="#FFFFFF" font-family="sans-serif" font-size="14" font-style="italic" lengthAdjust="spacing" textLength="54" x="983.65" y="104.8467">Imports</text><line style="stroke:#E7E7E7;stroke-width:0.5;" x1="948.5" x2="1045.5" y1="116" y2="116"/><text fill="#FFFFFF" font-family="sans-serif" font-size="14" lengthAdjust="spacing" textLength="52" x="953.5" y="132.9951">I Lights</text><text fill="#FFFFFF" font-family="sans-serif" font-size="14" lengthAdjust="spacing" textLength="28" x="953.5" y="149.292">I AC</text><text fill="#FFFFFF" font-family="sans-serif" font-size="14" lengthAdjust="spacing" textLength="87" x="953.5" y="165.5889">I Appliances</text><text fill="#FFFFFF" font-family="sans-serif" font-size="14" lengthAdjust="spacing" textLength="70" x="953.5" y="181.8857">I Food API</text><text fill="#FFFFFF" font-family="sans-serif" font-size="14" lengthAdjust="spacing" textLength="67" x="953.5" y="198.1826">I Security</text><line style="stroke:#E7E7E7;stroke-width:0.5;" x1="948.5" x2="1045.5" y1="205.4844" y2="205.4844"/></g><!--entity Command Control--><g id="elem_Command Control"><rect fill="#313139" height="46.2969" rx="2.5" ry="2.5" style="stroke:#E7E7E7;stroke-width:0.5;" width="171" x="741.5" y="125.5"/><rect fill="#313139" height="10" style="stroke:#E7E7E7;stroke-width:0.5;" width="15" x="892.5" y="130.5"/><rect fill="#313139" height="2" style="stroke:#E7E7E7;stroke-width:0.5;" width="4" x="890.5" y="132.5"/><rect fill="#313139" height="2" style="stroke:#E7E7E7;stroke-width:0.5;" width="4" x="890.5" y="136.5"/><text fill="#FFFFFF" font-family="sans-serif" font-size="14" lengthAdjust="spacing" textLength="131" x="756.5" y="158.4951">Command Control</text></g><!--entity Timer--><g id="elem_Timer"><rect fill="#313139" height="46.2969" rx="2.5" ry="2.5" style="stroke:#E7E7E7;stroke-width:0.5;" width="82" x="624" y="125.5"/><rect fill="#313139" height="10" style="stroke:#E7E7E7;stroke-width:0.5;" width="15" x="686" y="130.5"/><rect fill="#313139" height="2" style="stroke:#E7E7E7;stroke-width:0.5;" width="4" x="684" y="132.5"/><rect fill="#313139" height="2" style="stroke:#E7E7E7;stroke-width:0.5;" width="4" x="684" y="136.5"/><text fill="#FFFFFF" font-family="sans-serif" font-size="14" lengthAdjust="spacing" textLength="42" x="639" y="158.4951">Timer</text></g><!--entity Lights Control--><g id="elem_Lights Control"><rect fill="#313139" height="46.2969" rx="2.5" ry="2.5" style="stroke:#E7E7E7;stroke-width:0.5;" width="142" x="81" y="329"/><rect fill="#313139" height="10" style="stroke:#E7E7E7;stroke-width:0.5;" width="15" x="203" y="334"/><rect fill="#313139" height="2" style="stroke:#E7E7E7;stroke-width:0.5;" width="4" x="201" y="336"/><rect fill="#313139" height="2" style="stroke:#E7E7E7;stroke-width:0.5;" width="4" x="201" y="340"/><text fill="#FFFFFF" font-family="sans-serif" font-size="14" lengthAdjust="spacing" textLength="102" x="96" y="361.9951">Lights Control</text></g><!--entity AC Control--><g id="elem_AC Control"><rect fill="#313139" height="46.2969" rx="2.5" ry="2.5" style="stroke:#E7E7E7;stroke-width:0.5;" width="118" x="330" y="329"/><rect fill="#313139" height="10" style="stroke:#E7E7E7;stroke-width:0.5;" width="15" x="428" y="334"/><rect fill="#313139" height="2" style="stroke:#E7E7E7;stroke-width:0.5;" width="4" x="426" y="336"/><rect fill="#313139" height="2" style="stroke:#E7E7E7;stroke-width:0.5;" width="4" x="426" y="340"/><text fill="#FFFFFF" font-family="sans-serif" font-size="14" lengthAdjust="spacing" textLength="78" x="345" y="361.9951">AC Control</text></g><!--entity Smart fridge control--><g id="elem_Smart fridge control"><rect fill="#313139" height="46.2969" rx="2.5" ry="2.5" style="stroke:#E7E7E7;stroke-width:0.5;" width="187" x="737.5" y="329"/><rect fill="#313139" height="10" style="stroke:#E7E7E7;stroke-width:0.5;" width="15" x="904.5" y="334"/><rect fill="#313139" height="2" style="stroke:#E7E7E7;stroke-width:0.5;" width="4" x="902.5" y="336"/><rect fill="#313139" height="2" style="stroke:#E7E7E7;stroke-width:0.5;" width="4" x="902.5" y="340"/><text fill="#FFFFFF" font-family="sans-serif" font-size="14" lengthAdjust="spacing" textLength="147" x="752.5" y="361.9951">Smart fridge control</text></g><!--entity Brewer control--><g id="elem_Brewer control"><rect fill="#313139" height="46.2969" rx="2.5" ry="2.5" style="stroke:#E7E7E7;stroke-width:0.5;" width="147" x="555.5" y="329"/><rect fill="#313139" height="10" style="stroke:#E7E7E7;stroke-width:0.5;" width="15" x="682.5" y="334"/><rect fill="#313139" height="2" style="stroke:#E7E7E7;stroke-width:0.5;" width="4" x="680.5" y="336"/><rect fill="#313139" height="2" style="stroke:#E7E7E7;stroke-width:0.5;" width="4" x="680.5" y="340"/><text fill="#FFFFFF" font-family="sans-serif" font-size="14" lengthAdjust="spacing" textLength="107" x="570.5" y="361.9951">Brewer control</text></g><!--entity Order food--><g id="elem_Order food"><rect fill="#313139" height="46.2969" rx="2.5" ry="2.5" style="stroke:#E7E7E7;stroke-width:0.5;" width="118" x="1032" y="329"/><rect fill="#313139" height="10" style="stroke:#E7E7E7;stroke-width:0.5;" width="15" x="1130" y="334"/><rect fill="#313139" height="2" style="stroke:#E7E7E7;stroke-width:0.5;" width="4" x="1128" y="336"/><rect fill="#313139" height="2" style="stroke:#E7E7E7;stroke-width:0.5;" width="4" x="1128" y="340"/><text fill="#FFFFFF" font-family="sans-serif" font-size="14" lengthAdjust="spacing" textLength="78" x="1047" y="361.9951">Order food</text></g><!--entity Police Call--><g id="elem_Police Call"><rect fill="#313139" height="46.2969" rx="2.5" ry="2.5" style="stroke:#E7E7E7;stroke-width:0.5;" width="113" x="1257.5" y="329"/><rect fill="#313139" height="10" style="stroke:#E7E7E7;stroke-width:0.5;" width="15" x="1350.5" y="334"/><rect fill="#313139" height="2" style="stroke:#E7E7E7;stroke-width:0.5;" width="4" x="1348.5" y="336"/><rect fill="#313139" height="2" style="stroke:#E7E7E7;stroke-width:0.5;" width="4" x="1348.5" y="340"/><text fill="#FFFFFF" font-family="sans-serif" font-size="14" lengthAdjust="spacing" textLength="73" x="1272.5" y="361.9951">Police Call</text></g><!--entity Door Control--><g id="elem_Door Control"><rect fill="#313139" height="46.2969" rx="2.5" ry="2.5" style="stroke:#E7E7E7;stroke-width:0.5;" width="133" x="1405.5" y="329"/><rect fill="#313139" height="10" style="stroke:#E7E7E7;stroke-width:0.5;" width="15" x="1518.5" y="334"/><rect fill="#313139" height="2" style="stroke:#E7E7E7;stroke-width:0.5;" width="4" x="1516.5" y="336"/><rect fill="#313139" height="2" style="stroke:#E7E7E7;stroke-width:0.5;" width="4" x="1516.5" y="340"/><text fill="#FFFFFF" font-family="sans-serif" font-size="14" lengthAdjust="spacing" textLength="93" x="1420.5" y="361.9951">Door Control</text></g><!--entity Alarm--><g id="elem_Alarm"><rect fill="#313139" height="46.2969" rx="2.5" ry="2.5" style="stroke:#E7E7E7;stroke-width:0.5;" width="82" x="1273" y="454"/><rect fill="#313139" height="10" style="stroke:#E7E7E7;stroke-width:0.5;" width="15" x="1335" y="459"/><rect fill="#313139" height="2" style="stroke:#E7E7E7;stroke-width:0.5;" width="4" x="1333" y="461"/><rect fill="#313139" height="2" style="stroke:#E7E7E7;stroke-width:0.5;" width="4" x="1333" y="465"/><text fill="#FFFFFF" font-family="sans-serif" font-size="14" lengthAdjust="spacing" textLength="42" x="1288" y="486.9951">Alarm</text></g><!--entity Temperature--><g id="elem_Temperature"><rect fill="#313139" height="46.2969" rx="2.5" ry="2.5" style="stroke:#E7E7E7;stroke-width:0.5;" width="135" x="1798.5" y="329"/><rect fill="#313139" height="10" style="stroke:#E7E7E7;stroke-width:0.5;" width="15" x="1913.5" y="334"/><rect fill="#313139" height="2" style="stroke:#E7E7E7;stroke-width:0.5;" width="4" x="1911.5" y="336"/><rect fill="#313139" height="2" style="stroke:#E7E7E7;stroke-width:0.5;" width="4" x="1911.5" y="340"/><text fill="#FFFFFF" font-family="sans-serif" font-size="14" lengthAdjust="spacing" textLength="95" x="1813.5" y="361.9951">Temperature</text></g><!--entity Movement--><g id="elem_Movement"><rect fill="#313139" height="46.2969" rx="2.5" ry="2.5" style="stroke:#E7E7E7;stroke-width:0.5;" width="117" x="1646.5" y="329"/><rect fill="#313139" height="10" style="stroke:#E7E7E7;stroke-width:0.5;" width="15" x="1743.5" y="334"/><rect fill="#313139" height="2" style="stroke:#E7E7E7;stroke-width:0.5;" width="4" x="1741.5" y="336"/><rect fill="#313139" height="2" style="stroke:#E7E7E7;stroke-width:0.5;" width="4" x="1741.5" y="340"/><text fill="#FFFFFF" font-family="sans-serif" font-size="14" lengthAdjust="spacing" textLength="77" x="1661.5" y="361.9951">Movement</text></g><!--entity Location--><g id="elem_Location"><rect fill="#313139" height="46.2969" rx="2.5" ry="2.5" style="stroke:#E7E7E7;stroke-width:0.5;" width="102" x="2196" y="329"/><rect fill="#313139" height="10" style="stroke:#E7E7E7;stroke-width:0.5;" width="15" x="2278" y="334"/><rect fill="#313139" height="2" style="stroke:#E7E7E7;stroke-width:0.5;" width="4" x="2276" y="336"/><rect fill="#313139" height="2" style="stroke:#E7E7E7;stroke-width:0.5;" width="4" x="2276" y="340"/><text fill="#FFFFFF" font-family="sans-serif" font-size="14" lengthAdjust="spacing" textLength="62" x="2211" y="361.9951">Location</text></g><!--entity Commands--><g id="elem_Commands"><rect fill="#313139" height="46.2969" rx="2.5" ry="2.5" style="stroke:#E7E7E7;stroke-width:0.5;" width="120" x="2041" y="329"/><rect fill="#313139" height="10" style="stroke:#E7E7E7;stroke-width:0.5;" width="15" x="2141" y="334"/><rect fill="#313139" height="2" style="stroke:#E7E7E7;stroke-width:0.5;" width="4" x="2139" y="336"/><rect fill="#313139" height="2" style="stroke:#E7E7E7;stroke-width:0.5;" width="4" x="2139" y="340"/><text fill="#FFFFFF" font-family="sans-serif" font-size="14" lengthAdjust="spacing" textLength="80" x="2056" y="361.9951">Commands</text></g><!--reverse link i to l--><g id="link_i_l"><path codeLine="50" d="M956.042,217.17 C948.39,225.128 939.699,232.133 930,237 C914.457,244.799 321.361,243.983 304,245 C250.69,248.122 105.066,234.696 65,270 C61.6405,272.9603 58.816,276.3913 56.4462,280.1358 C55.2613,282.008 54.19,283.9586 53.2225,285.9679 " fill="none" id="i-backto-l" style="stroke:#E7E7E7;stroke-width:1.0;stroke-dasharray:7.0,7.0;"/><polygon fill="#E7E7E7" points="959.715,213.193,950.6714,217.0934,956.3237,216.8671,956.55,222.5195,959.715,213.193" style="stroke:#E7E7E7;stroke-width:1.0;"/><text fill="#FFFFFF" font-family="sans-serif" font-size="13" lengthAdjust="spacing" textLength="49" x="305" y="258.0669">imports</text></g><!--reverse link i to ac--><g id="link_i_ac"><path codeLine="51" d="M956.017,217.121 C948.369,225.086 939.686,232.106 930,237 C908.377,247.925 518.152,243.108 494,245 C488.967,245.394 317.731,266.599 314,270 C310.691,273.0166 307.9048,276.4904 305.5633,280.2664 C304.9779,281.2104 304.4203,282.1733 303.8893,283.1527 C303.6238,283.6424 303.3649,284.1362 303.1125,284.6338 C302.9863,284.8826 302.8618,285.1323 302.7388,285.383 C302.6773,285.5083 302.6163,285.6339 302.5556,285.7597 " fill="none" id="i-backto-ac" style="stroke:#E7E7E7;stroke-width:1.0;stroke-dasharray:7.0,7.0;"/><polygon fill="#E7E7E7" points="959.689,213.141,950.6462,217.0433,956.2985,216.8158,956.526,222.4681,959.689,213.141" style="stroke:#E7E7E7;stroke-width:1.0;"/><text fill="#FFFFFF" font-family="sans-serif" font-size="13" lengthAdjust="spacing" textLength="49" x="495" y="258.0669">imports</text></g><!--reverse link i to ap--><g id="link_i_ap"><path codeLine="52" d="M955.021,217.276 C947.588,225.028 939.231,231.948 930,237 C853.508,278.863 604.997,213.01 539,270 C535.611,272.9265 532.7642,276.332 530.3779,280.0576 C529.1847,281.9204 528.1067,283.8632 527.1336,285.8661 " fill="none" id="i-backto-ap" style="stroke:#E7E7E7;stroke-width:1.0;stroke-dasharray:7.0,7.0;"/><polygon fill="#E7E7E7" points="958.595,213.408,949.5482,217.3011,955.2008,217.0794,955.4225,222.7319,958.595,213.408" style="stroke:#E7E7E7;stroke-width:1.0;"/><text fill="#FFFFFF" font-family="sans-serif" font-size="13" lengthAdjust="spacing" textLength="49" x="910" y="258.0669">imports</text></g><!--reverse link i to f--><g id="link_i_f"><path codeLine="53" d="M997,218.41 C997,232.7638 997,248.0784 997,263.0129 C997,270.4801 997,277.8522 997,284.9616 C997,285.1838 997,285.4057 997,285.6274 " fill="none" id="i-backto-f" style="stroke:#E7E7E7;stroke-width:1.0;stroke-dasharray:7.0,7.0;"/><polygon fill="#E7E7E7" points="997,213.256,993,222.256,997,218.256,1001,222.256,997,213.256" style="stroke:#E7E7E7;stroke-width:1.0;"/><text fill="#FFFFFF" font-family="sans-serif" font-size="13" lengthAdjust="spacing" textLength="49" x="998" y="258.0669">imports</text></g><!--reverse link i to s--><g id="link_i_s"><path codeLine="54" d="M1051.36,181.385 C1086.44,203.541 1131.75,235.245 1166,270 C1180.88,285.0985 1194.4825,304.5745 1204.555,320.6449 C1207.0731,324.6625 1209.3706,328.4672 1211.4123,331.9375 C1211.9227,332.8051 1212.4172,333.6517 1212.895,334.4756 C1213.134,334.8875 1213.3688,335.2937 1213.5994,335.694 C1213.7147,335.8942 1213.829,336.0928 1213.9422,336.29 " fill="none" id="i-backto-s" style="stroke:#E7E7E7;stroke-width:1.0;stroke-dasharray:7.0,7.0;"/><polygon fill="#E7E7E7" points="1046.7,178.459,1052.1984,186.6302,1050.9356,181.1161,1056.4497,179.8532,1046.7,178.459" style="stroke:#E7E7E7;stroke-width:1.0;"/><text fill="#FFFFFF" font-family="sans-serif" font-size="13" lengthAdjust="spacing" textLength="49" x="1155" y="258.0669">imports</text></g><!--reverse link i to se--><g id="link_i_se"><path codeLine="55" d="M1051.8,156.139 C1175.53,171.944 1472.21,214.653 1555,270 C1572.625,281.782 1586.315,301.1543 1595.7463,317.9995 C1598.1041,322.2108 1600.1957,326.2642 1602.0161,330.0015 C1602.2437,330.4687 1602.467,330.9309 1602.686,331.3879 C1602.7408,331.5022 1602.7953,331.6161 1602.8495,331.7297 " fill="none" id="i-backto-se" style="stroke:#E7E7E7;stroke-width:1.0;stroke-dasharray:7.0,7.0;"/><polygon fill="#E7E7E7" points="1046.76,155.497,1055.1857,160.5968,1051.7203,156.1256,1056.1915,152.6602,1046.76,155.497" style="stroke:#E7E7E7;stroke-width:1.0;"/><text fill="#FFFFFF" font-family="sans-serif" font-size="13" lengthAdjust="spacing" textLength="49" x="1541" y="258.0669">imports</text></g><!--reverse link i to ph--><g id="link_i_ph"><path codeLine="56" d="M1051.94,150.652 C1231.32,155.296 1797.12,177.144 1950,270 C1968.12,281.005 1981.825,300.353 1991.1413,317.3798 C1993.4703,321.6364 1995.5251,325.748 1997.306,329.5479 C1997.5286,330.0229 1997.7469,330.4931 1997.9609,330.958 " fill="none" id="i-backto-ph" style="stroke:#E7E7E7;stroke-width:1.0;stroke-dasharray:7.0,7.0;"/><polygon fill="#E7E7E7" points="1046.74,150.52,1055.6342,154.7501,1051.7383,150.6486,1055.8399,146.7527,1046.74,150.52" style="stroke:#E7E7E7;stroke-width:1.0;"/><text fill="#FFFFFF" font-family="sans-serif" font-size="13" lengthAdjust="spacing" textLength="49" x="1926" y="258.0669">imports</text></g><!--SRC=[XPDDJiCm48NtESKe1-W149iGXAW4ebBB6bdEfBMmFTROfLHLxuvhjq5DJF7AUdd-vZT2Qzfz6FMjxBggd92VOerGButW0Cza49Px7z3KXmhY6GmjsS2auTsgK8Fm8BVPSJfp6v1x8QDlRXnnyCcYVXt91IzglGb-93RjM71EAs4bZfrFH1qqY_b8NgBSiWhxGJuEDqan7Oisd0emHjWEpeNK9SzA6UJyvLXTrvzJJsNfG-bjDbpZnv2cJG0XYuIc_UVrq9TCSKLAdcJFgejlv8rY7nXtoDUMSSXBnrF0lXZlZRj8wQEnZBXC9o5y4R4WhUBkj4ANCtqaufjpQxHWyrTuwubpnpmMmw_GE6GHjen5-YjzeOctSe359jeItcsWl1aaHL1awnjhwI_mY5TmFvk1XZjG-MSwAq9E9JUH-edYfmfEf9Zy8Fq0]--></g></svg>